<svg xmlns="http://www.w3.org/2000/svg" width="82.184" height="202.914" viewBox="0 0 82.184 202.914"><defs><style>.a{fill:#b898c7;}.b{fill:#ffdd63;}</style></defs><g transform="translate(-1098 -72.319)"><path class="a" d="M1112.73,74.649A13.712,13.712,0,0,1,1125.169,88.3v69.262A13.712,13.712,0,0,1,1098,160.19v16.767a25.364,25.364,0,0,0,25.364,25.365h1.8V182.458a13.71,13.71,0,0,1,27.414-.418,25.472,25.472,0,0,0,.509-5.083V97.683a25.364,25.364,0,0,0-25.364-25.364h-4.364A25.269,25.269,0,0,0,1112.73,74.649Z" transform="translate(0 0)"/><path class="a" d="M1246.654,368.27v13.742a13.855,13.855,0,0,1-27.455,2.643v39.161a13.728,13.728,0,0,0,27.455,0Z" transform="translate(-66.47 -162.312)"/><path class="b" d="M1232.615,261.256h0a13.819,13.819,0,0,0,13.818-13.819V178.345a13.819,13.819,0,0,0-27.637,0v69.093A13.819,13.819,0,0,0,1232.615,261.256Z" transform="translate(-66.249 -50.571)"/><path class="b" d="M1185.85,411.038c0-.1,0-.205,0-.308V388.037a13.728,13.728,0,0,0-27.455,0V408.7a13.855,13.855,0,0,1,27.452,2.334Z" transform="translate(-33.125 -165.624)"/></g></svg>