<svg xmlns="http://www.w3.org/2000/svg" xmlns:xlink="http://www.w3.org/1999/xlink" width="567" height="407" viewBox="0 0 567 407">
  <defs>
    <clipPath id="clip-path">
      <rect id="Rectángulo_114" data-name="Rectángulo 114" width="11.737" height="25.406" transform="translate(0 11.72) rotate(-87)" fill="none"/>
    </clipPath>
    <clipPath id="clip-path-2">
      <rect id="Rectángulo_115" data-name="Rectángulo 115" width="25.406" height="11.737" transform="translate(0 1.33) rotate(-3)" fill="none"/>
    </clipPath>
    <clipPath id="clip-Mesa_de_trabajo_1">
      <rect width="567" height="407"/>
    </clipPath>
  </defs>
  <g id="Mesa_de_trabajo_1" data-name="Mesa de trabajo – 1" clip-path="url(#clip-Mesa_de_trabajo_1)">
    <rect width="567" height="407" fill="#fff"/>
    <g id="Grupo_1529" data-name="Grupo 1529" transform="translate(103 -259)">
      <path id="Unión_1" data-name="Unión 1" d="M4559.144-242.009V-405.876h-.018c-.826-19.821,2.188-42.409,15.211-58.267a63.333,63.333,0,0,1,48.278-23.045q2.6,0,5.191.233c23.613,2.144,41.877,22.236,64.441,29.816a67.787,67.787,0,0,0,21.689,3.8c30.206,0,50.336-23.856,74.195-44.751,6.553-5.744,15.211-9.916,23.58-9.916a22.167,22.167,0,0,1,9.794,2.2c18.847,9.191,16.849,41.863,35.329,51.835a20.764,20.764,0,0,0,9.949,2.454c8.6,0,17.436-4.8,23.033-11.934,7.815-9.981,10.449-23.323,11.342-36.187s.316-25.913,2.838-38.539c5.826-29.186,28.537-51.95,56.522-57.676a107.925,107.925,0,0,1,26.54-3.137c25.566,0,115.46,7.064,139.728,63.952V-398.87l-.642-.008v156.869Z" transform="translate(-4662.144 908.01)" fill="#ebf5fa"/>
      <path id="Trazado_1195" data-name="Trazado 1195" d="M868.457,936.862H624.5a.871.871,0,0,1-.873-.871h0a.871.871,0,0,1,.873-.871H868.457a.871.871,0,0,1,.871.871h0A.871.871,0,0,1,868.457,936.862Z" transform="translate(-585.175 -454.751)" fill="#abd7e6"/>
      <path id="Trazado_1196" data-name="Trazado 1196" d="M1749.52,936.862h-36.727a.871.871,0,0,1-.873-.871h0a.871.871,0,0,1,.874-.871h36.727a.871.871,0,0,1,.871.871h0A.871.871,0,0,1,1749.52,936.862Z" transform="translate(-1426.601 -454.751)" fill="#abd7e6"/>
      <path id="Trazado_1197" data-name="Trazado 1197" d="M906.343,957.344H801.751a.871.871,0,0,1-.871-.873h0a.871.871,0,0,1,.871-.871H906.343a.871.871,0,0,1,.873.871h0A.873.873,0,0,1,906.343,957.344Z" transform="translate(-722.219 -470.585)" fill="#abd7e6" opacity="0.5"/>
      <path id="Trazado_1198" data-name="Trazado 1198" d="M1351.2,957.344h-69.952a.871.871,0,0,1-.871-.873h0a.871.871,0,0,1,.871-.871H1351.2a.871.871,0,0,1,.871.871h0a.871.871,0,0,1-.871.873Z" transform="translate(-1092.951 -470.585)" fill="#abd7e6" opacity="0.5"/>
      <path id="Trazado_1199" data-name="Trazado 1199" d="M1107.843,978.914H982.491a.871.871,0,0,1-.871-.873h0a.871.871,0,0,1,.871-.871h125.352a.871.871,0,0,1,.873.871h0A.873.873,0,0,1,1107.843,978.914Z" transform="translate(-861.96 -487.262)" fill="#abd7e6" opacity="0.25"/>
      <path id="Trazado_1200" data-name="Trazado 1200" d="M1583.928,978.914H1555.5a.871.871,0,0,1-.871-.873h0a.871.871,0,0,1,.871-.871h28.427a.871.871,0,0,1,.871.871h0a.871.871,0,0,1-.871.873Z" transform="translate(-1304.991 -487.262)" fill="#abd7e6" opacity="0.25"/>
      <path id="Trazado_1201" data-name="Trazado 1201" d="M949.958,887.311l-.188-.054a30.282,30.282,0,0,1,7.6-12.646l.131.143A29.984,29.984,0,0,0,949.958,887.311Z" transform="translate(-837.335 -407.967)" fill="#f2f2f2"/>
      <g id="Grupo_1418" data-name="Grupo 1418" transform="translate(61.261 268.251)" opacity="0.31">
        <path id="Trazado_1202" data-name="Trazado 1202" d="M1713.609,490.041h-3.461v-3.464a1.014,1.014,0,0,0-2.026,0v3.464h-3.462a1.014,1.014,0,1,0,0,2.026h3.462v3.461a1.014,1.014,0,0,0,2.026,0v-3.461h3.461a1.014,1.014,0,1,0,0-2.026Z" transform="translate(-1481.428 -375.458)" fill="#abd7e6"/>
        <path id="Trazado_1203" data-name="Trazado 1203" d="M731.8,571.935h-2.652v-2.654a.778.778,0,0,0-1.554,0v2.654h-2.652a.776.776,0,0,0,0,1.552H727.6v2.647a.778.778,0,0,0,1.554,0v-2.647H731.8a.776.776,0,0,0,0-1.552Z" transform="translate(-724.17 -439.58)" fill="#abd7e6"/>
        <path id="Trazado_1204" data-name="Trazado 1204" d="M878.6,214.1h-2.019V212.08a.59.59,0,1,0-1.18,0V214.1H873.38a.59.59,0,0,0,0,1.18H875.4V217.3a.59.59,0,1,0,1.18,0V215.28H878.6a.59.59,0,0,0,0-1.18Z" transform="translate(-839.078 -163.518)" fill="#abd7e6" opacity="0.8"/>
        <path id="Trazado_1205" data-name="Trazado 1205" d="M1650.169,47.536h-3.278V44.26a.96.96,0,1,0-1.917,0v3.276H1641.7a.96.96,0,0,0,0,1.917h3.276v3.271a.96.96,0,1,0,1.917,0V49.452h3.278a.96.96,0,0,0,0-1.917Z" transform="translate(-1432.864 -33.444)" fill="#abd7e6" opacity="0.8"/>
        <path id="Trazado_1206" data-name="Trazado 1206" d="M1825.306,115.627h-3.266v-3.278a.96.96,0,0,0-1.917,0v3.278h-3.276a.957.957,0,0,0,0,1.915h3.276v3.278a.96.96,0,0,0,1.917,0v-3.278h3.276a.957.957,0,1,0,0-1.915Z" transform="translate(-1568.248 -86.16)" fill="#abd7e6" opacity="0.8"/>
        <path id="Trazado_1207" data-name="Trazado 1207" d="M1773.015,258.193a5.4,5.4,0,0,0-2.77.778,9.092,9.092,0,0,0-17.357-2.554,6.49,6.49,0,1,0-1.71,12.746h21.838a5.48,5.48,0,1,0,0-10.96Z" transform="translate(-1513.185 -194.039)" fill="#abd7e6" opacity="0.8"/>
        <path id="Trazado_1208" data-name="Trazado 1208" d="M1151.948,65.148a4.887,4.887,0,0,0-2.5.7,8.166,8.166,0,0,0-15.575-2.3,5.825,5.825,0,1,0-1.536,11.442h19.6a4.918,4.918,0,1,0,0-9.836Z" transform="translate(-1035.243 -45.368)" fill="#abd7e6" opacity="0.8"/>
        <path id="Trazado_1209" data-name="Trazado 1209" d="M1338.909,3.98a2.976,2.976,0,0,0-1.522.426A4.99,4.99,0,0,0,1327.86,3a3.485,3.485,0,0,0-.939-.143,3.57,3.57,0,0,0,0,7.141h11.991a3.008,3.008,0,1,0,0-6.016Z" transform="translate(-1187.434 -0.007)" fill="#abd7e6" opacity="0.7"/>
      </g>
      <g id="Grupo_1420" data-name="Grupo 1420" transform="translate(294.465 445.089)" opacity="0.31">
        <g id="Grupo_1419" data-name="Grupo 1419" opacity="0.6">
          <path id="Trazado_1210" data-name="Trazado 1210" d="M1772.829,789.8a10.294,10.294,0,1,1-10.383-10.208A10.294,10.294,0,0,1,1772.829,789.8Z" transform="translate(-1752.242 -779.588)" fill="#abd7e6"/>
        </g>
        <path id="Trazado_1211" data-name="Trazado 1211" d="M1777.63,815.491l4.088,3.895,5.349-7.356" transform="translate(-1771.871 -804.671)" fill="none" stroke="#abd7e6" stroke-linecap="round" stroke-linejoin="round" stroke-width="7"/>
      </g>
      <path id="Trazado_1212" data-name="Trazado 1212" d="M1076.414,297.763a3.362,3.362,0,1,1,3.359-3.361h0A3.362,3.362,0,0,1,1076.414,297.763Z" transform="translate(-932.651 43.228)" fill="#8b6697"/>
      <path id="Trazado_1213" data-name="Trazado 1213" d="M699.441,412.11c-.227.07-.47.145-.7.227" transform="translate(-643.248 -50.379)" fill="none" stroke="#abd7e6" stroke-miterlimit="10" stroke-width="1"/>
      <path id="Trazado_1214" data-name="Trazado 1214" d="M649.217,415.32c-15.239,6.2-16.908,26.427-4.58,33.855,13.34,8.037,19.86-11.714,12-11.017-3.947.352-7.123,7.293-5.548,13.483,1.98,7.844,4.31,13.3,10.661,19.508,12.819,12.551,32.5,11.628,39.016-5.671,3.28-8.7,4.537-20.188,13.631-27.338" transform="translate(-595.092 -52.861)" fill="none" stroke="#abd7e6" stroke-miterlimit="10" stroke-width="1" stroke-dasharray="2.98 2.98"/>
      <path id="Trazado_1215" data-name="Trazado 1215" d="M982.61,512.609q.295-.227.6-.429" transform="translate(-862.726 -127.749)" fill="none" stroke="#abd7e6" stroke-miterlimit="10" stroke-width="1"/>
      <path id="Trazado_1216" data-name="Trazado 1216" d="M1431,226l.472.563" transform="translate(-1209.404 93.515)" fill="none" stroke="#abd7e6" stroke-miterlimit="10" stroke-width="1"/>
      <path id="Trazado_1217" data-name="Trazado 1217" d="M1437.18,228.4c6.333,7.629,13.5,16.532,21.756,19.735,8.874,3.452,20.837-2.9,24.841-11.541,1.517-3.273,1.465-8.146-1.906-9.434-2.926-1.118-6.1,1.6-6.948,4.623-1.611,5.762,2.468,11.9,7.728,14.744,17.038,9.25,34.284,15.228,46.356,29.169,14.842,17.133,13.878,38.428-3.176,40-7.676.708-15.52,1.345-22.684,4.192s-13.551,9.981-12.1,17.544c.925,4.816,4.686,8.486,7.978,12.122s6.451,8.155,5.748,13.009a11.29,11.29,0,0,1-10.6,9.214c-12.186.2-28.207-23.423-41.318-18.458" transform="translate(-1214.183 92.819)" fill="none" stroke="#abd7e6" stroke-miterlimit="10" stroke-width="1" stroke-dasharray="3 3"/>
      <path id="Trazado_1218" data-name="Trazado 1218" d="M1501.066,785.45c-.227.1-.438.209-.656.329" transform="translate(-1263.07 -339.032)" fill="none" stroke="#abd7e6" stroke-miterlimit="10" stroke-width="1"/>
      <path id="Trazado_1219" data-name="Trazado 1219" d="M889.85,386V506.618a4.21,4.21,0,0,0,4.21,4.212h173.09a4.212,4.212,0,0,0,4.2-4.212V386Z" transform="translate(-791.007 -30.191)" fill="#fcf7e0"/>
      <rect id="Rectángulo_105" data-name="Rectángulo 105" width="43.392" height="25.469" rx="10.41" transform="translate(113.206 366.608)" fill="#ffeda5" style="isolation: isolate"/>
      <rect id="Rectángulo_106" data-name="Rectángulo 106" width="43.392" height="25.469" rx="10.41" transform="translate(167.903 366.608)" fill="#ffeda5" style="isolation: isolate"/>
      <rect id="Rectángulo_107" data-name="Rectángulo 107" width="42.171" height="24.75" rx="10.41" transform="translate(223.213 366.964)" fill="#ffeda5" style="isolation: isolate"/>
      <rect id="Rectángulo_108" data-name="Rectángulo 108" width="42.171" height="24.75" rx="10.41" transform="translate(113.814 402.718)" fill="#ffeda5" style="isolation: isolate"/>
      <rect id="Rectángulo_109" data-name="Rectángulo 109" width="42.171" height="24.75" rx="10.41" transform="translate(223.213 402.718)" fill="#ffeda5" style="isolation: isolate"/>
      <rect id="Rectángulo_110" data-name="Rectángulo 110" width="42.171" height="24.75" rx="10.41" transform="translate(168.514 402.718)" fill="#ffeda5" style="isolation: isolate"/>
      <rect id="Rectángulo_111" data-name="Rectángulo 111" width="42.171" height="24.75" rx="10.41" transform="translate(113.814 438.47)" fill="#ffeda5" style="isolation: isolate"/>
      <rect id="Rectángulo_112" data-name="Rectángulo 112" width="42.171" height="24.75" rx="10.41" transform="translate(223.213 438.475)" fill="#ffeda5" style="isolation: isolate"/>
      <rect id="Rectángulo_113" data-name="Rectángulo 113" width="42.171" height="24.75" rx="10.41" transform="translate(168.514 438.475)" fill="#ffeda5" style="isolation: isolate"/>
      <path id="Trazado_1220" data-name="Trazado 1220" d="M1028.8,422.365l-1.98-1.992a1.053,1.053,0,0,0-1.486,0h0l-12.433,12.32-5.26-5.3a1.048,1.048,0,0,0-1.481,0l-2,1.98a1.066,1.066,0,0,0,0,1.495l7.987,8.046a1.06,1.06,0,0,0,1.493,0l15.171-15.057a1.05,1.05,0,0,0,0-1.486Z" transform="translate(-879.149 -56.531)" fill="#32ac73"/>
      <path id="Trazado_1221" data-name="Trazado 1221" d="M1270.771,422.366l-1.98-1.992a1.053,1.053,0,0,0-1.486,0h0l-12.433,12.319-5.26-5.3a1.053,1.053,0,0,0-1.484,0l-2,1.98a1.066,1.066,0,0,0,0,1.495l7.987,8.046a1.055,1.055,0,0,0,1.49,0l15.173-15.057a1.05,1.05,0,0,0,0-1.486Z" transform="translate(-1066.231 -56.531)" fill="#32ac73"/>
      <path id="Trazado_1222" data-name="Trazado 1222" d="M889.85,275.725v21.912h181.5V275.725a4.212,4.212,0,0,0-4.208-4.215H894.062a4.21,4.21,0,0,0-4.212,4.212Z" transform="translate(-791.007 58.328)" fill="#b28dc0"/>
      <path id="Trazado_1223" data-name="Trazado 1223" d="M1605.962,973.645a3.07,3.07,0,0,1-.15.928,2.238,2.238,0,0,1-1.427,1.2c-.608.211-1.25.272-1.867.454a1.615,1.615,0,0,0-.728.376,1.315,1.315,0,0,0,.42,1.935,3.639,3.639,0,0,0,2.212.343,29.3,29.3,0,0,0,4.784-.681c.567-.134,1.232-.4,1.323-.973a1.574,1.574,0,0,0-.045-.544,32.4,32.4,0,0,1-.613-5.934,11.941,11.941,0,0,0-3.464-.025C1605.746,971.149,1606,972.964,1605.962,973.645Z" transform="translate(-1341.237 -482.188)" fill="#f9c4c4" style="isolation: isolate"/>
      <path id="Trazado_1224" data-name="Trazado 1224" d="M1681.326,943.795q.785,1.3,1.477,2.656a9.353,9.353,0,0,1,.8,1.969,9,9,0,0,1,.075,3.176q-.1.837-.227,1.674a2.073,2.073,0,0,1-.7,1.479,1.61,1.61,0,0,0,1.393.125,4.01,4.01,0,0,0,1.225-.751,10.833,10.833,0,0,0,4.185-7.769,1.248,1.248,0,0,0-.129-.68,1.373,1.373,0,0,0-.411-.365,31.642,31.642,0,0,1-4.85-4.081.588.588,0,0,0-.354-.227.619.619,0,0,0-.318.089c-.907.454-2.4,1.093-2.774,2.116A1.418,1.418,0,0,1,1681.326,943.795Z" transform="translate(-1402.479 -459.297)" fill="#f9c4c4" style="isolation: isolate"/>
      <path id="Trazado_1225" data-name="Trazado 1225" d="M1602.968,994.009a24.239,24.239,0,0,1-6.224,1.4.846.846,0,0,1-.744-.138.565.565,0,0,1-.05-.637,1.692,1.692,0,0,1,.454-.5l1.411-1.182a4.911,4.911,0,0,0-3.586.617,1.433,1.433,0,0,0-.717.819,1.338,1.338,0,0,0,.252.971,4.476,4.476,0,0,0,2.522,1.769,13.591,13.591,0,0,0,3.11.429l1.912.109a.513.513,0,0,0,.129.681,1.362,1.362,0,0,0,.71.261,9.149,9.149,0,0,0,2.375.032.907.907,0,0,0,.547-.193.345.345,0,0,0,.027-.485l-.027-.03a.576.576,0,0,0,.524-.379,1.573,1.573,0,0,0,.07-.681,7.121,7.121,0,0,0-.6-2.949C1604.6,993.151,1603.628,993.725,1602.968,994.009Z" transform="translate(-1335.043 -499.376)" fill="#828270"/>
      <path id="Trazado_1226" data-name="Trazado 1226" d="M1692.829,959.541a8.755,8.755,0,0,0-2.026-1.123.238.238,0,0,0-.336.043.227.227,0,0,0-.03.05,20.725,20.725,0,0,0-2.983,5.753,9.986,9.986,0,0,1-1.49,3.375c-.1.127-.274.254-.415.182-.2-.1-.079-.436-.2-.635-.141-.25-.529-.136-.762.036a3.277,3.277,0,0,0-.939,1.093,1.086,1.086,0,0,0-.168.68,1.01,1.01,0,0,0,.531.681c1.014.588,2.287.163,3.371-.272a3.9,3.9,0,0,0,.848-.424c.547-.386.844-1.027,1.388-1.4a7.631,7.631,0,0,0,.837-.524c.5-.454.546-1.223.907-1.8.61-.991,1.978-1.248,2.513-2.3A2.957,2.957,0,0,0,1692.829,959.541Z" transform="translate(-1404.614 -472.725)" fill="#828270"/>
      <path id="Trazado_1227" data-name="Trazado 1227" d="M1596.2,718.316a8.511,8.511,0,0,1,2.949,7.157,25.289,25.289,0,0,1-1.971,7.769q-2.008,5.4-4.008,10.793a4.483,4.483,0,0,1,.272,1.229,1.511,1.511,0,0,1-.272,1.207c-.127.145-.274.256-.411.4a2.136,2.136,0,0,0-.354,1.674,4.837,4.837,0,0,1,.045,1.749c-.061.245-.177.474-.227.719a.706.706,0,0,0,.2.681c.272.227.819.147.907.492a40.812,40.812,0,0,1,9.092,11.2c.885,1.588,1.778,3.355,3.43,4.126a60.061,60.061,0,0,0-4.623,4.065c-2.307-2.021-3.457-4.961-5.34-7.372a16.942,16.942,0,0,0-4.256-3.8,7.789,7.789,0,0,1,1.046,4.7,21.492,21.492,0,0,1-.358,2.373c-.422,2.5-.383,5.188.957,7.336a8.045,8.045,0,0,1-4.673,1.073,3.977,3.977,0,0,1-2.545-1.454,95.742,95.742,0,0,0-2.949-15.529,19.022,19.022,0,0,1-.635-3.144c-.193-2.184.39-4.614-.227-6.628a12.331,12.331,0,0,1-.544-3.021v-.324a12.347,12.347,0,0,0-.259-2.218l-1.161-5.165c-.508-2.268-1.016-4.612-.467-6.859a3.7,3.7,0,0,1-.744-.39c-.454-.254-.374-.907-.17-1.388s.472-1,.245-1.461a3.516,3.516,0,0,0-.413-.522,2.619,2.619,0,0,1-.381-1.422l-.143-1.971a3.856,3.856,0,0,1,1.944,1.7c-1.075-1.665-.547-4.042.25-5.861a2.67,2.67,0,0,1,2.5-1.985C1587.295,717.5,1592.643,715.642,1596.2,718.316Z" transform="translate(-1323.221 -286.046)" fill="#1b75ba"/>
      <path id="Trazado_1228" data-name="Trazado 1228" d="M1638.978,772.5s-2.153,1.438-2.153,2.513-.544,10.759-.544,10.759V792.6s.356,3.586,0,4.482,0,5.022,0,5.56.544-5.56.544-5.56v-6.465l.547-14.708Z" transform="translate(-1367.997 -329.019)" opacity="0.1" style="isolation: isolate"/>
      <path id="Trazado_1229" data-name="Trazado 1229" d="M1528.987,504.956l-1.252-.488c-2.563-1.028-5.127-2.057-7.606-3.262a11.639,11.639,0,0,1-4.764-3.564c-.361-.544-.637-1.118-1-1.656a13.074,13.074,0,0,0-1.361-1.62l-3.348-3.577c-.256.476.071,1.039.334,1.513a6.454,6.454,0,0,1,.619,1.588.719.719,0,0,1-.018.544,1.043,1.043,0,0,1-.454.322,1.6,1.6,0,0,0-.68,1.849,2.064,2.064,0,0,0,1.547,1.334,3,3,0,0,1,.68.166c.4.2.6.656.885,1a3.969,3.969,0,0,0,2.164,1.064c1.239,1.413,2.525,2.763,3.766,4.176a27.015,27.015,0,0,0,6.236,5.757,9.163,9.163,0,0,0,2.815,1.134A45.607,45.607,0,0,1,1528.987,504.956Z" transform="translate(-1270.009 -111.211)" fill="#a0626b"/>
      <path id="Trazado_1230" data-name="Trazado 1230" d="M1528.987,504.956l-1.252-.488c-2.563-1.028-5.127-2.057-7.606-3.262a11.639,11.639,0,0,1-4.764-3.564c-.361-.544-.637-1.118-1-1.656a13.074,13.074,0,0,0-1.361-1.62l-3.348-3.577c-.256.476.071,1.039.334,1.513a6.454,6.454,0,0,1,.619,1.588.719.719,0,0,1-.018.544,1.043,1.043,0,0,1-.454.322,1.6,1.6,0,0,0-.68,1.849,2.064,2.064,0,0,0,1.547,1.334,3,3,0,0,1,.68.166c.4.2.6.656.885,1a3.969,3.969,0,0,0,2.164,1.064c1.239,1.413,2.525,2.763,3.766,4.176a27.015,27.015,0,0,0,6.236,5.757,9.163,9.163,0,0,0,2.815,1.134A45.607,45.607,0,0,1,1528.987,504.956Z" transform="translate(-1270.009 -111.211)" fill="#f2bbbb" style="isolation: isolate"/>
      <path id="Trazado_1231" data-name="Trazado 1231" d="M1581.529,559.14a1.5,1.5,0,0,1-1.071-.513,1.438,1.438,0,0,1-.118-.941,26.458,26.458,0,0,1,1.361-6.036,6.511,6.511,0,0,0,2.949,2.379,21.8,21.8,0,0,0,3.162,1.44c-.272-.086-.941,4.113-1.32,4.369-.474.333-1.622-.116-2.148-.206Z" transform="translate(-1324.844 -158.266)" fill="#abd7e6"/>
      <circle id="Elipse_43" data-name="Elipse 43" cx="5.739" cy="5.739" r="5.739" transform="translate(253.854 388.155)" fill="#f9c4c4" style="isolation: isolate"/>
      <path id="Trazado_1232" data-name="Trazado 1232" d="M1593.37,561.323s3.766,3.228,2.153,5.381-2.513,3.586-.361,3.768,9.325-3.589,9.325-3.589-6.637-5.381-5.56-8.606S1593.37,561.323,1593.37,561.323Z" transform="translate(-1334.943 -162.676)" fill="#f8bdbd"/>
      <path id="Trazado_1233" data-name="Trazado 1233" d="M1588.989,583.338a4.45,4.45,0,0,0-3.3,3.314c-.424,1.935.474,4.1-.372,5.877a21.882,21.882,0,0,1-1.638,2.268,4.641,4.641,0,0,0,.431,5.356c.375.424.855.837.907,1.4a5.081,5.081,0,0,1-.077.764,5.7,5.7,0,0,0,.392,1.778,1.809,1.809,0,0,1-.15,1.47,2.121,2.121,0,0,0-.37,1.411,10.075,10.075,0,0,1-.227,2.3c-.025.331,0,.665-.03,1a5.994,5.994,0,0,1-.2.937l-.481,1.772a19.732,19.732,0,0,0,8.191,1.465,40.325,40.325,0,0,0,7.486-1.093c.751-.159,1.5-.318,2.241-.522-1.563-2.042-1.728-4.748-1.771-7.318a109.007,109.007,0,0,0-.96-12.807,16.408,16.408,0,0,0,1.4-4.607,7.685,7.685,0,0,0,.175-1.946,10.423,10.423,0,0,0-1.318-3.9,5.04,5.04,0,0,0-2.425-2.81,1.935,1.935,0,0,0-1.867.2c-.946.717-.665,1.951-.907,3a4.026,4.026,0,0,1-2.919,2.722,9.461,9.461,0,0,1-3.069.288.547.547,0,0,1-.515-.576.538.538,0,0,1,.127-.32C1588.168,584.3,1588.61,583.8,1588.989,583.338Z" transform="translate(-1326.948 -179.639)" fill="#abd7e6"/>
      <path id="Trazado_1234" data-name="Trazado 1234" d="M1587.955,694.93a37.2,37.2,0,0,1-6.726,4.718c-1.438.721-2.967,1.254-4.369,2.03a1.755,1.755,0,0,0-.819.742,1.834,1.834,0,0,0-.043,1.025l.621,4.292c.172,1.164,1.291,1.912,2.184,2.654a1.582,1.582,0,0,1,.059-1.041,3.55,3.55,0,0,1,.209-.313,2.941,2.941,0,0,0,.3-2.019,10.388,10.388,0,0,1-.227-2.069.68.68,0,0,1,.29-.6c3.051-1.465,6.336-2.59,9.418-3.983a10.062,10.062,0,0,0,2.284-1.3,3.529,3.529,0,0,0,1.329-2.2.438.438,0,0,0-.057-.336.455.455,0,0,0-.227-.136C1590.791,695.89,1589.341,695.427,1587.955,694.93Z" transform="translate(-1321.471 -269.045)" fill="#f9c4c4" style="isolation: isolate"/>
      <path id="Trazado_1235" data-name="Trazado 1235" d="M1593.767,615.479a3.086,3.086,0,0,0-2.52,1.733,3.857,3.857,0,0,0-.143,1.361,4.455,4.455,0,0,0,.32,1.892,5.413,5.413,0,0,0,.64.93c2.522,3.232,3.79,7.293,6.247,10.577.227.29.617.667.495,1.007a2.42,2.42,0,0,0-.118.274.54.54,0,0,0,.181.476,1.2,1.2,0,0,1,.3.436c.045.172-.068.395-.245.381a3.665,3.665,0,0,0,2.055,1.876,8.611,8.611,0,0,0,4.591,1.134,10.465,10.465,0,0,0,.544-3.759,9.654,9.654,0,0,0-.907-2.665l-1.068-2.332a33.878,33.878,0,0,0-3.092-5.777,8.692,8.692,0,0,1-1.134-1.844c-.324-.844-1.218-1.436-1.758-2.159a13.254,13.254,0,0,0-2.722-2.974A2.491,2.491,0,0,0,1593.767,615.479Z" transform="translate(-1333.183 -207.605)" opacity="0.1" style="isolation: isolate"/>
      <path id="Trazado_1236" data-name="Trazado 1236" d="M1593.767,613.109a3.089,3.089,0,0,0-2.52,1.731,3.858,3.858,0,0,0-.143,1.361,4.465,4.465,0,0,0,.32,1.892,5.306,5.306,0,0,0,.64.928c2.522,3.235,3.79,7.3,6.247,10.58.227.288.617.667.495,1.007a2.4,2.4,0,0,0-.118.272.546.546,0,0,0,.181.479,1.193,1.193,0,0,1,.3.433c.045.172-.068.4-.245.383a3.665,3.665,0,0,0,2.055,1.876,8.611,8.611,0,0,0,4.591,1.134,10.453,10.453,0,0,0,.544-3.756,9.654,9.654,0,0,0-.907-2.665l-1.068-2.332a33.9,33.9,0,0,0-3.092-5.78,8.694,8.694,0,0,1-1.134-1.844c-.324-.842-1.218-1.434-1.758-2.157a13.2,13.2,0,0,0-2.722-2.974A2.492,2.492,0,0,0,1593.767,613.109Z" transform="translate(-1333.183 -205.773)" fill="#abd7e6"/>
      <path id="Trazado_1237" data-name="Trazado 1237" d="M1575.787,507.449a6.264,6.264,0,0,0-2.232.47,2.15,2.15,0,0,0-1.3,1.751,10.69,10.69,0,0,1,.106,1.329c-.1.73-.776,1.225-1.134,1.871a3.351,3.351,0,0,0,.656,3.55c.792.994,1.865,1.76,2.679,2.747a7.106,7.106,0,0,1,1.479,5.714,4.584,4.584,0,0,0-.145,1.193,3.434,3.434,0,0,0,1.027,1.853,85.517,85.517,0,0,1,6.476,8.62,23,23,0,0,1,1.588,2.722,15.921,15.921,0,0,0,1.465,2.888A7.609,7.609,0,0,0,1588.6,544a15.173,15.173,0,0,0,6.882,2.221l-1.406-3.487a4,4,0,0,1-.424-1.937c.157-1.257,1.422-2.08,1.835-3.276a3.98,3.98,0,0,0-.073-2.4c-.5-1.767-1.493-3.355-2.028-5.111a10.381,10.381,0,0,1-.3-4.764,7.62,7.62,0,0,0,.227-2.1c-.258-2.135-2.763-3.158-3.922-4.968a10.6,10.6,0,0,1-1.134-3.956,12.417,12.417,0,0,0-2.268-5.553,6.54,6.54,0,0,0-5.188-2.645,10.517,10.517,0,0,0-3.119.78l-2.631.96" transform="translate(-1317.609 -122.982)" fill="#302411"/>
      <g id="Grupo_1421" data-name="Grupo 1421" transform="translate(258.3 388.131)" opacity="0.1">
        <path id="Trazado_1238" data-name="Trazado 1238" d="M1643.513,529.286a12.642,12.642,0,0,0,.944,3.609c-.08-.426-.145-.855-.227-1.277a15.972,15.972,0,0,0-.88-3.128C1643.42,528.753,1643.468,529.016,1643.513,529.286Z" transform="translate(-1631.886 -528.49)"/>
        <path id="Trazado_1239" data-name="Trazado 1239" d="M1664.937,575.822a10.422,10.422,0,0,0,.306,4.764,11.773,11.773,0,0,0,.454,1.229,10.417,10.417,0,0,1-.034-3.654,7.6,7.6,0,0,0,.227-2.1,3.267,3.267,0,0,0-.71-1.64C1665.125,574.89,1665.016,575.357,1664.937,575.822Z" transform="translate(-1648.464 -564.001)"/>
        <path id="Trazado_1240" data-name="Trazado 1240" d="M1670.353,629.238a13.287,13.287,0,0,0-.547-1.508,3.355,3.355,0,0,1-.1,1.588c-.413,1.193-1.681,2.021-1.835,3.278a3.965,3.965,0,0,0,.424,1.935c.093.227.186.467.272.7a2.145,2.145,0,0,1,0-.3c.156-1.257,1.422-2.082,1.835-3.278A3.846,3.846,0,0,0,1670.353,629.238Z" transform="translate(-1650.829 -605.219)"/>
        <path id="Trazado_1241" data-name="Trazado 1241" d="M1604.806,607.484a7.669,7.669,0,0,1-2.15-1.846,16.659,16.659,0,0,1-1.465-2.885,22.92,22.92,0,0,0-1.588-2.722,85.823,85.823,0,0,0-6.474-8.62c-.086-.1-.168-.193-.25-.29a2.821,2.821,0,0,0-.064.769,3.428,3.428,0,0,0,1.028,1.853,85.741,85.741,0,0,1,6.476,8.62,22.953,22.953,0,0,1,1.588,2.722,15.913,15.913,0,0,0,1.465,2.888,7.575,7.575,0,0,0,2.148,1.842,15.175,15.175,0,0,0,6.882,2.221l-.948-2.341A15.2,15.2,0,0,1,1604.806,607.484Z" transform="translate(-1592.811 -576.913)"/>
      </g>
      <path id="Trazado_1242" data-name="Trazado 1242" d="M1058.517,244.9h0a4.267,4.267,0,0,1-4.267-4.267V227.055a4.267,4.267,0,0,1,4.267-4.265h0a4.265,4.265,0,0,1,4.265,4.265v13.574A4.267,4.267,0,0,1,1058.517,244.9Z" transform="translate(-918.115 95.997)" fill="#e5cfe3"/>
      <path id="Trazado_1243" data-name="Trazado 1243" d="M1497.465,244.9h0a4.267,4.267,0,0,1-4.265-4.267V227.055a4.264,4.264,0,0,1,4.265-4.265h0a4.267,4.267,0,0,1,4.267,4.265v13.574A4.267,4.267,0,0,1,1497.465,244.9Z" transform="translate(-1257.495 95.997)" fill="#e5cfe3"/>
      <g id="Grupo_1423" data-name="Grupo 1423" transform="translate(204.859 302.555)" opacity="0.6">
        <g id="Grupo_1422" data-name="Grupo 1422" clip-path="url(#clip-path)">
          <path id="Trazado_1244" data-name="Trazado 1244" d="M1367.074,163.349l17.9-5.29-25.081-6.839Z" transform="translate(-1359.284 -151.223)" fill="#abd7e6"/>
        </g>
      </g>
      <path id="Trazado_1245" data-name="Trazado 1245" d="M1376.447,160.56l-16.557-9.35,14.842,9.872Z" transform="translate(-1154.425 151.34)" fill="#9dcad4"/>
      <path id="Trazado_1246" data-name="Trazado 1246" d="M1410.614,194.73l.912,5.176L1406.3,196Z" transform="translate(-1190.307 117.692)" fill="#abd7e6" opacity="0.8"/>
      <path id="Trazado_1247" data-name="Trazado 1247" d="M1427.035,192.43l-.8,5.7-.912-5.176Z" transform="translate(-1205.013 119.47)" fill="#9dcad4"/>
      <g id="Grupo_1425" data-name="Grupo 1425" transform="translate(48.615 345.935)" opacity="0.6">
        <g id="Grupo_1424" data-name="Grupo 1424" transform="translate(0 0)" clip-path="url(#clip-path-2)">
          <path id="Trazado_1248" data-name="Trazado 1248" d="M687.587,354.629l-17.9-5.29,25.081-6.839Z" transform="translate(-669.402 -342.494)" fill="#abd7e6"/>
        </g>
      </g>
      <path id="Trazado_1249" data-name="Trazado 1249" d="M707.27,351.848l16.557-9.348-14.842,9.87Z" transform="translate(-649.843 3.441)" fill="#9dcad4"/>
      <path id="Trazado_1250" data-name="Trazado 1250" d="M711.722,386.01l-.912,5.176,5.226-3.9Z" transform="translate(-652.58 -30.199)" fill="#abd7e6" opacity="0.8"/>
      <path id="Trazado_1251" data-name="Trazado 1251" d="M707.27,383.71l.8,5.7.912-5.176Z" transform="translate(-649.843 -28.421)" fill="#9dcad4"/>
      <path id="Trazado_1252" data-name="Trazado 1252" d="M809.149,746.464s8.57-.454,8.581-2.2c0-1.361-5.235-.209-5.235-.209a65.807,65.807,0,0,0,8.393-3.026,4.735,4.735,0,0,0,1.588-1.134,1.67,1.67,0,0,0,.256-1.828c-.454-.764-1.518-.826-2.4-.721-3.53.426-6.011,2.316-9.189,3.911a29.031,29.031,0,0,0,6.317-4.394c1.783-1.588,3.856-3.085,5.047-5.217.744-1.334,1.039-3.305-.279-4.4-1.277-1.064-3.11-.567-4.514-.075a18.423,18.423,0,0,0-9.248,7.306,31.81,31.81,0,0,0,1.3-4.811c.125-.658.17-1.47-.374-1.86-.705-.506-1.649.17-2.2.844a16.577,16.577,0,0,0-2.972,5.526c.433-4.5.862-9.087-.118-13.5a7.165,7.165,0,0,0-1.161-2.842,3.092,3.092,0,0,0-2.663-1.3,4.06,4.06,0,0,0-2.425,1.527,13.413,13.413,0,0,0-.42,17.4,18.45,18.45,0,0,0-3.507-2.87c-.288-.181-.71-.338-.926-.075a.681.681,0,0,0-.093.5c.2,2.141,1.631,3.933,3.006,5.587a13.889,13.889,0,0,0-11.435-4.734,1.639,1.639,0,0,0-1.361.6,1.42,1.42,0,0,0-.127.873c.227,2.146,2.121,3.7,3.983,4.793,1.565.907,3.214,1.685,4.859,2.452a13.384,13.384,0,0,0-2.842-.1.78.78,0,0,0-.59.227c-.25.324.1.767.433,1a12.646,12.646,0,0,0,8.3,2.334" transform="translate(-708.378 -285.73)" fill="#66c192"/>
      <path id="Trazado_1253" data-name="Trazado 1253" d="M846.115,755.174c.107-.075.211.093.109.168a48.227,48.227,0,0,0-7.486,6.964,57.8,57.8,0,0,0-5.8,8.409.1.1,0,0,1-.17-.091,42.188,42.188,0,0,1,13.345-15.45Zm-12.333,2.212a32.708,32.708,0,0,0-2.191,13.383.084.084,0,0,0,.168,0,41.121,41.121,0,0,1,2.25-13.295c.048-.127-.177-.213-.227-.084Zm-5.417-8.86a62.2,62.2,0,0,0,1.815,22.362c.034.118.2.059.179-.057a98.488,98.488,0,0,1-1.738-11.3,94.08,94.08,0,0,1-.141-10.995.066.066,0,0,0-.132,0ZM821.7,759.531c2.212,3.144,4.664,8.958,7.57,11.492a.12.12,0,0,0,.163-.177c-2.627-2.888-5.2-8.3-7.556-11.43C821.793,759.309,821.616,759.416,821.7,759.531Zm23.843,4.87a55.308,55.308,0,0,0-12.63,7.4c-.116.1,0,.293.129.2a87.851,87.851,0,0,1,12.56-7.427C845.706,764.531,845.65,764.354,845.539,764.4Zm-27.286-.542c3.194,1.908,6.612,5.984,10.094,7.313.111.043.2-.111.089-.166-3.375-1.651-6.825-5.444-10.092-7.32C818.234,763.624,818.144,763.794,818.252,763.859Z" transform="translate(-735.612 -310.445)" fill="#32ac73" opacity="0.45" style="mix-blend-mode: multiply;isolation: isolate"/>
      <path id="Trazado_1254" data-name="Trazado 1254" d="M851.616,866.725H839.485L836.2,846.31h18.7Z" transform="translate(-749.527 -386.086)" fill="#eb8882"/>
      <path id="Trazado_1255" data-name="Trazado 1255" d="M891.585,866.725H887.91l3.3-20.415h3.675Z" transform="translate(-789.507 -386.086)" fill="#dc7f7c"/>
    </g>
  </g>
</svg>
