<svg xmlns="http://www.w3.org/2000/svg" width="82.826" height="204.5" viewBox="0 0 82.826 204.5"><defs><style>.a{fill:#b898c7;}.b{fill:#ffdd63;}</style></defs><g transform="translate(-293 -21)"><path class="a" d="M1112.845,74.667a13.819,13.819,0,0,1,12.536,13.759v69.8A13.819,13.819,0,0,1,1098,160.877v16.9a25.563,25.563,0,0,0,25.562,25.563h1.819V183.319a13.817,13.817,0,0,1,27.628-.421,25.666,25.666,0,0,0,.513-5.123V97.881a25.562,25.562,0,0,0-25.562-25.562h-4.4A25.467,25.467,0,0,0,1112.845,74.667Z" transform="translate(-805 -51.319)"/><path class="a" d="M1246.869,368.27v13.85a13.963,13.963,0,0,1-27.67,2.664v39.467a13.835,13.835,0,0,0,27.67,0Z" transform="translate(-871.043 -212.586)"/><path class="b" d="M1232.723,262.013h0a13.927,13.927,0,0,0,13.927-13.927V178.453a13.927,13.927,0,0,0-27.853,0v69.633A13.927,13.927,0,0,0,1232.723,262.013Z" transform="translate(-870.823 -101.564)"/><path class="b" d="M1186.065,411.325q0-.155,0-.31v-22.87a13.835,13.835,0,0,0-27.67,0v20.828a13.964,13.964,0,0,1,27.667,2.352Z" transform="translate(-837.911 -215.877)"/></g></svg>