<svg xmlns="http://www.w3.org/2000/svg" width="16.178" height="16.178" viewBox="0 0 16.178 16.178"><defs><style>.a{fill:#fff;}.b{fill:none;}</style></defs><path class="a" d="M11.347,7.223A1.835,1.835,0,0,1,9.515,6.008,3.449,3.449,0,0,0,8.928,4.93,2.815,2.815,0,0,0,6.664,3.852,2.814,2.814,0,0,0,4.4,4.93a3.452,3.452,0,0,0-.587,1.078A1.835,1.835,0,0,1,1.982,7.223,1.886,1.886,0,0,1,.347,6.394,1.788,1.788,0,0,1,.11,4.72L.117,4.7A8.015,8.015,0,0,1,1.542,2.349,6.917,6.917,0,0,1,3.561.734,6.64,6.64,0,0,1,6.664,0a6.642,6.642,0,0,1,3.1.734,6.917,6.917,0,0,1,2.02,1.615A8.009,8.009,0,0,1,13.213,4.7c.007.029.016.061.025.094a1.764,1.764,0,0,1-.256,1.6A1.887,1.887,0,0,1,11.347,7.223Z" transform="translate(1.27 0.711)"/><rect class="b" width="16.178" height="16.178" transform="translate(0 0)"/></svg>