<svg xmlns="http://www.w3.org/2000/svg" width="173.727" height="47.079" viewBox="0 0 173.727 47.079"><defs><style>.a{fill:#302512;}.b{fill:#fab221;}.c{fill:#fff;}.d{fill:none;}</style></defs><g transform="translate(-23.826 -9.618)"><g transform="translate(24.086 49.253)"><path class="a" d="M4.4-1.454A3.677,3.677,0,0,0,7.01-2.421a.608.608,0,0,0,.206-.452.6.6,0,0,0-.6-.586.575.575,0,0,0-.38.144,2.579,2.579,0,0,1-1.8.689,2.425,2.425,0,0,1-2.375-2.55V-5.2a2.422,2.422,0,0,1,2.375-2.54,2.61,2.61,0,0,1,1.717.648.618.618,0,0,0,.38.123.615.615,0,0,0,.627-.617.632.632,0,0,0-.247-.5A3.775,3.775,0,0,0,4.449-8.9,3.642,3.642,0,0,0,.737-5.176v.021A3.62,3.62,0,0,0,4.4-1.454Zm3.753-.658a.579.579,0,0,0,.586.586.608.608,0,0,0,.586-.4L9.93-3.315h3.5l.586,1.347a.652.652,0,0,0,.617.442.593.593,0,0,0,.6-.607.551.551,0,0,0-.072-.267L12.48-8.364a.789.789,0,0,0-.751-.514h-.062a.8.8,0,0,0-.761.514L8.233-2.4A.648.648,0,0,0,8.151-2.112Zm2.262-2.324,1.265-2.91,1.265,2.91Zm6.18,2.221a.628.628,0,0,0,.638.638h3.887a.575.575,0,0,0,.576-.576.575.575,0,0,0-.576-.576H17.857V-8.2a.623.623,0,0,0-.627-.627.626.626,0,0,0-.638.627Zm7,.638h4.236a.564.564,0,0,0,.566-.566.571.571,0,0,0-.566-.566H24.222V-4.642h3.095a.562.562,0,0,0,.566-.555.573.573,0,0,0-.566-.576H24.222V-7.644H27.78a.564.564,0,0,0,.566-.566.571.571,0,0,0-.566-.566H23.595a.628.628,0,0,0-.638.638v5.923A.628.628,0,0,0,23.595-1.577Zm6.252-.566a.621.621,0,0,0,.627.617.619.619,0,0,0,.617-.617V-6.708l3.7,4.792a.8.8,0,0,0,.658.38H35.5a.615.615,0,0,0,.617-.627V-8.21a.621.621,0,0,0-.627-.617.619.619,0,0,0-.617.617v4.421l-3.6-4.658a.8.8,0,0,0-.658-.37h-.134a.634.634,0,0,0-.638.638Zm8.123-.072a.628.628,0,0,0,.638.638h2.046a3.6,3.6,0,0,0,3.825-3.6V-5.2a3.588,3.588,0,0,0-3.825-3.578H38.607a.628.628,0,0,0-.638.638Zm1.265-.514V-7.623h1.419a2.362,2.362,0,0,1,2.5,2.447v.021a2.346,2.346,0,0,1-2.5,2.427Zm5.923.617a.579.579,0,0,0,.586.586.608.608,0,0,0,.586-.4l.607-1.388h3.5l.586,1.347a.652.652,0,0,0,.617.442.593.593,0,0,0,.6-.607.551.551,0,0,0-.072-.267L49.486-8.364a.789.789,0,0,0-.751-.514h-.062a.8.8,0,0,0-.761.514L45.239-2.4A.648.648,0,0,0,45.157-2.112Zm2.262-2.324,1.265-2.91,1.265,2.91ZM53.6-2.153a.626.626,0,0,0,.638.627.623.623,0,0,0,.627-.627V-4.086h1.594l1.748,2.231a.723.723,0,0,0,.617.329.6.6,0,0,0,.607-.586.733.733,0,0,0-.206-.483L57.845-4.333A2.13,2.13,0,0,0,59.48-6.482V-6.5a2.176,2.176,0,0,0-.6-1.553,2.9,2.9,0,0,0-2.077-.72H54.236a.628.628,0,0,0-.638.638Zm1.265-3.054V-7.623H56.7c.936,0,1.491.422,1.491,1.193v.021c0,.73-.576,1.2-1.481,1.2ZM61.1-2.153a.626.626,0,0,0,.638.627.623.623,0,0,0,.627-.627V-8.2a.623.623,0,0,0-.627-.627A.626.626,0,0,0,61.1-8.2Zm6.622.7A3.688,3.688,0,0,0,71.5-5.176V-5.2a3.654,3.654,0,0,0-3.753-3.7,3.688,3.688,0,0,0-3.774,3.722v.021A3.654,3.654,0,0,0,67.727-1.454Zm.021-1.172A2.457,2.457,0,0,1,65.3-5.176V-5.2a2.432,2.432,0,0,1,2.427-2.54,2.466,2.466,0,0,1,2.447,2.56v.021A2.423,2.423,0,0,1,67.747-2.626Zm9.007,1.049h4.236a.564.564,0,0,0,.566-.566.571.571,0,0,0-.566-.566H77.382V-4.642h3.095a.562.562,0,0,0,.566-.555.573.573,0,0,0-.566-.576H77.382V-7.644h3.558a.564.564,0,0,0,.566-.566.571.571,0,0,0-.566-.566H76.755a.628.628,0,0,0-.638.638v5.923A.628.628,0,0,0,76.755-1.577Zm8.771.1c1.511,0,2.571-.8,2.571-2.149v-.021c0-1.193-.781-1.738-2.3-2.108-1.388-.329-1.717-.576-1.717-1.131V-6.9c0-.473.432-.853,1.172-.853a2.994,2.994,0,0,1,1.655.545.612.612,0,0,0,.329.093.588.588,0,0,0,.6-.586.571.571,0,0,0-.278-.5,3.96,3.96,0,0,0-2.283-.668,2.2,2.2,0,0,0-2.457,2.087v.021c0,1.326.864,1.779,2.4,2.149,1.337.308,1.625.586,1.625,1.1V-3.5c0,.535-.494.9-1.275.9a3.121,3.121,0,0,1-2.015-.74.586.586,0,0,0-.37-.113.588.588,0,0,0-.6.586.593.593,0,0,0,.247.483A4.481,4.481,0,0,0,85.525-1.475ZM91.2-2.153a.632.632,0,0,0,.637.627.632.632,0,0,0,.638-.627V-7.6h1.758a.584.584,0,0,0,.576-.586.584.584,0,0,0-.576-.586H89.453a.586.586,0,0,0-.586.586.586.586,0,0,0,.586.586H91.2Zm3.578.041a.579.579,0,0,0,.586.586.608.608,0,0,0,.586-.4l.607-1.388h3.5l.586,1.347a.652.652,0,0,0,.617.442.593.593,0,0,0,.6-.607.551.551,0,0,0-.072-.267L99.108-8.364a.789.789,0,0,0-.751-.514H98.3a.8.8,0,0,0-.761.514L94.862-2.4A.648.648,0,0,0,94.779-2.112Zm2.262-2.324,1.265-2.91,1.265,2.91Zm9.213,2.982a3.678,3.678,0,0,0,2.612-.967.608.608,0,0,0,.206-.452.6.6,0,0,0-.6-.586.575.575,0,0,0-.38.144,2.579,2.579,0,0,1-1.8.689,2.425,2.425,0,0,1-2.375-2.55V-5.2a2.422,2.422,0,0,1,2.375-2.54,2.61,2.61,0,0,1,1.717.648.618.618,0,0,0,.38.123.615.615,0,0,0,.627-.617.632.632,0,0,0-.247-.5,3.775,3.775,0,0,0-2.468-.812,3.642,3.642,0,0,0-3.712,3.722v.021A3.62,3.62,0,0,0,106.255-1.454Zm4.319-.7a.626.626,0,0,0,.638.627.623.623,0,0,0,.627-.627V-8.2a.623.623,0,0,0-.627-.627.626.626,0,0,0-.638.627Zm6.622.7a3.688,3.688,0,0,0,3.774-3.722V-5.2a3.654,3.654,0,0,0-3.753-3.7,3.688,3.688,0,0,0-3.774,3.722v.021A3.654,3.654,0,0,0,117.195-1.454Zm.021-1.172a2.457,2.457,0,0,1-2.447-2.55V-5.2a2.432,2.432,0,0,1,2.427-2.54,2.466,2.466,0,0,1,2.447,2.56v.021A2.423,2.423,0,0,1,117.216-2.626Zm5.285.483a.621.621,0,0,0,.627.617.619.619,0,0,0,.617-.617V-6.708l3.7,4.792a.8.8,0,0,0,.658.38h.051a.615.615,0,0,0,.617-.627V-8.21a.621.621,0,0,0-.627-.617.619.619,0,0,0-.617.617v4.421l-3.6-4.658a.8.8,0,0,0-.658-.37h-.134a.634.634,0,0,0-.638.638Zm7.629.031a.579.579,0,0,0,.586.586.608.608,0,0,0,.586-.4l.607-1.388h3.5l.586,1.347a.652.652,0,0,0,.617.442.593.593,0,0,0,.6-.607.551.551,0,0,0-.072-.267l-2.673-5.964a.789.789,0,0,0-.751-.514h-.062a.8.8,0,0,0-.761.514L130.212-2.4A.648.648,0,0,0,130.13-2.112Zm2.262-2.324,1.265-2.91,1.265,2.91Zm6.18,2.221a.628.628,0,0,0,.637.638H143.1a.575.575,0,0,0,.576-.576.575.575,0,0,0-.576-.576h-3.259V-8.2a.623.623,0,0,0-.627-.627.626.626,0,0,0-.637.627Z" transform="translate(-0.737 8.899)"/><path class="b" d="M.537-2.174a.608.608,0,0,0,.679.6H5.3a.553.553,0,0,0,.555-.555A.553.553,0,0,0,5.3-2.688H2.378L3.859-3.922C5.134-4.96,5.73-5.577,5.73-6.708v-.021A2.155,2.155,0,0,0,3.355-8.878,2.785,2.785,0,0,0,.969-7.716a.633.633,0,0,0-.144.391.575.575,0,0,0,.576.576.579.579,0,0,0,.442-.2,1.76,1.76,0,0,1,1.419-.8A1.079,1.079,0,0,1,4.424-6.626c0,.648-.36,1.11-1.347,1.943L.866-2.8A.785.785,0,0,0,.537-2.174Zm9.573.72c1.892,0,3.146-1.666,3.146-3.722V-5.2c0-2.056-1.244-3.7-3.126-3.7S6.984-7.233,6.984-5.176v.021C6.984-3.1,8.218-1.454,10.11-1.454ZM10.131-2.6C9.01-2.6,8.29-3.757,8.29-5.176V-5.2c0-1.429.709-2.56,1.82-2.56S11.951-6.6,11.951-5.176v.021C11.951-3.747,11.252-2.6,10.131-2.6Zm4.051.422a.608.608,0,0,0,.679.6h4.082a.553.553,0,0,0,.555-.555.553.553,0,0,0-.555-.555h-2.92L17.5-3.922c1.275-1.039,1.871-1.655,1.871-2.787v-.021A2.155,2.155,0,0,0,17-8.878a2.785,2.785,0,0,0-2.385,1.162.633.633,0,0,0-.144.391.575.575,0,0,0,.576.576.579.579,0,0,0,.442-.2,1.76,1.76,0,0,1,1.419-.8,1.079,1.079,0,0,1,1.162,1.121c0,.648-.36,1.11-1.347,1.943L14.511-2.8A.785.785,0,0,0,14.182-2.174Zm9.573.72c1.892,0,3.146-1.666,3.146-3.722V-5.2c0-2.056-1.244-3.7-3.126-3.7s-3.146,1.666-3.146,3.722v.021C20.629-3.1,21.863-1.454,23.755-1.454ZM23.775-2.6c-1.121,0-1.841-1.162-1.841-2.581V-5.2c0-1.429.709-2.56,1.82-2.56S25.6-6.6,25.6-5.176v.021C25.6-3.747,24.9-2.6,23.775-2.6Z" transform="translate(146.566 8.899)"/></g><g transform="translate(23.826 9.618)"><path class="a" d="M2.326,33.753A1.907,1.907,0,0,1,.4,31.828v-11.4A1.907,1.907,0,0,1,2.326,18.5H6.409c4.7,0,8.089,3.236,8.089,7.627V26.2c0,4.468-3.39,7.627-8.089,7.627H2.326ZM6.409,30.21A3.822,3.822,0,0,0,10.492,26.2v-.077a3.842,3.842,0,0,0-4.083-4.083H4.252V30.21Z" transform="translate(-0.4 -4.23)"/><path class="a" d="M28.189,33.97A7.8,7.8,0,0,1,20.1,26.112v-.077A7.929,7.929,0,0,1,28.266,18.1a7.8,7.8,0,0,1,8.089,7.858v.077A8.024,8.024,0,0,1,28.189,33.97Zm0-12.172a3.991,3.991,0,0,0-4.006,4.237v.077a4.1,4.1,0,0,0,4.083,4.237,3.991,3.991,0,0,0,4.006-4.237v-.077A4.1,4.1,0,0,0,28.189,21.8Z" transform="translate(-4.924 -4.139)"/><path class="a" d="M45.226,33.908A1.907,1.907,0,0,1,43.3,31.982V20.426A1.907,1.907,0,0,1,45.226,18.5h4.391c3.621,0,5.932,2.08,5.932,5.393v.077c0,3.313-2.465,5.47-6.24,5.47h-2.08v2.542A2.025,2.025,0,0,1,45.226,33.908Zm4.16-8.012a1.987,1.987,0,0,0,2.234-1.849V23.97c0-1.618-1.387-1.849-2.234-1.849H47.229V25.9Z" transform="translate(-10.251 -4.23)"/><path class="a" d="M62.626,33.908A1.907,1.907,0,0,1,60.7,31.982V20.426A1.907,1.907,0,0,1,62.626,18.5h4.391c3.621,0,5.932,2.08,5.932,5.393v.077c0,3.313-2.465,5.47-6.24,5.47h-2.08v2.542A2.025,2.025,0,0,1,62.626,33.908Zm4.16-8.012a1.987,1.987,0,0,0,2.234-1.849V23.97c0-1.618-1.387-1.849-2.234-1.849H64.629V25.9Z" transform="translate(-14.246 -4.23)"/><path class="a" d="M80.026,33.708A1.907,1.907,0,0,1,78.1,31.782V20.226a1.926,1.926,0,1,1,3.852,0v9.861h5.624a1.772,1.772,0,1,1,0,3.544h-7.55Z" transform="translate(-18.242 -4.185)"/><path class="a" d="M96.126,33.753A1.907,1.907,0,0,1,94.2,31.828v-11.4A1.907,1.907,0,0,1,96.126,18.5h8.089a1.772,1.772,0,1,1,0,3.544H98.052v2.311h5.239a1.772,1.772,0,1,1,0,3.544H98.052v2.388h6.24a1.772,1.772,0,1,1,0,3.544H96.126Z" transform="translate(-21.939 -4.23)"/><path class="a" d="M122.585,33.908a2.179,2.179,0,0,1-1.849-1l-3-3.852h-2.08v2.927a1.926,1.926,0,1,1-3.852,0V20.426a1.907,1.907,0,0,1,1.926-1.926h5.084a5.881,5.881,0,0,1,4.468,1.618,5.13,5.13,0,0,1,1.387,3.621v.077a4.726,4.726,0,0,1-2.7,4.545l1.926,2.388a2.316,2.316,0,0,1,.616,1.464A1.919,1.919,0,0,1,122.585,33.908Zm-4.083-8.32c1.31,0,2.157-.616,2.157-1.695v-.077c0-1.464-1.156-1.772-2.157-1.772h-2.85v3.544Z" transform="translate(-25.98 -4.23)"/><path class="b" d="M147.808-.005a14.053,14.053,0,0,0-14.714,13.4,14.285,14.285,0,0,0,4.314,10.862l-1.926,5.47,5.547-2.927a15.462,15.462,0,0,0,5.393,1.387,14.053,14.053,0,0,0,14.714-13.4A13.962,13.962,0,0,0,147.808-.005Z" transform="translate(-30.865 0.023)"/></g><path class="c" d="M11.347,7.223A1.835,1.835,0,0,1,9.515,6.008,3.449,3.449,0,0,0,8.928,4.93,2.815,2.815,0,0,0,6.664,3.852,2.814,2.814,0,0,0,4.4,4.93a3.452,3.452,0,0,0-.587,1.078A1.835,1.835,0,0,1,1.982,7.223,1.886,1.886,0,0,1,.347,6.394,1.788,1.788,0,0,1,.11,4.72L.117,4.7A8.015,8.015,0,0,1,1.542,2.349,6.917,6.917,0,0,1,3.561.734,6.64,6.64,0,0,1,6.664,0a6.642,6.642,0,0,1,3.1.734,6.917,6.917,0,0,1,2.02,1.615A8.009,8.009,0,0,1,13.213,4.7c.007.029.016.061.025.094a1.764,1.764,0,0,1-.256,1.6A1.887,1.887,0,0,1,11.347,7.223Z" transform="translate(133.412 16.107)"/><rect class="d" width="16.178" height="16.178" transform="translate(132.142 15.396)"/></g></svg>