<svg id="Layer_1" data-name="Layer 1" xmlns="http://www.w3.org/2000/svg" viewBox="0 0 960 380"><defs><style>.cls-1{opacity:0.2;}.cls-2{fill:#abd7e5;fill-rule:evenodd;}.cls-15,.cls-3,.cls-4{fill:#abd7e6;}.cls-3{opacity:0.4;}.cls-4{opacity:0.7;}.cls-5{fill:none;stroke:#abd7e6;stroke-miterlimit:10;stroke-width:6px;opacity:0.22;}.cls-6{fill:#32ac73;}.cls-7{fill:#66c192;}.cls-8{fill:#fdd34f;}.cls-9{fill:#f1f1e9;}.cls-10{fill:#302411;}.cls-11{fill:#fae37a;}.cls-12{fill:#8b6697;}.cls-13{fill:#555945;}.cls-14{fill:#828270;}.cls-16{fill:#f7b2b1;}.cls-17{fill:#e8a8a8;}.cls-18{fill:#e79432;}.cls-19{fill:#385a65;}.cls-20{fill:#e24f45;}.cls-21{fill:#ca473d;}.cls-22{fill:#d1afcf;}.cls-23{fill:#fafbfb;}.cls-24{fill:#d6793b;}.cls-25{fill:#028045;}.cls-26{fill:#e5cfe3;}</style></defs><title>app-ilustraciones</title><g class="cls-1"><path class="cls-2" d="M448.24,185.42s43.11,42.76,84.59,21.21,26.89-77,21-88.26-25.16-31.72-77.72-12S428.67,167.12,448.24,185.42Z"/></g><path class="cls-3" d="M320.69,133.55a10.38,10.38,0,0,0-5.27,1.47,17.3,17.3,0,0,0-33-4.88,12.35,12.35,0,1,0-3.26,24.26h41.56a10.43,10.43,0,0,0,0-20.85Z"/><path class="cls-3" d="M647.87,183.52A9.6,9.6,0,0,0,643,184.9a16.16,16.16,0,0,0-30.84-4.56,11.69,11.69,0,0,0-3-.45,11.55,11.55,0,0,0,0,23.1h38.8a9.74,9.74,0,0,0,0-19.47Z"/><path class="cls-4" d="M275.39,198.09,270,192.27l5.83-5.36a2.31,2.31,0,0,0-3.13-3.41l-5.83,5.36L261.54,183a2.31,2.31,0,0,0-3.41,3.13l5.36,5.83-5.83,5.36a2.32,2.32,0,0,0,3.14,3.41l5.82-5.36,5.36,5.83a2.32,2.32,0,1,0,3.41-3.14Z"/><circle class="cls-5" cx="364.94" cy="98.13" r="15.78"/><path class="cls-4" d="M607.22,89.62l-5.36-5.83,5.83-5.36a2.31,2.31,0,1,0-3.14-3.4l-5.83,5.36-5.36-5.83a2.31,2.31,0,1,0-3.4,3.13l5.36,5.83-5.83,5.36a2.31,2.31,0,1,0,3.13,3.41l5.83-5.36,5.36,5.83a2.32,2.32,0,0,0,3.41-3.14Z"/><circle class="cls-5" cx="588.74" cy="135.44" r="15.78"/><g class="cls-1"><path class="cls-2" d="M666.69,374.72s29.77-27.81,29.77-75.34-54.52-98.92-119.09-75.29c-46.79,17.12-57.3,52.73-124.6-6-163.86-142.92-203,74-147.74,156.6l2.62,4.57,349,.39Z"/></g><path class="cls-6" d="M584.72,350.87c-3.68,0-7.35-.11-11-.46-7.35-.7-20.38-3.59-12.19-19.05,5.1-9.64,11.58-5.79,13.74,3.17-9.31-6.37-6.58-42.62,3.71-47,12-5.18,15.3,13.37,14.39,23.35-2-9.55,11.66-23.07,17.56-17.64,4,3.71,3.27,17.76-1,21,8.29-25.34,39.32-3.39,18.18,11.89,10.6-12.63,19.58,1,9.67,16.07-6.19,9.42-13.22,10.41-21,9.33C606.13,350,595.39,350.87,584.72,350.87Z"/><path class="cls-7" d="M595.72,371.3c-3.66-.16-7.31-.39-11-.79-7.33-.79-20.41-3.29-13-13.31,4.65-6.24,11.27-3.37,13.81,2.73-9.54-4.68-8.4-28.87,1.64-31.39,11.73-3,15.79,9.64,15.32,16.29-2.45-6.5,10.59-15,16.69-11.07,4.18,2.67,4,12.05-.14,14,7.14-16.63,39-.56,18.6,8.77,10-8,19.51,1.52,10.31,11.2-5.74,6-12.69,6.4-20.44,5.34C617,371.63,606.33,371.77,595.72,371.3Z"/><path class="cls-8" d="M607.34,346.69C611.06,362.2,596.7,378,583.6,378s-27.51-15.8-23.72-31.3c5.12-20.93,16.15-28.91,23.73-28.91C593.35,317.78,603.61,331.14,607.34,346.69Z"/><path class="cls-9" d="M607.67,347.86a8.48,8.48,0,0,1-1.74.9,43,43,0,0,1-5,2,58.94,58.94,0,0,1-7.7,2,65.93,65.93,0,0,1-9.71,1,66.88,66.88,0,0,1-9.74-.49,61.27,61.27,0,0,1-7.81-1.57,46.31,46.31,0,0,1-5.1-1.67,9.59,9.59,0,0,1-1.79-.81c0-.14,2.66.87,7,1.93a66.1,66.1,0,0,0,7.76,1.38,66.34,66.34,0,0,0,19.22-.54,67.14,67.14,0,0,0,7.67-1.83C605.07,348.88,607.61,347.72,607.67,347.86Z"/><path class="cls-10" d="M603.8,337.85a6.28,6.28,0,0,1-1.21,1.29,20.33,20.33,0,0,1-3.94,2.8,30.85,30.85,0,0,1-15.42,3.56,57.24,57.24,0,0,1-15.62-2.81c-1.94-.6-3.49-1.14-4.55-1.54a6.65,6.65,0,0,1-1.63-.7,8.19,8.19,0,0,1,1.72.4l4.61,1.3a65.22,65.22,0,0,0,15.48,2.55,32.21,32.21,0,0,0,15.14-3.26A40.68,40.68,0,0,0,603.8,337.85Z"/><path class="cls-9" d="M600.46,330s-.38.31-1.16.76a26.65,26.65,0,0,1-3.44,1.6,36.92,36.92,0,0,1-24.6.76,25.94,25.94,0,0,1-3.52-1.39,4.51,4.51,0,0,1-1.21-.68c.06-.13,1.85.68,4.9,1.53a41,41,0,0,0,24.24-.75C598.65,330.77,600.4,329.85,600.46,330Z"/><path class="cls-10" d="M594.12,323.66a10.74,10.74,0,0,1-3.19,1,34.74,34.74,0,0,1-8,.82,35.29,35.29,0,0,1-8-1,10.41,10.41,0,0,1-3.16-1.12c.07-.25,5,1.3,11.2,1.36S594.07,323.41,594.12,323.66Z"/><path class="cls-10" d="M604.8,360.57a6.57,6.57,0,0,1-1.58.68,46.1,46.1,0,0,1-4.49,1.4,64.74,64.74,0,0,1-30.77.45c-1.94-.46-3.48-.9-4.53-1.27a6.74,6.74,0,0,1-1.6-.63c0-.13,2.38.58,6.25,1.34a73.08,73.08,0,0,0,30.51-.44C602.43,361.22,604.76,360.44,604.8,360.57Z"/><path class="cls-9" d="M597.94,371.53a3.56,3.56,0,0,1-1.1.51,25.57,25.57,0,0,1-3.14,1,40.26,40.26,0,0,1-21.52-.51,27.15,27.15,0,0,1-3.09-1.12,3.81,3.81,0,0,1-1.08-.57c0-.12,1.66.47,4.32,1.15a49.62,49.62,0,0,0,10.6,1.46,49,49,0,0,0,10.64-1C596.27,371.91,597.9,371.4,597.94,371.53Z"/><path class="cls-11" d="M643.84,366.8c.35,11.39-12,20.34-21.14,18.43s-16.93-15-12-25.31c6.61-13.89,15.48-17.86,20.78-16.76C638.26,344.57,643.49,355.4,643.84,366.8Z"/><path class="cls-12" d="M641,376.87a2.76,2.76,0,0,1-.83.24,9.92,9.92,0,0,1-2.49.12,10.44,10.44,0,0,1-9.76-10.47,10.51,10.51,0,0,1,2.38-6.92,4,4,0,0,1,3.84-1.47,2.68,2.68,0,0,1,1.82,1.4,3.47,3.47,0,0,1,.28,2.28,5.54,5.54,0,0,1-2.85,3.39,9.26,9.26,0,0,1-4.32,1.22,9,9,0,0,1-7.75-3.7,9.33,9.33,0,0,1-1.52-7.9,5.33,5.33,0,0,1,2.27-3.17,3.65,3.65,0,0,1,3.72,0,3,3,0,0,1,1.17,3.25,4,4,0,0,1-1.92,2.52,7.4,7.4,0,0,1-5.19.78,8.47,8.47,0,0,1-3.61-1.64,7,7,0,0,1-1.7-1.83,2.6,2.6,0,0,1-.39-.77,11,11,0,0,0,2.29,2.33,8.51,8.51,0,0,0,3.49,1.43,7,7,0,0,0,4.78-.83,3.37,3.37,0,0,0,1.59-2.14,2.28,2.28,0,0,0-.91-2.49,2.93,2.93,0,0,0-2.93.05,4.53,4.53,0,0,0-1.88,2.73,8.56,8.56,0,0,0,1.43,7.17,8.22,8.22,0,0,0,7,3.33,8.46,8.46,0,0,0,3.91-1.09,4.77,4.77,0,0,0,2.45-2.82,2.15,2.15,0,0,0-1.45-2.69,3.2,3.2,0,0,0-3.05,1.21,9.81,9.81,0,0,0-2.25,6.36,10.14,10.14,0,0,0,1.69,5.72,10.68,10.68,0,0,0,7.37,4.42A16.16,16.16,0,0,0,641,376.87Z"/><path class="cls-12" d="M625.9,385.8a15.7,15.7,0,0,0-1.27-6.29,11.87,11.87,0,0,0-4.52-5.09,4.34,4.34,0,0,0-3.65-.61c-1.19.43-2.06,1.93-1.23,3a2.28,2.28,0,0,0,1.62.91,2.5,2.5,0,0,0,1.74-.62,3.63,3.63,0,0,0,1.15-3.42,7,7,0,0,0-4-5.12,7.46,7.46,0,0,0-4.54-.49c-1.09.22-1.65.52-1.69.45a3.8,3.8,0,0,1,1.61-.78A7.31,7.31,0,0,1,616,368a7.55,7.55,0,0,1,4.56,5.56,4.46,4.46,0,0,1-1.39,4.21,3.33,3.33,0,0,1-2.36.83,3.13,3.13,0,0,1-2.27-1.26,2.51,2.51,0,0,1-.22-2.62,3.46,3.46,0,0,1,1.85-1.67,5,5,0,0,1,4.37.72,12,12,0,0,1,4.67,5.53,11.86,11.86,0,0,1,1,4.78A4.71,4.71,0,0,1,625.9,385.8Z"/><path class="cls-12" d="M638.65,349c0,.09-.72.5-2.08.68a9.36,9.36,0,0,1-9.13-4.47c-.69-1.19-.84-2-.74-2.07s.48.7,1.25,1.72a10.43,10.43,0,0,0,8.58,4.2C637.81,349.05,638.61,348.86,638.65,349Z"/><path class="cls-10" d="M341.16,330.72s-5.6,4.33-10.41,4.16-14.92,2.57-14.74,3.83,1,7.31,1,7.31.06,15.27,4,20.48,6.42,3.3,6.42,3.3a7.12,7.12,0,0,0,2.18-7.35c-1.32-4.55,12-20.8,15.66-22.35S341.16,330.72,341.16,330.72Z"/><path class="cls-10" d="M438.87,340.81s-.33,7.08-3.57,10.63-7.69,13-6.62,13.72l6.2,4s11.68,9.84,18.2,10.22,6.67-2.77,6.67-2.77a7.13,7.13,0,0,0-4.2-6.42c-4.32-1.93-8.09-22.59-6.89-26.4S438.87,340.81,438.87,340.81Z"/><rect class="cls-12" x="486.85" y="147.6" width="4.27" height="20.74" transform="translate(215.1 -276.82) rotate(39.89)"/><ellipse class="cls-13" cx="500.81" cy="143.29" rx="12.33" ry="9.74" transform="translate(83.76 455.4) rotate(-52.78)"/><ellipse class="cls-14" cx="502.25" cy="144.57" rx="12.33" ry="9.54" transform="translate(83.31 457.06) rotate(-52.78)"/><ellipse class="cls-15" cx="501.64" cy="144.12" rx="11.25" ry="8.71" transform="translate(83.44 456.39) rotate(-52.78)"/><path class="cls-16" d="M474.77,170.43s18.31,5.87,17-9-19.13-1.64-19.13-1.64Z"/><path class="cls-16" d="M499.87,213.36s18,9.54,19.77-3.87-19.77-6-19.77-6Z"/><path class="cls-10" d="M465.89,127.64c-.16.85-2.43,5.31-3.54,8.33s-.44,5.26-3.22,4.44-8.41-2-9.1-6.54S465.89,127.64,465.89,127.64Z"/><path class="cls-16" d="M449,101s7.42-8.94,17.44-4.83,15.78,11.32,9.25,20.15-14.17,18.22-21.3,19.91a9.2,9.2,0,0,1-4.82-1.27l-6.79,12.8s-14.4.31-15.14-12.1l14-22.54s-4.82-6.32-1.46-12.61S449,101,449,101Z"/><path class="cls-17" d="M448.24,137l.2.08,1.11-2.09s-6.41-3.39-9.32-8.88S439.34,133.28,448.24,137Z"/><path class="cls-10" d="M422.65,96c9.62-6.44,20.88-18.22,31.94-15a13.43,13.43,0,0,1,5.72,1.67s12.84,2.4,15.28,9.17c2.05,5.69,7.81,5.16,6.83,13.77a15.86,15.86,0,0,1-3.09,9.34h0c-2.17,3.56-6,8.68-9.72,9.24,0,0,2.21-3.81,3.82-7.3-2-1.23-3.92-3.87-6.44-5.13-4-2-6.81-.54-10.17-4.56-4.51-2-8,2.62-9,.46-1.09-2.39,1.88-6-1.91-9.14,0,0-3.18-2.32-5.67,2.77a9.88,9.88,0,0,0-.63,6.81,21.08,21.08,0,0,0,2,5.11,19.59,19.59,0,0,1,.15,7.66,8.8,8.8,0,0,1-1.22,3.13,18.73,18.73,0,0,1-.35,2.17c-1.29,5.92-5.05-.52-9.26-3.93a41.46,41.46,0,0,1-10-12.67C419.27,105.88,413,102.43,422.65,96Z"/><path class="cls-18" d="M432.35,80.34c2.95,2.35,10.42,1.11,15.19,2.3A9.93,9.93,0,0,1,454,87.31s-.51-2.51,1.36-7.3,7.67-5.43,13.73-12,0,9.15-3.52,14c-2,2.77-4.71,3.6-6.51,4.32,3.91-1,8.64-.66,14.31,2.22a8.66,8.66,0,0,1,2.22,3.26A9.41,9.41,0,0,0,477.52,95c-.27-.2-15.82-11.86-29.87,6h0a5.28,5.28,0,0,0-1.75-2.45,2.93,2.93,0,0,0-.43-.23,35.4,35.4,0,0,1,5-6.7l-.47-.07c-4.6-.69-9.78-3.36-15.34-5.23S429.41,78,432.35,80.34Z"/><path class="cls-13" d="M397.29,225.13a6.41,6.41,0,0,1,4.22,4.05c5.32,15.51,28.36,83.94,22.09,89.73-5.89,5.44-62.7,26.94-81.59,34a6.38,6.38,0,0,1-8.25-3.84l-4.52-12.59a6.4,6.4,0,0,1,3.62-8.09l51.51-20.87a6.39,6.39,0,0,0,3.44-8.54l-18.33-43.12c-13.44-30.77-3.22-33.52-.6-41.13,1.06-3.09,8.9.85,12.08,1.59l-8.81,1.33.38.1Z"/><path class="cls-13" d="M421.06,230.81a6.14,6.14,0,0,1,1.18.42c6,2.89,57.62,27.94,57,37-.53,8-17.86,65.33-23.51,83.84a6.39,6.39,0,0,1-7.61,4.35L436,353.52a6.4,6.4,0,0,1-4.76-7.61l13.36-60.28a6.41,6.41,0,0,0-3.23-7l-67-35.89a6.4,6.4,0,0,1-.5-11l11.83-7.78a6.37,6.37,0,0,1,5.1-.85Z"/><path class="cls-13" d="M396.6,308.79c.08-.16-1.15-.94-2.56-2s-2.5-2-2.64-1.9.79,1.31,2.26,2.41S396.52,308.94,396.6,308.79Z"/><path class="cls-13" d="M398.74,305.27c0-.18-1.55-.43-3.48-.57s-3.52-.11-3.53.07a10,10,0,0,0,3.48.56C397.15,305.47,398.73,305.44,398.74,305.27Z"/><path class="cls-19" d="M404.17,246.1a.7.7,0,0,1,.12.19l.32.56c.28.53.67,1.26,1.17,2.18,1,1.9,2.34,4.7,3.87,8.22s3.15,7.8,4.76,12.61S417.58,280,419,285.71s2.68,11.12,3.74,16.08c.52,2.48,1,4.84,1.47,7,.22,1.1.48,2.16.59,3.22a14.7,14.7,0,0,1,0,3,11.15,11.15,0,0,1-.64,2.69,4.37,4.37,0,0,1-1.54,1.94,19.8,19.8,0,0,1-3.35,2c-1,.49-1.73.82-2.25,1l-.6.24q-.19.07-.21.06a1,1,0,0,1,.2-.1l.58-.28c.51-.24,1.26-.6,2.2-1.1a20.82,20.82,0,0,0,3.27-2.08,4.09,4.09,0,0,0,1.43-1.85,10.68,10.68,0,0,0,.59-2.62,13.46,13.46,0,0,0,0-3c-.11-1-.38-2.08-.6-3.19l-1.51-7c-1.08-4.95-2.32-10.38-3.77-16.05s-3-11-4.59-15.83-3.21-9.07-4.66-12.62-2.79-6.34-3.74-8.27c-.46-.93-.83-1.67-1.09-2.21l-.28-.58A1,1,0,0,1,404.17,246.1Z"/><path class="cls-18" d="M424.67,134.33s4.22-7.35,5-6.19,20.65,14.05,19.31,16.39-5.25,4.74-5.25,4.74Z"/><path class="cls-20" d="M455.85,163.24l10,32.07a3.54,3.54,0,0,0,3,2.48l29.78,3a6.93,6.93,0,0,1,6.23,7.25l-.25,5a3.55,3.55,0,0,1-3.11,3.34c-10.21,1.23-43.66,4.76-49.39-1s-13.64-27.21-15.94-33.69a3.51,3.51,0,0,1,.58-3.39l12.95-16.21A3.55,3.55,0,0,1,455.85,163.24Z"/><path class="cls-21" d="M394.92,140.42l-30,75.55,57.34,16.22-.84-24.14,31.25-43.24a7.7,7.7,0,0,0-.17-9.25c-5.79-7.43-18.6-21.55-36.13-27.52C410.92,126.17,397.73,128.32,394.92,140.42Z"/><path class="cls-22" d="M422.67,210.28c3.54,6.68-1.18,15.61-7.2,17.15s-14.48-4-14.57-11.56c-.12-10.2,4-15.16,7.48-16.05C412.85,198.67,419.13,203.59,422.67,210.28Z"/><path class="cls-23" d="M423,210.77s-.22.25-.68.64a20.36,20.36,0,0,1-2.06,1.49,28.27,28.27,0,0,1-7.62,3.47,29,29,0,0,1-8.31,1.12,22.81,22.81,0,0,1-2.54-.18,3.6,3.6,0,0,1-.91-.17c0-.08,1.32.07,3.45,0a31.86,31.86,0,0,0,8.18-1.23,32.34,32.34,0,0,0,7.59-3.3C421.88,211.54,422.91,210.71,423,210.77Z"/><path class="cls-24" d="M420,206.64a2.62,2.62,0,0,1-.39.74,9.71,9.71,0,0,1-1.48,1.76,14.55,14.55,0,0,1-6.66,3.47,26.86,26.86,0,0,1-7.5.54c-1-.05-1.74-.12-2.27-.18a3,3,0,0,1-.83-.14,27.09,27.09,0,0,1,3.11,0,30.74,30.74,0,0,0,7.39-.67,15.32,15.32,0,0,0,6.55-3.26A24.34,24.34,0,0,0,420,206.64Z"/><path class="cls-23" d="M417.55,203.42s-.14.2-.44.5a12.69,12.69,0,0,1-1.38,1.15,17.43,17.43,0,0,1-11.21,3.25,11.49,11.49,0,0,1-1.78-.23,1.92,1.92,0,0,1-.63-.18c0-.08.93.07,2.43.1a19.48,19.48,0,0,0,11-3.2C416.8,204,417.5,203.37,417.55,203.42Z"/><path class="cls-24" d="M413.9,201.27a4.4,4.4,0,0,1-1.34.87,15.67,15.67,0,0,1-3.6,1.33,16.34,16.34,0,0,1-3.81.47,4.35,4.35,0,0,1-1.58-.17,26.67,26.67,0,0,0,10.33-2.5Z"/><path class="cls-24" d="M423.15,217a4.22,4.22,0,0,1-.64.51c-.43.3-1.08.71-1.89,1.17a30.56,30.56,0,0,1-6.8,2.78,30.23,30.23,0,0,1-7.27,1.06,19.94,19.94,0,0,1-2.23-.06,2.8,2.8,0,0,1-.81-.11c0-.07,1.16,0,3-.14a35.3,35.3,0,0,0,13.94-3.8C422.13,217.51,423.1,216.88,423.15,217Z"/><path class="cls-23" d="M421.29,222.78a7.09,7.09,0,0,1-1.76,1.2,18.69,18.69,0,0,1-4.81,1.84,19.18,19.18,0,0,1-5.13.47,7.31,7.31,0,0,1-2.11-.31,25,25,0,0,0,13.81-3.2Z"/><path class="cls-7" d="M431.79,209.44c1.36,5.65-3.87,11.4-8.64,11.4s-10-5.75-8.65-11.4c1.87-7.63,5.89-10.53,8.65-10.53C426.7,198.91,430.44,203.78,431.79,209.44Z"/><path class="cls-25" d="M428.78,217.8c1.48,5.2-3.15,10.75-7.59,10.94s-9.54-5-8.48-10.26c1.43-7.16,5.05-10,7.62-10.13C423.63,208.21,427.29,212.59,428.78,217.8Z"/><path class="cls-23" d="M428.64,222.76a1.33,1.33,0,0,1-.36.21,4.21,4.21,0,0,1-1.13.35,5.14,5.14,0,0,1-4.13-1.11,5.08,5.08,0,0,1-1.59-2.58,5,5,0,0,1,.29-3.47,1.92,1.92,0,0,1,1.61-1.13,1.28,1.28,0,0,1,1,.44,1.67,1.67,0,0,1,.4,1,2.69,2.69,0,0,1-.92,1.91,4.54,4.54,0,0,1-1.86,1.06,4.32,4.32,0,0,1-4-.8,4.46,4.46,0,0,1-1.62-3.47,2.52,2.52,0,0,1,.68-1.74,1.75,1.75,0,0,1,1.72-.43,1.42,1.42,0,0,1,.93,1.37,2,2,0,0,1-.59,1.39,3.58,3.58,0,0,1-2.31,1,4.13,4.13,0,0,1-1.85-.34,3.43,3.43,0,0,1-1-.65,1.63,1.63,0,0,1-.27-.31,6.33,6.33,0,0,0,1.33.8,4.1,4.1,0,0,0,1.77.25,3.32,3.32,0,0,0,2.1-.94,1.61,1.61,0,0,0,.48-1.16,1.07,1.07,0,0,0-.7-1,1.37,1.37,0,0,0-1.33.36,2.14,2.14,0,0,0-.55,1.47,4,4,0,0,0,1.49,3.12,3.87,3.87,0,0,0,3.61.71,4,4,0,0,0,1.67-.95,2.26,2.26,0,0,0,.79-1.57,1,1,0,0,0-1-1.06,1.51,1.51,0,0,0-1.25.9,4.62,4.62,0,0,0-.3,3.19,4.72,4.72,0,0,0,1.44,2.43,5.07,5.07,0,0,0,3.89,1.18A8.09,8.09,0,0,0,428.64,222.76Z"/><path class="cls-23" d="M422.73,228.63a7.54,7.54,0,0,0-1.33-2.74,5.57,5.57,0,0,0-2.66-1.82,2.07,2.07,0,0,0-1.74.15c-.5.33-.72,1.11-.22,1.48a1.06,1.06,0,0,0,.84.23,1.21,1.21,0,0,0,.72-.48,1.72,1.72,0,0,0,.13-1.7,3.32,3.32,0,0,0-2.43-1.88,3.5,3.5,0,0,0-2.14.29c-.48.23-.71.43-.73.41s.17-.27.64-.56a3.51,3.51,0,0,1,2.28-.45,3.61,3.61,0,0,1,2.76,2,2.12,2.12,0,0,1-.16,2.11,1.54,1.54,0,0,1-1,.66,1.47,1.47,0,0,1-1.2-.31,1.23,1.23,0,0,1-.41-1.2,1.65,1.65,0,0,1,.66-1,2.41,2.41,0,0,1,2.11-.18,5.67,5.67,0,0,1,2.8,2,5.55,5.55,0,0,1,1,2.09A2.28,2.28,0,0,1,422.73,228.63Z"/><path class="cls-23" d="M424.32,210.2c0,.05-.27.33-.88.57a4.44,4.44,0,0,1-2.51.2,4.49,4.49,0,0,1-2.22-1.2c-.45-.47-.61-.84-.57-.87s.31.26.78.63a5.21,5.21,0,0,0,2.1,1,5.36,5.36,0,0,0,2.33-.07C423.94,210.32,424.29,210.14,424.32,210.2Z"/><g class="cls-1"><path d="M419.07,228.22a5.4,5.4,0,0,1-1.62-1.3,1.87,1.87,0,0,1-.25-2,2.18,2.18,0,0,1,1.56-.91,16.18,16.18,0,0,0,1.85-.28,4.66,4.66,0,0,0,2.64-2.45c.58-1.08.93-2.28,1.51-3.37a2.09,2.09,0,0,1,1.46-1.29c.91-.09,1.57.87,1.84,1.75a7.87,7.87,0,0,1-2,7.8c-2,2-4.33,2.92-7,2"/></g><path class="cls-26" d="M440.46,201.8c-5.64-7.45-12.13-14.69-14.63-23.69-2-7.09-1.25-14.6-1-22s-.16-15.09-4-21.38-10.63-8.69-19-5.39a12.42,12.42,0,0,0-6.07,6.6c-6.24,17.72-8.12,31.51-9.26,50.26-.61,9.87-.37,19.91,2.15,29.47s7.47,18.7,15.11,25,18.11,9.46,27.72,7.13,17.82-10.68,18.8-20.53C451.25,218,446.1,209.25,440.46,201.8Zm-9,6.88c-.82,3.47-3.72,6.08-6.82,7.87-4.13,2.38-9.05,3.69-13.73,2.76-5.71-1.13-10.4-5.5-13.13-10.65s-3.73-11-4.28-16.83c-1.46-15.61.51-32.15,2.27-47.73l18.58,30.65c4.79,8.35,11.25,15.71,15.35,24.42C431.14,202.14,432.26,205.48,431.5,208.68Z"/><path class="cls-22" d="M417.38,235.08a1.49,1.49,0,0,1-.61,0,8.36,8.36,0,0,1-1.65-.27,9,9,0,0,1-6.61-8,7,7,0,0,1,.06-1.67c.06-.39.12-.6.15-.59s-.06.87.11,2.23a9.48,9.48,0,0,0,2,4.82,9.63,9.63,0,0,0,4.34,3C416.52,235,417.39,235,417.38,235.08Z"/><path class="cls-22" d="M436.65,230.72c-.08,0-.12-.78-.55-1.94a8.22,8.22,0,0,0-7.19-5.5c-1.23-.1-2,.07-2,0a4.54,4.54,0,0,1,2-.3,7.94,7.94,0,0,1,7.47,5.71A4.54,4.54,0,0,1,436.65,230.72Z"/><path class="cls-22" d="M444.34,219.15c-.07,0-.45-.81-1.4-1.9a9.62,9.62,0,0,0-10.23-2.93c-1.39.43-2.16,1-2.2.88s.16-.18.51-.4a7.81,7.81,0,0,1,1.59-.78,9.57,9.57,0,0,1,5.78-.21,9.48,9.48,0,0,1,4.79,3.24,7.64,7.64,0,0,1,.94,1.49A1.74,1.74,0,0,1,444.34,219.15Z"/><g class="cls-1"><path d="M439.77,191.34a13.62,13.62,0,0,0,5.33.78,26.4,26.4,0,0,0,10.5-2.25c3.21-1.53,6.49-4.82,6-8.35,0,0-14.94,5.87-22,9.66"/></g><path class="cls-20" d="M408.58,129.62a12.77,12.77,0,0,0-12.77,12.84v31.72c0,8,4.73,18.36,11.87,22h0a21.34,21.34,0,0,0,17.9.61L476,175.5a3.23,3.23,0,0,0,1.84-3.9l-3.92-13.14a3.23,3.23,0,0,0-4-2.18l-44.84,13.4a3.23,3.23,0,0,1-4.16-3.16c.12-5.6.33-15.53.44-24a12.77,12.77,0,0,0-12.77-12.95Z"/></svg>