<svg id="Layer_1" data-name="Layer 1" xmlns="http://www.w3.org/2000/svg" xmlns:xlink="http://www.w3.org/1999/xlink" viewBox="0 0 960 380"><defs><style>.cls-1{opacity:0.2;}.cls-2{fill:#abd7e5;fill-rule:evenodd;}.cls-24,.cls-3,.cls-8{fill:none;stroke-miterlimit:10;}.cls-3{stroke:#555945;stroke-width:4px;}.cls-4{fill:#8b6697;}.cls-5{fill:#f7b2b1;}.cls-6{fill:#b28dc0;}.cls-7{fill:#f7bcbb;}.cls-8{stroke:#000;}.cls-8,.cls-9{opacity:0.1;isolation:isolate;}.cls-10{fill:#f1f1e9;}.cls-11{fill:#d1afcf;}.cls-12{fill:#302411;}.cls-13{fill:#fdd34f;}.cls-14{fill:url(#linear-gradient);}.cls-15,.cls-22,.cls-23{fill:#abd7e6;}.cls-16{fill:#ffeda5;}.cls-17{fill:#555945;}.cls-18{fill:#eca8a8;}.cls-19{fill:#66c192;}.cls-20{fill:#32ac73;}.cls-21{fill:#bda4ce;}.cls-22{opacity:0.5;}.cls-23{opacity:0.4;}.cls-24{stroke:#abd7e6;stroke-width:6px;opacity:0.22;}</style><linearGradient id="linear-gradient" x1="634.72" y1="289.82" x2="634.72" y2="349.82" gradientUnits="userSpaceOnUse"><stop offset="0" stop-color="gray" stop-opacity="0.25"/><stop offset="0.54" stop-color="gray" stop-opacity="0.12"/><stop offset="1" stop-color="gray" stop-opacity="0.1"/></linearGradient></defs><title>app-ilustraciones</title><g class="cls-1"><path class="cls-2" d="M686.62,372.22s35.07-32.76,35.07-88.75-64.23-116.55-140.3-88.71c-55.13,20.17-67.51,62.13-146.79-7-193-168.37-239.11,87.19-174,184.49l3.08,5.38,411.15.46Z"/></g><g class="cls-1"><path class="cls-2" d="M410.82,132.29s50.8,50.38,99.66,25,31.67-90.67,24.78-104S505.62,15.94,443.7,39.17,387.77,110.74,410.82,132.29Z"/><path class="cls-2" d="M548.32,74.92s-2.93,19.82,10.91,26.62,25.7-7.91,27.55-11.67,3.51-12.89-12-23S549.35,66.15,548.32,74.92Z"/></g><path class="cls-3" d="M333.51,276.16s37.24-56.55,81.1-24.45,54.64,52.46,91.31,41.16,35.31-33.53,64.25-25.36,39-18.59,39-18.59"/><rect class="cls-4" x="320.38" y="272.23" width="17.86" height="7.99" rx="3.99" transform="translate(-67.62 111.32) rotate(-17.43)"/><path class="cls-5" d="M553.29,160c.68,2.26-2.33,16.43-2.33,16.43s-1.59,3.49-1.28,3.82-1.13,3.42-4.3,3.11-8.14-1.35-10.63-.9c-1.86.34-7.17-1.18-9.66-2.56-.85-.45-1.36-.92-1.31-1.29.19-1.42,4.94-7.91,4.94-7.91a13.34,13.34,0,0,0,2.17.39c.2,0,.34,0,.39-.09.23-.3,5.51,1.59,6.34,2.12a7.74,7.74,0,0,0,3.08.43,19,19,0,0,1,3.1-5,7.72,7.72,0,0,0,1.74-3.83,28.3,28.3,0,0,1,.79-3.3c.45-1.52.86-3.47.33-4.18-.9-1.21-9.8-14.62-2.11-14.39s9.12,10.85,9.12,10.85S552.62,157.73,553.29,160Z"/><path class="cls-5" d="M518.62,172.69l-6.33,2.71-7.35,2.26S488.1,164,492.39,163a7.39,7.39,0,0,0,2.12-.91,17,17,0,0,0,3.41-2.93,31.21,31.21,0,0,0,2.95-3.83s16.62-.79,14,3.16c-1,1.54-.67,4,.13,6.53,0,.15.09.3.14.45A41.93,41.93,0,0,0,518.62,172.69Z"/><path class="cls-4" d="M477,248.82s-2.91-2.71-4,1.47a43.2,43.2,0,0,0-1.25,6.85,49.22,49.22,0,0,1-2.46,6.28c-.85,1.35-4.12,13.93,2.12,12.66,0,0,2.3-.49,2.75-5.79s4.31-21.13,4.31-21.13Z"/><path class="cls-5" d="M524.39,258.72c-6.33,2.37-13.9,1.76-17.9,1.18-1.73-.25-2.79-.5-2.79-.5l-19.78-2-.4.41L481,260.43,478,267.54s-7.92,10.85-8.82,4.41a26.24,26.24,0,0,1-.17-4.25,117,117,0,0,1,2-16l18-2.37,11.31-5.88.12-6.13,0-1.51.07-3.78,15.38,1.47,2.71,6.11,0,0c.4.38,5.46,5.13,7,6.65S533.43,255.33,524.39,258.72Z"/><path class="cls-6" d="M480.77,260.93s-8.07.34-8.59-1.1l-2.51,6s7.35,2.83,8.37,1.75Z"/><path class="cls-4" d="M466.62,242.56s-5.26-2.6-5.94,2.37a36.51,36.51,0,0,0-.33,8.09S459,259,458,260.65s-3.16,16.69,6.39,14.13c0,0,3.5-1,2.94-7.13s1.73-25,1.73-25Z"/><path class="cls-7" d="M509.35,259.06a18,18,0,0,1-2.86.84,31.88,31.88,0,0,1-10,.52,70.57,70.57,0,0,1-12.94-2.64c-.84-.25-1.3-.41-1.3-.41s-5.88-.91-7.91,2.26c-1.36,2.08-3.76,5.78-5.26,8.07l-1.3,2s-5.54,11-9.16-2.6l4.64-13.23a43.68,43.68,0,0,0,0-5.42c-.16-.7,1.3-3,2.79-3.94.7-.46,1.41-.61,2-.13a23,23,0,0,0,3.62,2.75,4.32,4.32,0,0,0,2.26.64c1.93-.12,6.79-.23,6.79-.23l-2.83-1a43.09,43.09,0,0,1-4.52-1.56c-1.76-.74-3.3-1.62-3-2.39.56-1.7,4.52-9.95,4.52-9.95l20-1.81,5.69,5,2.44,2.15,8.26,7.3S520.66,250.36,509.35,259.06Z"/><path class="cls-8" d="M495.11,251.71s-4.3-5.76-14.47-4.18"/><path class="cls-9" d="M462.77,252.9l-3.27,7.52s3.61,8.31,10.62,7.07l4.31-7.81S464.7,258.66,462.77,252.9Z"/><path class="cls-6" d="M462.32,253.36,459,260.87s3.62,8.31,10.63,7.07l4.31-7.81S464.25,259.12,462.32,253.36Z"/><path class="cls-10" d="M525.52,179.36c-1.47.34-8.14,4.18-8.14,4.18l-4.18,7.24s.11,4.07,0,6.78-3.28,2.38-3.28,2.38l-.16.06c-.81.34-4.6,1.93-4.6,2s-7.79-.79-7.79-.79l-15.26-2.49s-4.87-.22-6.45-1.81l0,0c-1.53-1.56-.95-2.69,1.51-4.59s.57-4.86.57-4.86a38.38,38.38,0,0,1-1.36-7.8c0-2.94-1.47-2.83-1.47-2.83s-1,0,3.51-2.94-.57-16.62,1-14.7,4.53.91,4.75-.22,4.86,1.47,4.86,1.47,2-1.25,2.72,0a1.47,1.47,0,0,0,1.8.79c1.14,3.73,9.5,8.59,9.5,8.59,7.46,2.71,13.91-6,13.91-6s2.48.68,2.82,1.7,3.17,1,3.17,1,3.39.37,3.5,1.39,3.39,2.37,3.39,2.37C531.17,175.74,527,179,525.52,179.36Z"/><path class="cls-9" d="M509.92,199l-.16,1c-.81.34-4.6,1.93-4.6,2s-7.79-.79-7.79-.79l-15.26-2.49s-4.87-.22-6.45-1.81l0,0,0-.86,2.49-.45s24.42,1.35,27.81,2.94Z"/><path class="cls-11" d="M478.15,196.43s24.42,1.36,27.81,2.94l4,.57-.68,4.29s6.44,6.67,8.36,7.46,1,27.93,1,27.93-4.75-7.35-11-3.73-10.63-2-10.63-2-10.85,2.26-14.58,5.31-6.79-.9-6.79-.9-1.24,5.43-2.71,6-1.81,4.19-1.81,4.19-4.07-.8-4.07-2a3.1,3.1,0,0,0-.9-2.6c-.8-.9-.91-3.84-.91-3.84s.45-3.4-1-4.75-1.35-7.12-1.35-7.12-.69-3.74,0-4.64,1.13-7,1.13-7,2.26-6.33,3.5-8.7,7.24-6.45,7.24-6.45h.66l.23-4.41Z"/><circle class="cls-4" cx="505.21" cy="205.25" r="0.71"/><circle class="cls-4" cx="501.4" cy="221.46" r="0.71"/><circle class="cls-4" cx="506.41" cy="215.95" r="0.71"/><path class="cls-9" d="M476.72,202h.9s-5.43,12.44-5.72,9S476.72,202,476.72,202Z"/><path class="cls-9" d="M483.2,202.87s-6.18,9.5-3.16,10.86,5.72-10.4,5.72-10.4Z"/><path class="cls-12" d="M540.37,148.32c-.58,1.22-1.86,2.19-1.85,3.54a9.46,9.46,0,0,0,.46,1.87,3.75,3.75,0,0,1-.91,3,6.48,6.48,0,0,1-2.68,1.81,3.33,3.33,0,0,0-1.61,1c-.59.86-.08,2,.17,3,.39,1.63-.26,3.67-1.85,4.18-.86.27-1.88.09-2.58.63s-.78,1.64-1.22,2.46a2.81,2.81,0,0,1-3.68,1.1,2.7,2.7,0,0,1,.16-1.23,2.31,2.31,0,0,1-2.59-1.05,3.09,3.09,0,0,1,0-2.72,10,10,0,0,1,1.62-2.31,34.47,34.47,0,0,0,4.91-7.55,19.78,19.78,0,0,0,1.89-8.76,6.71,6.71,0,0,0-.51-2.61,6.53,6.53,0,0,0-1.78-2.16c-.38-.33-.77-.64-1.16-.95l-.8-.66c-.36-.31-1.76-1.45-1.64-2,.06-.31,1-.27,1.84-.28a3.91,3.91,0,0,0,.9-.07l.19-.05a6.71,6.71,0,0,1,.85-.42,2.79,2.79,0,0,1,2.41.8,30.05,30.05,0,0,0,3.17,2.29,6.11,6.11,0,0,0,3.73.9,3.51,3.51,0,0,1,1.25-.05c.8.21,1.16,1.13,1.36,1.93A6.64,6.64,0,0,1,540.37,148.32Z"/><path class="cls-12" d="M496,136.81l-.51.09a7.9,7.9,0,0,0-1.4.53,20.74,20.74,0,0,0-2.26,1.35l-5.57,3.65a4.72,4.72,0,0,0-1.36,1.16c-.94,1.39-.05,3.38,1.32,4.35.63.46,1.35.77,2,1.23a2.72,2.72,0,0,1,1.21,1.9c.07,1.18-1,2.11-2.1,2.56a15.31,15.31,0,0,0-3.27,1.31,1.86,1.86,0,0,1-.65.38,1.46,1.46,0,0,1-.82-.16,33.66,33.66,0,0,1-4.92-2.54.67.67,0,0,1,.2.71A9.82,9.82,0,0,1,472.24,139a28.24,28.24,0,0,0,1.81-3,3.63,3.63,0,0,0,0-3.32c-.45-.67-1.25-1.13-1.48-1.9a2.62,2.62,0,0,1,.84-2.33c1.31-1.35,3.12-2.17,4.56-3.41s2.53-3.29,1.71-5c-.65-1.36-2.4-2.37-2.1-3.85a2.62,2.62,0,0,1,1.25-1.56,7.45,7.45,0,0,1,7.23-.45,1.68,1.68,0,0,1,.71-1.81,1.63,1.63,0,0,1,1.93.22,7.43,7.43,0,0,0,.64.73.63.63,0,0,0,.87,0,.9.9,0,0,0,.09-.46,5.69,5.69,0,0,1,.62-2.39,18.16,18.16,0,0,1,2.14,16.42,6.53,6.53,0,0,0-.6,2.37c.05,1.71,1.65,3,3.25,3.55l.08,0c.51.16,1.36.3,2.19.54,1.1.3,2.15.76,2.26,1.62C500.49,136.44,497.44,136.61,496,136.81Z"/><path class="cls-5" d="M472.72,143.11c-.82.9-5.12,11.07-5.12,11.07.36,2.5,7.95,5.46,11.16,6.6l1.42.49,3.09,2.71s-3.16,17.49-3.42,13.2-5.85-6.49-5.85-6.49-1.46-.6-3.22-1.41c-2.46-1.12-5.5-2.65-5.88-3.49-.67-1.43-1.58-1.88-6.25-6.1s-1.59-7.69-1.43-8.14c.75-2.26,8.29-12.24,8.29-12.24L476.42,126s3-12.36,10.58-7.54-8.62,16.36-8.62,16.36S473.55,142.2,472.72,143.11Z"/><path class="cls-10" d="M486.92,162.14l-3.31-3s-21.45,6.79-7,19.64h6.1l5.59-7.43Z"/><path class="cls-7" d="M527.44,149.18a16.22,16.22,0,1,1,0-.12Z"/><path class="cls-9" d="M527.44,149.18a16.19,16.19,0,0,1-1.27,6.3,7.37,7.37,0,0,1-2.77.05,1.68,1.68,0,0,1-1-.45,1.77,1.77,0,0,1-.33-.91c-.18-1-.34-2-.51-3a5.41,5.41,0,0,1-4.52-.62c-1.36-.77-2.55-1.84-3.87-2.71a6.24,6.24,0,0,0-4.45-1.22,7.82,7.82,0,0,0-2.38,1,16.43,16.43,0,0,0-4.07,3c-.82.9-1.54,2-2.68,2.4a2.84,2.84,0,0,1-3.54-1.81,16,16,0,0,1-.18-2.6,2,2,0,0,0-.86-1.5,16.28,16.28,0,0,1,32.43,2Z"/><path class="cls-12" d="M495.86,148.23a15.88,15.88,0,0,0,.18,2.59,2.83,2.83,0,0,0,3.54,1.81c1.14-.41,1.86-1.5,2.68-2.4a16.83,16.83,0,0,1,4.07-3,7.44,7.44,0,0,1,2.38-1,6.39,6.39,0,0,1,4.45,1.21c1.32.86,2.5,1.93,3.87,2.71a5.33,5.33,0,0,0,4.52.62l.51,3a1.82,1.82,0,0,0,.33.9,1.59,1.59,0,0,0,1,.45,7.25,7.25,0,0,0,3.37-.19,1.94,1.94,0,0,0,1.32-.94,2.19,2.19,0,0,0,.14-.72,39.18,39.18,0,0,0-2.62-16.94,11.83,11.83,0,0,0-3.42-5.22A13.57,13.57,0,0,0,519,129.4c-3.38-1.43-7.11-2.89-10.64-1.86a15.91,15.91,0,0,0-4.29,2.26l-6.33,4.2a3.78,3.78,0,0,0-.9.74,4.18,4.18,0,0,0-.69,1.5,29.43,29.43,0,0,1-2.59,5.82,2.79,2.79,0,0,0-.49,1.21,2.73,2.73,0,0,0,.26,1.16c.33.85.45,1.47,1.19,2A2.33,2.33,0,0,1,495.86,148.23Z"/><path class="cls-13" d="M498,133.41a16.06,16.06,0,0,1-2,3.4l-.51.09a7.9,7.9,0,0,0-1.4.53,28,28,0,0,1,1.71-4.55C496.31,133,497.16,133.18,498,133.41Z"/><path class="cls-13" d="M528.35,142.51c-.37-.33-.77-.63-1.16-.95-.22-.9-.45-2-.6-2.94a4.5,4.5,0,0,0,.9-.08A12.07,12.07,0,0,1,528.35,142.51Z"/><path class="cls-14" d="M638.53,343.73l0,.46a2.26,2.26,0,0,0-.56.28s-.78,4-1.25,4.29a3.93,3.93,0,0,0-.57,1l-.11-.21-.12.25-.21-.38,0-.45-1.3-10a45.81,45.81,0,0,1,0-8.84c.54-3,.45-13.57-3-17.79,0,0-1.62-3.84-.15-6.33l.23-15.68.54-.53.08,14.47a14.58,14.58,0,0,0,3.49,8.3l.55,7.61s.45,8.29,1.86,12.89v7.08l1,.15-.09.91Z"/><path class="cls-5" d="M647.73,192.55l-3.24,7.24-1.2.7-8.07,4.72s-10.18-1-10.48-1.13-.77-8.79,1.86-10.61a1.89,1.89,0,0,1,.47-.24h0c1.62-.54,2.23-2.76,2.44-4.82a8.86,8.86,0,0,0,.07-.9,19.91,19.91,0,0,0,0-2.89s2.47-2.47,5.43-5c5.24-4.52,12-9.29,9.42-1.16a26.75,26.75,0,0,0-1.06,4.5c0,.35-.09.7-.12,1-.31,4,.94,6.17,2.2,7.32.14.13.28.23.41.34A5,5,0,0,0,647.73,192.55Z"/><polygon class="cls-5" points="635.67 349.92 634.54 350.45 626.93 348.71 626.25 346.02 625.27 342.13 624.59 339.44 634.35 339.44 635.61 349.45 635.67 349.92"/><path class="cls-9" d="M634.54,350.45l-7.61-1.74-.68-2.71c2.88-.86,7.09,1.57,7.09,1.57-.28.95,1.89,1.73,2.26,1.86l.06.45Z"/><path class="cls-9" d="M638.16,354.14l-5.46,5.35-1.93,1.89-1,0c-2-1.1.58-3.79,2.29-5.27.33-.3.63-.54.86-.72,1.22-1,2.37-3.67,3.1-5.3Z"/><path class="cls-9" d="M636,350.05l2.18,4.07-5.46,5.35-1.93,1.91-1,0c-2-1.1.58-3.79,2.29-5.27.33-.3.63-.54.86-.72C634.1,354.39,635.25,351.68,636,350.05Z"/><path class="cls-4" d="M638.16,354.59l-5.46,5.35-1.93,1.89s-10.48-.38-16.31-.45c-4.31-.06-1.78-2.31,1.18-4.17,1.05-.65,2.13-1.26,3-1.71,3.31-1.74,6-7.92,6-7.92,2.49-3.16,8.75.46,8.75.46-.31,1,2.33,1.88,2.33,1.88Z"/><polygon class="cls-5" points="648.18 350.45 638.16 347.05 638.46 344.19 638.71 341.69 639.06 338.31 647.28 338.31 647.55 341.95 648.04 348.57 648.18 350.45"/><path class="cls-4" d="M651.88,360.55c-.23.75-11.24,1.58-19,1.73-6.73.13-3.09-3.83-.86-5.76.33-.29.63-.54.86-.72,1.74-1.36,3.32-6.26,3.77-6.56s1.21-4.29,1.21-4.29c3.39-2.42,11.83,5.5,11.83,5.5l.22,6.86s.58.65,1.12,1.39S652,360.18,651.88,360.55Z"/><path class="cls-15" d="M648,311.1c4.14,11.24.91,22.69.91,22.69l-.53,6.86c-1.89,1.51-10.55,0-10.55,0v-7.09c-1.36-4.59-1.81-12.88-1.81-12.88l-.53-7.61a14.85,14.85,0,0,1-3.39-8.3l-.08-14.47-.52.53-.23,15.68c-1.43,2.49.15,6.33.15,6.33,3.39,4.22,3.47,14.77,2.94,17.79s0,9.27,0,9.27l-10.32,1.5s-6-24.49-5.51-26.68-.37-6.93-.37-6.93-1.81-5-1.21-7.69-.3-3.77-.45-5-1.21-5.73-1.21-5.73c-1.88-8.44-.23-18.69.7-23.18.29-1.45.51-2.3.51-2.3s28-8.14,32.78-1.35a9.84,9.84,0,0,1,1.29,2.67c2.32,7.33-1.76,18.8-2.5,20.47-.82,1.88-2.55,8.89-2.55,8.89l-.16,5.95C644.41,303.34,648,311.1,648,311.1Z"/><polygon class="cls-9" points="630.7 264.53 631.45 287.59 632.28 286.99 632.88 263.25 630.7 264.53"/><path class="cls-5" d="M618,233.48s-5.2-4.91-6.33-2.27-3.55,6.94-3.55,6.94l5.73,5.42s1-1.88,1.74-1.88a24.1,24.1,0,0,0,2.93-.45Z"/><polygon class="cls-5" points="621.5 213.13 618.03 239.2 616.73 237.21 612.38 230.54 613.06 223.37 613.41 211.43 613.51 207.85 621.5 213.13"/><path class="cls-9" d="M644.41,178.46a25.33,25.33,0,0,0-1.17,5.53,14,14,0,0,1-13.71,4.42,21.59,21.59,0,0,0,0-3.77S648.48,165.72,644.41,178.46Z"/><path class="cls-5" d="M646.71,173.85a14,14,0,0,1-3.35,9.1,14.24,14.24,0,0,1-4.72,3.6,14,14,0,0,1-20-12.7,15.62,15.62,0,0,1,.17-2.17,14,14,0,0,1,27.87,2.17Z"/><path class="cls-9" d="M617.43,215c-1.66-1.41-3.52-2.67-4-3.58l.1-3.58,8,5.28L618,239.2l-1.28-2a10.48,10.48,0,0,1,.55-3.28c.91-1.81.23-4.6.23-5.51s1.28-2.33,1.2-2.93a34,34,0,0,0-.45-3.77C618,220.28,619.47,216.74,617.43,215Z"/><path class="cls-16" d="M659.79,207l-.15,3.39-9,54s-9.87-1.59-17.56,1.13-17.94-.46-17.94-.46,1.44-4.07.84-5.57-.16-6.18-.16-6.18a8.08,8.08,0,0,0-.07-3.62c-.53-1.58,1-8,1-8s-.37-6.86.53-8.67.23-4.6.23-5.5,1.28-2.34,1.2-2.94a34.3,34.3,0,0,0-.45-3.77c-.3-1.43,1.21-5-.83-6.71s-4.37-3.23-4.15-4.14-2.33-.68-2.33-.68a5.62,5.62,0,0,1,.6-3.09c.83-1.66.45-4.9.45-4.9s1.81-.07,1.59-2.34a13.42,13.42,0,0,1,.07-3.69s.75.68,2.94.61,4.6.52,5.28-.15,3.69-3,5.2-2.49h0c-.12.23-3.72,7.39,3.47,7.83a22.77,22.77,0,0,0,15.3-9.42s.83-.91,3.54,2,5.05,1.81,5.05,1.81l3,.22s-2,1.66-.76,2.79a6.67,6.67,0,0,1,.71.79c1.21,1.5,2.8,4,3.66,4.56C662.12,204.53,659.79,207,659.79,207Z"/><path class="cls-5" d="M611.86,234.53s-11.08,5.43-9.13,10.55,4.75,4.45,6.41,3.84,4.67-5.35,4.67-5.35Z"/><path class="cls-9" d="M643.09,204.2c0,.48-2.82,6.59,0,8.17S643.09,204.2,643.09,204.2Z"/><path class="cls-9" d="M620.82,202.08s-4,4.3-2.34,4.75S620.82,202.08,620.82,202.08Z"/><path class="cls-5" d="M647.73,210.49s1.73,10.7,1.81,13.86.53,8.29.53,8.29,1.28,12.21-.68,17.19a28,28,0,0,0-1.66,10.4s-5.73,11.16-6.56,12.29.68,11.83,6.71,7.31,5.28-14.4,5.28-14.4l2.11-6.78,2.94-8.67s.82-5.28,1.13-6.33,0-6.78,0-6.78,3.54-29-1.21-32S647.73,210.49,647.73,210.49Z"/><path class="cls-9" d="M647.73,214.18s7.09-7.76,9.27-7.09,2.79.38,2.79.38.3-4.29-2.94-5.88-6.78-6.4-9.5-.67S647.73,214.18,647.73,214.18Z"/><path class="cls-16" d="M647.73,213.73s7.09-7.77,9.27-7.09,2.79.38,2.79.38.3-4.29-2.94-5.88-6.78-6.41-9.5-.68S647.73,213.73,647.73,213.73Z"/><path class="cls-17" d="M662.19,193.24c-.72,0-1.17.77-1.55,1.39a13.94,13.94,0,0,1-9.55,6.81,10.22,10.22,0,0,1-10.35-4.76c-2-3.54-1.25-7.87-2.19-11.78-1.65-6.78-7-8.77-12.52-11.7a16.4,16.4,0,0,0-5.84-2.14c-2.84-.37-5.48-2.21-3-5.15a11.4,11.4,0,0,1,3.91-2.54,7.1,7.1,0,0,0,3.53-3c1.18-2.45-.23-5.95,1.81-7.79a5.41,5.41,0,0,1,3.71-1,20.23,20.23,0,0,1,6.33.84c3.12,1,5.73,3.17,8.5,5s6,3.2,9.28,2.57c1.88-.37,3.9-1.41,5.6-.51a4.12,4.12,0,0,1,1.86,2.81,7.58,7.58,0,0,1-.2,4.09c-.74,2.22-2.46,4-3.22,6.22a3,3,0,0,0,0,2.52,3,3,0,0,0,2.66,1.09,18.89,18.89,0,0,1,3-.19c2.87.32,4.52,3.59,4.52,6.48s1,10.07-7.19,11.15"/><path class="cls-18" d="M320.1,190.55c-.34,0-27,5.09-20.35-4a16.11,16.11,0,0,0,2.71-5.68,18.45,18.45,0,0,0,.41-6.58,23.15,23.15,0,0,0-2.21-7.64s22-4.86,18.54-1.13c-1.53,1.63-1.49,6.59-1,11.67.28,2.75.68,5.52,1.05,7.82C319.77,188.27,320.21,190.55,320.1,190.55Z"/><path class="cls-12" d="M297.49,364.41s6.9,6.36,11.08,6.86,10.06,2.3,6.1,5.13-23.85,1.72-23.85,1.72-4.61-3-2.15-6.81S297.49,364.41,297.49,364.41Z"/><path class="cls-9" d="M314.67,376.4a7.39,7.39,0,0,1-2.47,1l-.46,0s-4-2.59-2.57-6C313.28,371.93,318.45,373.7,314.67,376.4Z"/><path class="cls-12" d="M319.31,363.64s6.9,6.33,11.08,6.85,10.06,2.3,6.1,5.13-23.85,1.72-23.85,1.72-4.61-3-2.15-6.78S319.31,363.64,319.31,363.64Z"/><path class="cls-17" d="M312.53,368.27c-.91.67-3.08,1-5.71,1.17h0l-.49,0-.9,0c-6.62.21-15.15-.55-15.15-.55s.67-1.13-1-1.92.22-1.81.45-3.73-3.94-8-3.94-8-2.6-23.74-1.44-25.66-1.16-4.75-1.16-4.75a1.9,1.9,0,0,0,.59-3.05c-1.55-1.92-1-9.39-.14-11.53s-2.82-11.54-2.71-13.91-.79-5.31-4-18.88a29.23,29.23,0,0,1,3.38-21.15,21.47,21.47,0,0,1,1.71-2.59h21.59l.55,5.08,0,.28c.18,1.72.4,3.79.65,6.17C307.84,294,315.15,366.37,312.53,368.27Z"/><path class="cls-9" d="M312.53,368.27c-1,.71-3.37,1.06-6.24,1.2a14.21,14.21,0,0,0-2.26,0s-.34-.78-4.41-3.62,0-9.27,0-9.27l-4.23-17.3s-1.07-4.61-.16-7.33-2-3.39-2-3.39,2.85-1.81,0-4.18S290,313.33,290,313.33s-4.07-5.43-2.26-7.24-1.13-6.1-1.13-6.1-4.3-6.79-3.85-9.05,6.56-1.47,4.75-8.7,9.34,2.71,9.34,2.71l7.29-25.84C306.53,281.47,315.37,366.21,312.53,368.27Z"/><path class="cls-17" d="M323.35,364.32s-12.21,7.68-13,6.21c-.49-.9-2.34-1.09-3.66-1.09h0c-.79,0-1.38.06-1.38.06s-.34-.78-4.41-3.62,0-9.27,0-9.27l-4.24-17.3s-1.08-4.61-.17-7.33-1.95-3.39-1.95-3.39,2.85-1.81,0-4.18-3.25-11.08-3.25-11.08-4.07-5.43-2.26-7.24-1.13-6.1-1.13-6.1-4.3-6.79-3.85-9.05,0-1.81-1.81-9c-1.35-5.45,2.16-17.71,4-23.42.6-1.87,1-3,1-3L304,258.83l16.87,3.4.45,6-.13.95-2.26,16.73-1.35,14.52a25.73,25.73,0,0,1-.68,6.11c-.68,1.92.34,10,.34,10s0,1.58-1.7,7.91,1.47,8.82,1.47,8.82,2,17.52,1.36,21.36S323.35,364.32,323.35,364.32Z"/><path class="cls-9" d="M298.68,322.26c1.69.28,10.45.45,8.14,1.53S298.68,322.26,298.68,322.26Z"/><path class="cls-9" d="M297.72,328c.67-.06,3.79-1.41,4.63-1.3a23.06,23.06,0,0,1,3,0c1,.24,2.92.9,1.85,1.31s-3.3,0-4.58.45S297.72,328,297.72,328Z"/><path class="cls-9" d="M288.45,325.6c.45-.06,3.95-1,3.67,0S288.45,325.6,288.45,325.6Z"/><path class="cls-9" d="M282.85,297.22c.34.45,2.32,5,3.28,5S282.85,297.22,282.85,297.22Z"/><path class="cls-5" d="M331.65,158.86a18.07,18.07,0,1,1-.63-4.76A18.09,18.09,0,0,1,331.65,158.86Z"/><path class="cls-19" d="M314.45,182.53s-12-5.21-16.85,2.6a129.77,129.77,0,0,0-7,12.43s-.67,5.2-1.92,6.45,2.26,23.62,2.26,23.62-4.18,8.6-.45,10.12-.34,2.77-.34,2.77,1.13,2.6-1,2.83-3.39,4.18-3.39,4.18L279.06,255s21.79,7.69,30.34,11.19,11.72,2.15,12.06,2S327,253.86,327,253.86s-.23-4,1.69-5.31,0-30.64,0-30.64L328,199.63a16.52,16.52,0,0,0-8.23-13.83,11.48,11.48,0,0,0-2.3-1Z"/><path class="cls-20" d="M326.32,213.73l2.37,4.18s-19,5.43-19.74.23c-.11-.76,7.42-6.79,7.42-6.79Z"/><path class="cls-12" d="M319.42,136.12h1.42l-.71.56H322v.68l1.52.62v.45l1.42.29-.34,1h2.49l-.29,1.09,1.7.78v1.18a9.91,9.91,0,0,0,2.26.79c.56,0,1.5.51.9.79s.45.63.95.68,1.13.63.84.85l-.28.23a10.11,10.11,0,0,0,1.81,1.3c.29,0,.28,1.07,0,1.18s-1.36.74-.45,1.3.79,1.64.23,1.64-.8-.73-.86.28-.9,2.32-1,1.31-1.87.11-3.45,2.6-2.77,2.54-2.77,2.54,0,5.38-.73,5.94-4.92-2.38-5-3.12-5.17-8.7-7.39,1.42l-.41,8.19S300.92,172.18,300,173s-15.45-10.85-9.8-23.14,6.86-13.34,11-14.77S315.73,133.5,319.42,136.12Z"/><path class="cls-5" d="M309.93,215.65s-.12,9.16-.91,11.42,5.43,23.4,5.43,23.4,5,11.15,4.07,14.58.34,25.44,7.8,20,1.92-23.17,1.92-23.17-2.37-9.89-2.37-11.1-2.49-19.54-2.49-19.54-1.92-6-1.36-9.61.79-10.29.79-10.29Z"/><path class="cls-19" d="M318.4,198.47s-9.07,2.94-9.45,11,0,8.71,0,8.71,13.52-6.79,19.74-.23l-.64-17.75Z"/><rect class="cls-21" x="600.22" y="242.4" width="17.86" height="7.99" rx="3.99" transform="translate(141.73 708.24) rotate(-66.68)"/><path class="cls-22" d="M374.72,101.26l-8.07-1.81,1.82-8.07a2.42,2.42,0,1,0-4.72-1.06l-1.82,8.07-8.07-1.82a2.42,2.42,0,1,0-1.06,4.72l8.07,1.82-1.81,8.07a2.42,2.42,0,0,0,4.72,1.06l1.81-8.07,8.07,1.81a2.42,2.42,0,0,0,1.06-4.72Z"/><path class="cls-23" d="M310,77.39a9.84,9.84,0,0,0-5,1.41,16.48,16.48,0,0,0-31.46-4.65,11.76,11.76,0,1,0-3.11,23.1H310a9.93,9.93,0,1,0,0-19.86Z"/><circle class="cls-24" cx="626.25" cy="110.5" r="11.29"/></svg>