<svg id="Layer_1" data-name="Layer 1" xmlns="http://www.w3.org/2000/svg" viewBox="0 0 960 380"><defs><style>.cls-1{fill:#ecb4b6;}.cls-2,.cls-9{fill:#f8b3b2;}.cls-3{opacity:0.2;}.cls-4{fill:#abd8e6;}.cls-10,.cls-11,.cls-12,.cls-13,.cls-15,.cls-16,.cls-17,.cls-18,.cls-19,.cls-20,.cls-21,.cls-22,.cls-24,.cls-25,.cls-26,.cls-27,.cls-28,.cls-29,.cls-30,.cls-31,.cls-32,.cls-33,.cls-4,.cls-5,.cls-6,.cls-7,.cls-8,.cls-9{fill-rule:evenodd;}.cls-5{fill:#d7793c;}.cls-6{fill:#ef9c70;}.cls-7{fill:#e34f45;}.cls-8{fill:#eaa7a7;}.cls-10{fill:#302100;}.cls-11{fill:#d98b59;}.cls-12{fill:#f2f1e9;}.cls-13{fill:#211a4d;}.cls-14{fill:#271a4f;}.cls-15{fill:#b93e65;}.cls-16{fill:#2c7048;}.cls-17{fill:#3a8759;}.cls-18{fill:#4a996b;}.cls-19{fill:#54af7e;}.cls-20{fill:#65c192;}.cls-21{fill:#fce579;}.cls-22,.cls-23{fill:#f5e7c5;}.cls-24{fill:#c3463b;}.cls-25{fill:#d0493f;}.cls-26{fill:#b03a60;}.cls-27{fill:#e5cfe3;}.cls-28{fill:#d2b0d0;}.cls-29{fill:#8c6698;}.cls-30{fill:#364987;}.cls-31{fill:#40579f;}.cls-32{fill:#b48fc1;}.cls-33{fill:#fcc338;}.cls-34{fill:#aad8e7;opacity:0.5;}.cls-35{fill:none;stroke:#aad8e7;stroke-miterlimit:10;stroke-width:6px;opacity:0.22;}</style></defs><title>app-ilustraciones</title><path class="cls-1" d="M469.12,101.71s13.09-13.07,8.05-16-12.6,10.72-12.6,10.72Z"/><path class="cls-2" d="M373.49,189.84S366,204.12,372,205.55s8-12.12,8-12.12Z"/><g class="cls-3"><path class="cls-4" d="M385.71,101.6s16.79,74.08,75,79.19,80-63.17,81.45-79-5.25-50.37-74-64.84S377.35,69.16,385.71,101.6Z"/><path class="cls-4" d="M541.58,128.57s-13.91,16.08-5.4,30.06,27.53,7.57,31.34,5.25,10.49-9.54,2.34-27.44S547.51,121.3,541.58,128.57Z"/></g><g class="cls-3"><path class="cls-4" d="M770.92,436.75s47.27-44.16,47.27-119.62S731.63,160.07,629.1,197.58c-74.29,27.18-91,83.73-197.83-9.47C171.11-38.8,109,305.61,196.71,436.75l4.15,7.25,554.1.62Z"/></g><path class="cls-5" d="M525.09,139.05l-3.57-3.15s-5.61-.91-9.17,1.26-1.6,5.44-1.35,6,6.64,2.92,6.89,2.89S525.09,139.05,525.09,139.05Z"/><path class="cls-6" d="M557.19,141.87l.33.2c2.42,1.47,17.34,10.51,18,11.12s.61.8.61.8-9.55,15.17-10.5,27.44c0,0-6.13,15.75-8.21,23.49s.78,20.39-1.32,25.09-28.87,4.34-36.79,2.27-17.74-9.62-20.38-16.23,17.92-72.84,17.92-72.84l3.3-5.75,1.42-1.56,16.71.6Z"/><path class="cls-7" d="M564.7,183.73l-.45,1.18-8.84,1.74h0a.54.54,0,0,1-.59-.47L553,170.4l-15.17,6a.48.48,0,0,1-.17.05A.53.53,0,0,1,537,176l-1.56-15.26-12.88,5.36-.12,0a.53.53,0,0,1-.61-.44l-2.6-16.28-4.67,1,.36-1.17,4.64-1a.53.53,0,0,1,.63.41.13.13,0,0,1,0,.06l2.58,16.14,12.91-5.38a.54.54,0,0,1,.7.29.35.35,0,0,1,0,.17L538,175.19l15.2-6a.54.54,0,0,1,.69.3.35.35,0,0,1,0,.14h0l1.82,15.9,8.92-1.76Zm-2,5.31-10.14,2-1.82-15.91h0a.65.65,0,0,0,0-.13.53.53,0,0,0-.69-.3l-15.2,6-1.56-15.26a.38.38,0,0,0,0-.17.53.53,0,0,0-.69-.29l-12.92,5.38L517,154.26v-.07a.54.54,0,0,0-.64-.41l-3,.65-.35,1.17,3-.66,2.59,16.28a.55.55,0,0,0,.61.45l.12,0,12.88-5.36,1.57,15.27a.52.52,0,0,0,.58.47.47.47,0,0,0,.17,0l15.17-6,1.81,15.79a.53.53,0,0,0,.59.47h.05l10.07-2c.14-.4.29-.79.43-1.17Zm-1.91,5.28-11.44,2.26-1.82-15.91h0a.65.65,0,0,0,0-.13.52.52,0,0,0-.69-.3l-15.19,6L530.06,171a.61.61,0,0,0,0-.18.53.53,0,0,0-.69-.29l-12.92,5.38-2.57-16.13s0-.05,0-.07a.54.54,0,0,0-.64-.41l-1.31.29-.34,1.17,1.33-.29,2.59,16.28a.54.54,0,0,0,.61.44.34.34,0,0,0,.12,0l12.88-5.35,1.57,15.26a.53.53,0,0,0,.58.47.47.47,0,0,0,.17,0l15.18-6,1.8,15.78a.53.53,0,0,0,.6.47h0l11.39-2.25Z"/><path class="cls-8" d="M542.14,119.7c-2.1-5.67-5.9,5-.95,5.5Z"/><path class="cls-8" d="M562.07,126.4c5.1-3.25,1.7,7.53-2.57,5Z"/><path class="cls-8" d="M544.82,129.5l-1.54.72s-1.19,4-1.37,4.54-1.71,1.38-1.71,1.38-1.05,4.06,1.33,7.09,9.63,3,12.25,1.38a3.94,3.94,0,0,0,2.05-4.06,2.28,2.28,0,0,1-.85-1.5c-.11-1,1.63-6.62,1.7-6.91S544.82,129.5,544.82,129.5Z"/><path class="cls-9" d="M557.3,107.6c5.8,1.7,10.06,8.42,6,17.94-4.31,10.16-11.14,13.7-16,11.82-5-1.46-8.34-8.42-5.63-19.11C544.2,108.23,551.65,105.45,557.3,107.6Z"/><path class="cls-10" d="M563.79,125.79c-.41,0-1,1-1,1-1.1-.64-.31-2.42-.31-2.42-.85-1.21-.42-3.83-.05-4.84s2.13-4.17.6-7.13c-2-3.86-9.25-6.31-13.17-4.44-3,1.45-3.51,5-3.83,6s-1.56,3.38-3,3.83c0,0-.44,1.9-1.71,1.74,0,0,.13-1.16-.21-1.38,0,0,2.15-11,3.06-12.12s4.62-.81,4.62-.81,2.62-4.42,6.63-4c7.74.87,21.49,8.27,11.68,16.61Z"/><path class="cls-10" d="M566.94,112.8l-.68,5.9s-.14-.28-.38-.16c-6.31,3.14-7.5-4.83-17.31-7.28.27,2-2.17,2.72-2.31.39a24.29,24.29,0,0,1,1.09-4.52s6.58-1.07,7.84-1S563.46,110.06,566.94,112.8Z"/><path class="cls-5" d="M540.2,136.14c0,7.73,11.74,10.39,15.63,4.41a1.82,1.82,0,0,1,.38.08,6.2,6.2,0,0,1,.9.88.74.74,0,0,1,.08.36s-2.64,4.7-10.2,3.95-8.69-7.78-8.76-9.32a.48.48,0,0,1,.26-.36,10.82,10.82,0,0,1,1.45-.17A.38.38,0,0,1,540.2,136.14Z"/><path class="cls-5" d="M576.08,154a37,37,0,0,1,4.45,10.36c1.09,5.09,2,19.2,2.36,21.27s2.88,8.5,3,9.39-2.07,7.79-5.61,8.4-8.26-2.41-10.14-5-2-12.92-4.58-17S570.77,157.79,576.08,154Z"/><path class="cls-11" d="M568.71,173.51a14.83,14.83,0,0,0-3.11,3.64c-.92,1.79-1,5.41.61,8.65a26.8,26.8,0,0,1,2.44,7.75c.46,2.21.39,4.85,2.61,7.91s7.4,3.64,10.47,1.7,3-6.55,2.64-9.15-2.17-5.47-2.45-6.93.61-9.34.47-11.09-3.16-3.54-3.16-3.54Z"/><path class="cls-12" d="M571.07,171.43a16.41,16.41,0,0,0-2.81,1.93c-.73.78.2,4.75.2,4.75a3.82,3.82,0,0,0,2,2,8.18,8.18,0,0,0,8.17-1.35,4.15,4.15,0,0,0,1.2-2.89,15.66,15.66,0,0,0-.82-4.08c-.26-.52-2.44-.91-2.44-.91Z"/><path class="cls-10" d="M570.36,113.34c-3.86-.1-9.48-2-11.53-11.38a22.57,22.57,0,0,0-3.38-.69,5.45,5.45,0,0,0-3,.56C555,108.71,559.92,117.19,569,116A7.51,7.51,0,0,0,570.36,113.34Z"/><path class="cls-13" d="M567,163.71h0a.26.26,0,0,1,.25.26v15a.26.26,0,0,1-.25.26h0a.26.26,0,0,1-.26-.26V164A.26.26,0,0,1,567,163.71Z"/><path class="cls-7" d="M567,188.85s3.1-4.85,3.19-6.16a4,4,0,0,0-1.22-3.5,2.68,2.68,0,0,1-.91-2.15H566a2.68,2.68,0,0,1-.91,2.15,4,4,0,0,0-1.22,3.5C563.91,184,567,188.85,567,188.85Z"/><rect class="cls-14" x="565.64" y="176.15" width="2.75" height="1.56" rx="0.31"/><path class="cls-15" d="M567,187.68s2.48-3.89,2.56-4.94a3.24,3.24,0,0,0-1-2.81l-.08-.07a3.81,3.81,0,0,1,.31,1.93c-.06.94-2,4.11-2.47,4.81C566.73,187.23,567,187.68,567,187.68Z"/><path class="cls-10" d="M468.38,332.22h40.77c3.7,0,6.73,2.22,6.73,4.93v40.56c0,2.71-3,4.92-6.73,4.92H468.38c-3.7,0-6.73-2.21-6.73-4.92V337.15C461.65,334.44,464.68,332.22,468.38,332.22Z"/><path class="cls-16" d="M435.63,255.37c-12.27,29-29.2,57.1-52.66,63.2,0,0-4.59,2.14-3.34,6.47s9.29,8,15.35,8.08c-21.85,30.29,27.82,42.58,60.23,13.15a19,19,0,0,0,3.78,9.94c3.72,5.09,10.4-1,12.17-5.31,21.7,26.45,64.66,19.9,61.73-17.39,0,0,8.4,11.75,13.64,13.9s5.68-8.45,5.68-8.45,26.9,12.6,47.93,2.38c0,0,6.19-3.86-3.91-13-7.45-6.72-38.41-18.5-60.54-73Z"/><path class="cls-17" d="M537.63,218.6c10.45,24.66,24.87,48.63,44.85,53.82,0,0,3.91,1.82,2.85,5.51s-7.92,6.82-13.08,6.88c18.61,25.8-23.7,36.27-51.3,11.2a16.18,16.18,0,0,1-3.22,8.47c-3.16,4.33-8.85-.87-10.36-4.52-11.57,35.54-47.55,31-52.57-14.81,0,0-7.16,10-11.63,11.83s-4.83-7.19-4.83-7.19-22.91,10.73-40.83,2c0,0-5.26-3.29,3.34-11.06,6.34-5.72,32.71-15.75,51.56-62.15Z"/><path class="cls-18" d="M453,172.47c-8.4,19.83-20,39.1-36.06,43.27,0,0-3.14,1.46-2.28,4.43s6.36,5.48,10.51,5.53c-15,20.74,19.05,29.16,41.24,9a12.9,12.9,0,0,0,2.59,6.8c2.54,3.49,7.12-.7,8.33-3.63,9.3,28.57,38.22,24.9,42.26-11.91,0,0,5.75,8,9.34,9.51s3.89-5.78,3.89-5.78,18.42,8.63,32.82,1.63c0,0,4.23-2.65-2.68-8.89-5.1-4.6-26.3-12.67-41.45-50Z"/><path class="cls-19" d="M507.26,121.74c4.94,17,13.26,43,28.8,47.72,0,0,2.06,1,1.41,3s-4.38,3.5-7.15,3.43c0,0,3.08,4.63,1.3,9.24s-16.23,8.29-29.06-4.28a8.73,8.73,0,0,1-1.9,4.48c-1.79,2.26-4.74-.65-5.47-2.64,0,0-4.58,12.44-15.51,12s-12.4-21-12.4-21-4,5.22-6.48,6.11-2.44-4-2.44-4-12.52,5.29-21.95.25c0,0-2.76-1.87,2-5.86,4.18-3.5,23.7-9.69,34.77-48.48Z"/><path class="cls-20" d="M486.46,91.48c-2.16,6-11.24,29.86-21.42,32.92a1.34,1.34,0,0,0-.72,1.53c.33,1,2.23,1.77,3.63,1.74a5.69,5.69,0,0,0-.66,4.69c.9,2.34,8.23,4.2,14.74-2.18a4.46,4.46,0,0,0,1,2.28c.91,1.14,2.4-.33,2.78-1.34,0,0,2.32,6.31,7.86,6.09s6.29-10.67,6.29-10.67,2.05,2.65,3.28,3.1,1.24-2,1.24-2,6.35,2.69,11.14.13c0,0,1.4-1-1-3s-15.46-5.24-23-32.13C490.24,88,488.22,86.56,486.46,91.48Z"/><path class="cls-21" d="M477.82,110.75a3.28,3.28,0,0,0-2.5,1.16,5.48,5.48,0,0,0-.8,2.72,6.78,6.78,0,0,0,.39,2.75,5.11,5.11,0,0,0,1.77,2.35,7.71,7.71,0,0,0,4.24,1.34c4.34.26,8.61-4.2,12.25-8,3-3.14,5.6-5.85,7.86-5.45a3.84,3.84,0,0,1,2.6,1.55,4.41,4.41,0,0,1,.73,2.49,6.39,6.39,0,0,1-.52,2.55,5.77,5.77,0,0,1-1,1.57l-.86-1a4.64,4.64,0,0,0,.6-1,5.22,5.22,0,0,0,.42-2,3.06,3.06,0,0,0-.5-1.73,2.51,2.51,0,0,0-1.73-1c-1.56-.28-3.93,2.19-6.67,5-3.83,4-8.33,8.7-13.28,8.41a9.09,9.09,0,0,1-5-1.6,6.61,6.61,0,0,1-2.22-3,8.1,8.1,0,0,1-.48-3.29,6.82,6.82,0,0,1,1.07-3.44,5,5,0,0,1,4.31-1.7C478.32,109.87,478.07,110.31,477.82,110.75Z"/><path class="cls-21" d="M464.77,143.21a12.23,12.23,0,0,0-5.92-.18,6.1,6.1,0,0,0-4,3.46,10.27,10.27,0,0,0,.41,9.95c1.75,2.88,5.17,5.43,11,6.69,10.41,2.26,23.29-7.09,34-14.84,7.57-5.5,14-10.2,18.12-9.58a8.39,8.39,0,0,1,5.94,3.88A10.8,10.8,0,0,1,525.9,148a12.29,12.29,0,0,1-1.17,5.76,11.65,11.65,0,0,1-2.85,3.79l-.74-1.14a10.13,10.13,0,0,0,2.38-3.22,10.81,10.81,0,0,0,1-5.14,9.44,9.44,0,0,0-1.4-4.69,7.13,7.13,0,0,0-5-3.28c-3.53-.54-9.81,4-17.13,9.34-10.89,7.91-24,17.46-35,15.07-6.22-1.36-9.92-4.14-11.84-7.31a11.6,11.6,0,0,1-.45-11.25,7.4,7.4,0,0,1,4.91-4.16,13.52,13.52,0,0,1,6.8.27C465.19,142.41,465,142.81,464.77,143.21Z"/><path class="cls-21" d="M433.37,196.23a.68.68,0,0,1-.95,0,.66.66,0,0,1,0-.94s8.6-8.59,32.2,9.71a61.33,61.33,0,0,0,33,12.52c13.35,1,25.26-2.35,31.15-7.6,5.51-4.92,9-7.66,11.6-9a7.51,7.51,0,0,1,6.88-.43,3.72,3.72,0,0,1,1.42,1,4.46,4.46,0,0,1,1.06,3.11,10.55,10.55,0,0,1-.78,3.7,16,16,0,0,1-1.45,2.86c-.33-.29-.67-.59-1-.9a15.28,15.28,0,0,0,1.21-2.43,9.36,9.36,0,0,0,.68-3.23,3.19,3.19,0,0,0-.7-2.21,2.32,2.32,0,0,0-.92-.61,6.32,6.32,0,0,0-5.8.37c-2.52,1.27-5.9,4-11.31,8.79-6.13,5.48-18.43,9-32.14,7.94A62.65,62.65,0,0,1,463.83,206C441.14,188.44,433.39,196.21,433.37,196.23Z"/><path class="cls-21" d="M427.93,264a.67.67,0,1,1-1.27-.4s3.49-11.76,27.36,1.67l1,.54c11.91,6.47,34.33,14.66,56.07,17.16,21.58,2.49,42.46-.63,51.49-16.68l.23-.4c12.65-23.31-1.38-21-9.9-18.07-.25-.39-.51-.78-.77-1.17,9.36-3.39,26.38-6.9,11.84,19.87l-.24.43c-9.36,16.63-30.74,19.9-52.81,17.35-21.91-2.53-44.52-10.79-56.54-17.32l-1-.55C430.94,253.76,427.94,263.93,427.93,264Z"/><path class="cls-22" d="M480.49,214.32h0a.31.31,0,0,1,.31.32v18.72a.31.31,0,0,1-.31.32h0a.32.32,0,0,1-.32-.32V214.64A.32.32,0,0,1,480.49,214.32Z"/><path class="cls-7" d="M480.48,245.78s3.88-6.08,4-7.72a5,5,0,0,0-1.53-4.38A3.32,3.32,0,0,1,481.8,231h-2.65a3.32,3.32,0,0,1-1.14,2.68,5.06,5.06,0,0,0-1.53,4.38C476.59,239.7,480.48,245.78,480.48,245.78Z"/><rect class="cls-23" x="478.76" y="229.89" width="3.43" height="1.95" rx="0.39"/><path class="cls-24" d="M480.48,244.31s3.11-4.87,3.2-6.18a4.06,4.06,0,0,0-1.23-3.51l-.1-.09a4.91,4.91,0,0,1,.38,2.42c-.08,1.17-2.54,5.13-3.09,6C480.12,243.75,480.48,244.31,480.48,244.31Z"/><path class="cls-22" d="M506.94,144.2h0a.32.32,0,0,1,.31.32v24a.31.31,0,0,1-.31.32h0a.32.32,0,0,1-.32-.32v-24A.32.32,0,0,1,506.94,144.2Z"/><path class="cls-7" d="M506.92,181s3.89-6.08,4-7.72a5.06,5.06,0,0,0-1.53-4.38,3.33,3.33,0,0,1-1.14-2.68H505.6a3.33,3.33,0,0,1-1.14,2.68,5,5,0,0,0-1.53,4.38C503,174.88,506.92,181,506.92,181Z"/><rect class="cls-23" x="505.21" y="165.06" width="3.43" height="1.95" rx="0.39"/><path class="cls-25" d="M506.92,179.49s3.12-4.87,3.2-6.19a4,4,0,0,0-1.22-3.5l-.11-.09a4.77,4.77,0,0,1,.39,2.41c-.08,1.17-2.54,5.14-3.09,6C506.57,178.93,506.92,179.49,506.92,179.49Z"/><path class="cls-22" d="M522.32,284h0a.33.33,0,0,1,.32.32v20.93a.32.32,0,0,1-.32.32h0a.32.32,0,0,1-.32-.32V284.36A.33.33,0,0,1,522.32,284Z"/><path class="cls-7" d="M522.31,317.71s3.89-6.08,4-7.72a5,5,0,0,0-1.54-4.38,3.34,3.34,0,0,1-1.13-2.68H521a3.34,3.34,0,0,1-1.13,2.68,5,5,0,0,0-1.53,4.38C518.42,311.63,522.31,317.71,522.31,317.71Z"/><rect class="cls-23" x="520.59" y="301.82" width="3.44" height="1.95" rx="0.39"/><path class="cls-26" d="M522.31,316.24s3.11-4.87,3.2-6.18a4,4,0,0,0-1.23-3.51l-.1-.09a4.9,4.9,0,0,1,.39,2.42c-.08,1.16-2.54,5.13-3.09,6C522,315.68,522.31,316.24,522.31,316.24Z"/><polygon class="cls-27" points="410.16 314.38 400.35 380.99 402.99 380.99 415.3 317.84 429.54 317.84 443.78 317.84 456.09 380.99 458.73 380.99 448.92 314.38 448.12 313.63 429.54 313.63 410.96 313.63 410.16 314.38"/><path class="cls-28" d="M451.79,310.56H405.64a2.12,2.12,0,0,0-2.27,1.9h0a2.12,2.12,0,0,0,2.27,1.92h46.15a2.12,2.12,0,0,0,2.27-1.92h0A2.12,2.12,0,0,0,451.79,310.56Z"/><path class="cls-28" d="M424,141s-7.37-7.24,1.32-10.15c11.64-3.9,18.54-7,21.81-11,3.47-4.24,10.22-15.61,12.81-21.4.86-1.91,2-.45,2.92-.94,5.34-2.91-.53.74,8.33,2.1a1,1,0,0,1,.22,1.07,29.1,29.1,0,0,1-2,3.25s.62,3.1-.08,4.69c0,.09-13.48,19.62-15.39,21.79,0,0-9.25,7.28-21.1,15.49C429.65,148.14,427.8,142.81,424,141Z"/><path class="cls-29" d="M461.7,97.72c.88-.74,2.6-1.74,3-2.74a9.89,9.89,0,0,0,7,4.84,1,1,0,0,1,.22,1.07,27.4,27.4,0,0,1-2,3.24C464.85,103.83,461.7,97.72,461.7,97.72Z"/><path class="cls-9" d="M438.71,295.51a17.14,17.14,0,0,0,.09,3.06,7.5,7.5,0,0,0,1.27,2.65c.6.5-1.59,2.14-2.73,2.78a5.53,5.53,0,0,1-3.79.64c-2-.14-2.79-.27-3.06-.64s-1.65-2.24-1.65-2.24,1.88-5.47,2.47-7.35S438.71,295.51,438.71,295.51Z"/><path class="cls-10" d="M451.4,310.56H428.52c-1.78,0-1.46-2-1.46-2.75a.51.51,0,0,1,.45-.43s-.5-3.81,0-5,1.16-1.78,2.33-1.23,2.76,2.67,5.39,2.21,4-2.78,5.13-3,1.67.14,2.81,1.17,3.45,3,5.3,3.31,4.45.29,5.2,1.16a2.39,2.39,0,0,1-.41,3.06S453.67,310.56,451.4,310.56Z"/><path class="cls-30" d="M420.61,201.38c8,50.06,11.38,55.1,11.38,55.1l-3.28,42.82,11.49-.36,5.14-47.19s-3.42-52.89-4.61-58.88S420.61,201.38,420.61,201.38Z"/><path class="cls-9" d="M416.11,295.51a18.14,18.14,0,0,0,.09,3.06,7.71,7.71,0,0,0,1.28,2.65c.6.5-1.6,2.14-2.74,2.78a5.51,5.51,0,0,1-3.79.64c-2-.14-2.78-.27-3.05-.64s-1.65-2.24-1.65-2.24,1.87-5.47,2.47-7.35S416.11,295.51,416.11,295.51Z"/><path class="cls-10" d="M428.81,310.56H405.93c-1.78,0-1.46-2-1.46-2.75a.51.51,0,0,1,.45-.43s-.5-3.81,0-5,1.16-1.78,2.33-1.23,2.76,2.67,5.38,2.21,4-2.78,5.14-3,1.67.14,2.81,1.17,3.45,3,5.29,3.31,4.46.29,5.21,1.16.77,2.76.06,3.21C431.14,309.22,431.08,310.56,428.81,310.56Z"/><path class="cls-10" d="M426.47,108.8a19.5,19.5,0,0,0,1-6.69c-.16-3.81-6-6.63-8.54-6.09-1.47.32-15,6.08-15.12,6.14-2.61,2.4-1.41,9.36-1.41,9.36s-2.72,3.91-2.28,6.74,18.09,2.49,16.35,9.24-21.57,22.57-21.36,25.4,19.14-.22,20.45-5.87-1.74-11.1-1.74-11.1,6.49-6.11,3.55-16.57C417.4,119.36,427,121,426.47,108.8Z"/><path class="cls-8" d="M428.32,125.88s-2,0-2.34.65-.33,4.89-.33,5.7a3.08,3.08,0,0,1-2.66,2.24c-1.31.05-5.65.44-7-2.43a7.18,7.18,0,0,1,0-4.3c2.94-6.87-.38-10-.38-10a58.5,58.5,0,0,1,6.52,2.5C424.51,121.47,428.32,125.88,428.32,125.88Z"/><path class="cls-9" d="M421.35,101.89a7.09,7.09,0,0,1,2.78.77c1,.65,4,5.22,4.46,5.81s.21,1.42.38,2,4.46,3.75,4.89,4.3-.4,1.84-.4,1.84c-.11,4.32-.16,9.35-3.32,9.47a16.73,16.73,0,0,1-5.36-1.14,15,15,0,0,1-5.87-4,2.19,2.19,0,0,1-1.69.6c-4.09,0-4-8,.76-5,1.31.81,2.07.43,2.07.11s-.76-4.19-.76-4.19S424.56,107.33,421.35,101.89Z"/><path class="cls-28" d="M407.27,133.59a170.89,170.89,0,0,0-21.47,23.6c-4.43,6-6.45,15.82-12,26.05-.65,1.19-2,4.41-2,4.41a19,19,0,0,1,.27,3c-.11.54,1,1,1,1s3.5-4.39,5.67.07c0,0,1.59,3,2.19,2.53s1-2.32,1-2.32,2.51,1.39,3.81.25c.81-.7,9.4-26,9.74-26.25l10.33-6.48S415.87,143,407.27,133.59Z"/><path class="cls-29" d="M372.16,189.39l0,.06a13.05,13.05,0,0,0-.49,2.79c.11.55.28,1.24.28,1.24a9.85,9.85,0,0,1,8.18,2.26,1,1,0,0,0,1-.52,29.65,29.65,0,0,0,1.21-3.62h0c-4.07-3.79-10-2.21-10-2.21Z"/><path class="cls-31" d="M408.47,196.45c4,38.25,7.37,50.38,7.37,50.38l-8.53,49.43,11.51.9,10.81-47.5c-.72,3.13-.72-19.52.36-37.71.54-9.1,8.86-9.73,9.25-16.29C439.6,189.65,408.47,196.45,408.47,196.45Z"/><path class="cls-27" d="M425.67,129.37s1.07.09,1.39.69c2.09,3.82,6.51,3.9,8.42,15.11.21,1.23,7.63,43,7.58,43.23-.65,3.26-4.25,4.25-4.25,4.25a16.6,16.6,0,0,1-.32,5.33c-.66,2-28.39,2.93-32.63,1.63a2.2,2.2,0,0,1-1.42-1.85,10.38,10.38,0,0,1,.77-3.59s5.91-6.59,6.45-11.71-4.6-16.77-5.91-23c0,0,8.57-16.33,1.52-25.89,0,0,6.47-1.93,6.8-2.42a8.4,8.4,0,0,0,.68-2.5c.11-.71,1.22-.93,1.22-.93S417.49,132.67,425.67,129.37Z"/><path class="cls-32" d="M439.17,166c-11.79,4.5-24,3.61-30.45,3.29-1.19-3.64-2.42-7.2-3-9.81a44.82,44.82,0,0,0,3.6-10.24c12.36-.27,21.76-.86,26.41-2.5"/><path class="cls-29" d="M443.06,188.4a16.6,16.6,0,0,1-.32,5.33,12.32,12.32,0,0,1-8.27,6.11c-10,2-25.84.62-28.61-.23a2.2,2.2,0,0,1-1.42-1.85,10.38,10.38,0,0,1,.77-3.59s15.33,2.3,27.43.24C436.72,193.72,440.43,189.19,443.06,188.4Z"/><polygon class="cls-33" points="488.98 71.93 493.01 78.48 500.48 80.29 495.5 86.14 496.09 93.8 488.98 90.87 481.88 93.8 482.47 86.14 477.49 80.29 484.96 78.48 488.98 71.93"/><path class="cls-34" d="M603.62,129.5l-4.52-1,1-4.51a1.35,1.35,0,0,0-2.64-.6l-1,4.52-4.51-1a1.35,1.35,0,0,0-1.61,1,1.34,1.34,0,0,0,1,1.61l4.51,1-1,4.51a1.35,1.35,0,0,0,1,1.62,1.37,1.37,0,0,0,1.62-1l1-4.51,4.51,1a1.36,1.36,0,0,0,1.62-1A1.34,1.34,0,0,0,603.62,129.5Z"/><path class="cls-34" d="M385,127.83l-6.65-1.5,1.5-6.65a2,2,0,0,0-3.89-.88l-1.5,6.66-6.65-1.5a2,2,0,1,0-.88,3.89l6.65,1.5L372.1,136a2,2,0,0,0,3.89.88l1.5-6.66,6.65,1.5a2,2,0,0,0,.87-3.89Z"/><path class="cls-34" d="M366.08,257.8l-4.51-1,1-4.52a1.34,1.34,0,0,0-1-1.61,1.35,1.35,0,0,0-1.62,1l-1,4.51-4.52-1a1.35,1.35,0,0,0-.59,2.64l4.51,1-1,4.52a1.35,1.35,0,0,0,2.64.59l1-4.51,4.52,1a1.34,1.34,0,0,0,1.61-1A1.35,1.35,0,0,0,366.08,257.8Z"/><path class="cls-34" d="M612.38,309.4l-2.68-.6.6-2.67a.8.8,0,0,0-1.56-.36l-.6,2.68-2.67-.6a.8.8,0,0,0-.36,1.56l2.68.6-.6,2.67a.8.8,0,1,0,1.56.35l.6-2.67,2.67.6a.8.8,0,1,0,.36-1.56Z"/><circle class="cls-35" cx="391.24" cy="230.47" r="6.76"/><circle class="cls-35" cx="604.49" cy="199.87" r="10.64"/><path class="cls-1" d="M574.93,175a2.48,2.48,0,0,0,2-3.1c-1.34-4.91-4.62-14.74-9-12.54-4.53,2.28-.68,11.15,1.18,14.84a2.46,2.46,0,0,0,2.62,1.33Z"/></svg>