<?xml version="1.0" encoding="utf-8"?>
<!-- Generator: Adobe Illustrator 23.1.1, SVG Export Plug-In . SVG Version: 6.00 Build 0)  -->
<svg version="1.1" id="Layer_1" xmlns="http://www.w3.org/2000/svg" xmlns:xlink="http://www.w3.org/1999/xlink" x="0px" y="0px"
	 viewBox="0 0 960 380" style="enable-background:new 0 0 960 380;" xml:space="preserve">
<style type="text/css">
	.st0{opacity:0.2;}
	.st1{fill-rule:evenodd;clip-rule:evenodd;fill:#ABD7E5;}
	.st2{opacity:0.7;fill:#ABD7E6;}
	.st3{fill:#EAAAA9;}
	.st4{fill:#F7B2B1;}
	.st5{fill:#F7BCBB;}
	.st6{fill:#8B6697;}
	.st7{fill:#F5B01A;}
	.st8{fill:#B28DC0;}
	.st9{fill:#EB8882;}
	.st10{fill:#BDA4CE;}
	.st11{fill:#279D64;}
	.st12{fill:#57546E;}
	.st13{fill:#69695B;}
	.st14{fill:#828270;}
	.st15{fill:#413E56;}
	.st16{fill:#525845;}
	.st17{fill:#66C192;}
	.st18{fill:#32AC73;}
	.st19{fill:#302411;}
	.st20{fill:#E24F45;}
	.st21{fill:#CD3836;}
	.st22{opacity:0.4;fill:#ABD7E6;}
	.st23{opacity:0.7;}
	.st24{fill:#ABD6E5;}
	.st25{opacity:0.22;}
	.st26{fill:#B08BBF;}
	.st27{fill:#302514;}
	.st28{fill:#8B6696;}
	.st29{fill:#E79431;}
	.st30{fill:#30AB73;}
	.st31{fill:#259D69;}
	.st32{fill:#DD9827;}
	.st33{fill:#BB724C;}
	.st34{fill:#F1F1E9;}
	.st35{fill:#5AAF84;}
	.st36{fill:#2C2842;}
	.st37{fill:#D47839;}
	.st38{fill:#FCD24F;}
	.st39{fill:#F7C137;}
	.st40{opacity:0.22;fill:none;stroke:#ABD7E6;stroke-width:6;stroke-miterlimit:10;}
	.st41{opacity:0.22;fill:#ABD7E6;}
	.st42{fill:#F8B5B7;}
	.st43{fill:#FDD34F;}
	.st44{fill:#F8B6B7;}
	.st45{opacity:0.1;fill:#F7B2B1;enable-background:new    ;}
	.st46{fill:#ABD7E6;}
	.st47{fill:#FAE37A;}
	.st48{fill:#555945;}
	.st49{fill:#E8A8A8;}
	.st50{fill:#E79432;}
	.st51{fill:#385A65;}
	.st52{fill:#CA473D;}
	.st53{fill:#D1AFCF;}
	.st54{fill:#FAFBFB;}
	.st55{fill:#D6793B;}
	.st56{fill:#028045;}
	.st57{fill:#E5CFE3;}
	.st58{fill-rule:evenodd;clip-rule:evenodd;fill:#66C192;}
	.st59{fill-rule:evenodd;clip-rule:evenodd;fill:#32AC73;}
	.st60{fill-rule:evenodd;clip-rule:evenodd;fill:#F7B2B1;}
	.st61{fill-rule:evenodd;clip-rule:evenodd;fill:#F1F1E9;}
	.st62{fill:#F9C1B5;}
	.st63{fill-rule:evenodd;clip-rule:evenodd;fill:#302411;}
	.st64{fill-rule:evenodd;clip-rule:evenodd;fill:#1B75BA;}
	.st65{fill-rule:evenodd;clip-rule:evenodd;fill:#EB8882;}
	.st66{fill-rule:evenodd;clip-rule:evenodd;fill:#8B6697;}
	.st67{fill-rule:evenodd;clip-rule:evenodd;fill:#EAAAA9;}
	.st68{fill-rule:evenodd;clip-rule:evenodd;fill:#F9C1B5;}
	.st69{fill-rule:evenodd;clip-rule:evenodd;fill:#FDD34F;}
	.st70{opacity:0;fill:#ABD7E6;}
	.st71{opacity:0.5;fill:#ABD7E6;}
	.st72{fill:#FBD6D6;}
	.st73{fill-rule:evenodd;clip-rule:evenodd;fill:#FBD6D6;}
	.st74{fill-rule:evenodd;clip-rule:evenodd;fill:#B28DC0;}
	.st75{fill-rule:evenodd;clip-rule:evenodd;fill:#F7B11D;}
	.st76{fill-rule:evenodd;clip-rule:evenodd;fill:#ABD7E6;}
	.st77{fill-rule:evenodd;clip-rule:evenodd;fill:#D1AFCF;}
	.st78{fill-rule:evenodd;clip-rule:evenodd;fill:#3B2912;}
	.st79{fill-rule:evenodd;clip-rule:evenodd;fill:#828270;}
	.st80{fill-rule:evenodd;clip-rule:evenodd;fill:#4F3813;}
	.st81{fill-rule:evenodd;clip-rule:evenodd;fill:#B3B0A5;}
	.st82{fill-rule:evenodd;clip-rule:evenodd;fill:#E5CFE3;}
	.st83{fill-rule:evenodd;clip-rule:evenodd;fill:#E24F45;}
	.st84{clip-path:url(#SVGID_1_);}
	.st85{fill-rule:evenodd;clip-rule:evenodd;fill:#F4908E;}
	.st86{clip-path:url(#SVGID_2_);}
	.st87{clip-path:url(#SVGID_3_);}
	.st88{clip-path:url(#SVGID_4_);}
	.st89{fill-rule:evenodd;clip-rule:evenodd;fill:#9CC4D2;}
	.st90{clip-path:url(#SVGID_5_);}
	.st91{fill-rule:evenodd;clip-rule:evenodd;fill:#015468;}
	.st92{fill-rule:evenodd;clip-rule:evenodd;fill:#00B39A;}
	.st93{fill-rule:evenodd;clip-rule:evenodd;fill:#003D4A;}
	.st94{clip-path:url(#SVGID_6_);}
	.st95{fill-rule:evenodd;clip-rule:evenodd;fill:#028045;}
	.st96{clip-path:url(#SVGID_7_);}
	.st97{fill-rule:evenodd;clip-rule:evenodd;fill:#D88E67;}
	.st98{fill-rule:evenodd;clip-rule:evenodd;fill:#EE9B70;}
	.st99{clip-path:url(#SVGID_8_);}
	.st100{clip-path:url(#SVGID_9_);}
	.st101{clip-path:url(#SVGID_10_);}
	.st102{clip-path:url(#SVGID_11_);}
	.st103{fill-rule:evenodd;clip-rule:evenodd;fill:#C6C5C1;}
	.st104{fill-rule:evenodd;clip-rule:evenodd;fill:#F7B0A9;}
	.st105{clip-path:url(#SVGID_13_);}
	.st106{fill-rule:evenodd;clip-rule:evenodd;fill:#E79432;}
	.st107{clip-path:url(#SVGID_18_);}
	.st108{fill-rule:evenodd;clip-rule:evenodd;fill:#555945;}
	.st109{clip-path:url(#SVGID_19_);}
	.st110{fill:#EE9B70;}
	.st111{fill:none;stroke:#555945;stroke-width:4;stroke-miterlimit:10;}
	.st112{opacity:0.1;fill:none;stroke:#000000;stroke-miterlimit:10;enable-background:new    ;}
	.st113{opacity:0.1;enable-background:new    ;}
	.st114{fill:url(#SVGID_20_);}
	.st115{fill:#FFEDA5;}
	.st116{fill:#ECA8A8;}
	.st117{fill:#FFEDA5;stroke:#EB8882;stroke-miterlimit:10;}
	.st118{fill:#F7B11D;}
	.st119{opacity:0.53;fill:#ABD7E5;}
	.st120{fill:none;stroke:#2F1A43;stroke-width:1.525;stroke-linecap:round;stroke-linejoin:round;stroke-miterlimit:10;}
	.st121{fill:#FAC238;}
	.st122{fill:none;stroke:#828270;stroke-width:2;stroke-linecap:round;stroke-linejoin:round;stroke-miterlimit:10;}
	.st123{fill:none;stroke:#575640;stroke-width:2;stroke-linecap:round;stroke-linejoin:round;stroke-miterlimit:10;}
	.st124{fill:none;stroke:#B3B0A5;stroke-width:1.525;stroke-linecap:round;stroke-linejoin:round;stroke-miterlimit:10;}
	.st125{fill:#2F1A43;stroke:#8B6697;stroke-miterlimit:10;}
	.st126{fill:#2F1A43;stroke:#B28DC0;stroke-width:1.525;stroke-linecap:round;stroke-linejoin:round;stroke-miterlimit:10;}
	.st127{opacity:0.3;fill:#976662;}
	.st128{opacity:0.3;fill:#F7B11D;}
	.st129{fill:#1F190D;}
	.st130{fill:#C8A8CF;}
	.st131{fill:none;stroke:#302411;stroke-width:0.5;stroke-linecap:round;stroke-linejoin:round;stroke-miterlimit:10;}
	.st132{fill-rule:evenodd;clip-rule:evenodd;fill:#ABD8E6;}
	.st133{opacity:0.22;fill:none;stroke:#AAD8E7;stroke-width:6;stroke-miterlimit:10;}
	.st134{fill:#8C6698;}
	.st135{fill-rule:evenodd;clip-rule:evenodd;fill:#F8B3B2;}
	.st136{fill-rule:evenodd;clip-rule:evenodd;fill:#302100;}
	.st137{fill-rule:evenodd;clip-rule:evenodd;fill:#555845;}
	.st138{fill-rule:evenodd;clip-rule:evenodd;fill:#F2F1E9;}
	.st139{fill-rule:evenodd;clip-rule:evenodd;fill:#E34F45;}
	.st140{fill-rule:evenodd;clip-rule:evenodd;fill:#F0B7AA;}
	.st141{fill-rule:evenodd;clip-rule:evenodd;fill:#E79433;}
	.st142{fill-rule:evenodd;clip-rule:evenodd;fill:#FAB221;}
	.st143{fill-rule:evenodd;clip-rule:evenodd;fill:#33AD73;}
	.st144{fill-rule:evenodd;clip-rule:evenodd;fill:#F58C00;}
	.st145{fill:#302100;}
	.st146{opacity:0.5;}
	.st147{fill:#DDDDDD;}
	.st148{opacity:0.4;fill:#AAD8E7;}
	.st149{fill:#6C63FF;}
	.st150{fill:#FFFFFF;}
	.st151{opacity:0.5;fill:#AAD8E7;}
	.st152{opacity:0.22;fill:#AAD8E7;}
	.st153{fill:#EFE6EF;}
	.st154{fill:#B48FC1;}
	.st155{fill:#FED44F;}
	.st156{fill:#FFEEA7;}
	.st157{fill:none;stroke:#6C63FF;stroke-miterlimit:10;}
	.st158{fill:#FCC338;}
	.st159{fill:#65C192;}
	.st160{fill:#F8B3B2;}
	.st161{fill:#ECB4B6;}
	.st162{opacity:0.25;fill:#FFFFFF;enable-background:new    ;}
	.st163{fill:#EF9C70;}
	.st164{fill:#5E5A6B;}
	.st165{fill:#555845;}
	.st166{fill:#EBAAAA;}
	.st167{fill:#464353;}
	.st168{fill:#D7793C;}
	.st169{fill:#838370;}
	.st170{fill:#E34F45;}
	.st171{fill:#33AD73;}
	.st172{fill-rule:evenodd;clip-rule:evenodd;fill:#D7793C;}
	.st173{fill-rule:evenodd;clip-rule:evenodd;fill:#EF9C70;}
	.st174{fill-rule:evenodd;clip-rule:evenodd;fill:#EAA7A7;}
	.st175{fill-rule:evenodd;clip-rule:evenodd;fill:#D98B59;}
	.st176{fill-rule:evenodd;clip-rule:evenodd;fill:#211A4D;}
	.st177{fill-rule:evenodd;clip-rule:evenodd;fill:#271A4F;}
	.st178{fill-rule:evenodd;clip-rule:evenodd;fill:#B93E65;}
	.st179{fill-rule:evenodd;clip-rule:evenodd;fill:#2C7048;}
	.st180{fill-rule:evenodd;clip-rule:evenodd;fill:#3A8759;}
	.st181{fill-rule:evenodd;clip-rule:evenodd;fill:#4A996B;}
	.st182{fill-rule:evenodd;clip-rule:evenodd;fill:#54AF7E;}
	.st183{fill-rule:evenodd;clip-rule:evenodd;fill:#65C192;}
	.st184{fill-rule:evenodd;clip-rule:evenodd;fill:#FCE579;}
	.st185{fill-rule:evenodd;clip-rule:evenodd;fill:#F5E7C5;}
	.st186{fill-rule:evenodd;clip-rule:evenodd;fill:#C3463B;}
	.st187{fill-rule:evenodd;clip-rule:evenodd;fill:#D0493F;}
	.st188{fill-rule:evenodd;clip-rule:evenodd;fill:#B03A60;}
	.st189{fill-rule:evenodd;clip-rule:evenodd;fill:#D2B0D0;}
	.st190{fill-rule:evenodd;clip-rule:evenodd;fill:#8C6698;}
	.st191{fill-rule:evenodd;clip-rule:evenodd;fill:#364987;}
	.st192{fill-rule:evenodd;clip-rule:evenodd;fill:#40579F;}
	.st193{fill-rule:evenodd;clip-rule:evenodd;fill:#B48FC1;}
	.st194{fill-rule:evenodd;clip-rule:evenodd;fill:#FCC338;}
</style>
<g class="st0">
	<path class="st1" d="M399.83,142.93c0,0,43.78,43.42,85.9,21.54c42.12-21.88,27.3-78.15,21.36-89.61
		c-5.94-11.47-25.55-32.21-78.91-12.18C374.81,82.69,379.97,124.35,399.83,142.93z"/>
	<path class="st1" d="M518.34,93.47c0,0-2.52,17.08,9.4,22.94c11.93,5.86,22.15-6.82,23.75-10.06c1.6-3.24,3.02-11.11-10.35-19.82
		C527.77,77.83,519.23,85.91,518.34,93.47z"/>
</g>
<g class="st0">
	<path class="st1" d="M754.09,462.03c0,0,46.07-44.41,46.07-120.3c0-75.89-84.37-157.97-184.3-120.24
		c-72.41,27.34-88.67,84.22-192.82-9.52C169.48-16.26,108.98,330.15,194.43,462.03l4.04,7.29l540.06,0.63L754.09,462.03z"/>
</g>
<g id="XMLID_33_" class="st23">
	<path class="st24" d="M650.09,173.92l-4.71,4.04l-4.04-4.72c-0.65-0.76-1.8-0.85-2.56-0.2c-0.76,0.65-0.85,1.8-0.2,2.56l4.04,4.72
		l-4.71,4.04c-0.76,0.65-0.85,1.8-0.2,2.56c0.65,0.76,1.8,0.85,2.56,0.2l4.71-4.04l4.04,4.71c0.65,0.76,1.8,0.85,2.56,0.2
		c0.76-0.65,0.85-1.8,0.2-2.56l-4.04-4.71l4.71-4.04c0.76-0.65,0.85-1.8,0.2-2.56C651.99,173.36,650.85,173.27,650.09,173.92z"/>
</g>
<g id="XMLID_32_" class="st23">
	<path class="st24" d="M329.26,100.95l-3.98,5.55l-5.56-3.98c-0.9-0.64-2.14-0.44-2.79,0.46c-0.64,0.9-0.44,2.15,0.46,2.79
		l5.56,3.98l-3.98,5.55c-0.64,0.9-0.44,2.15,0.46,2.79c0.9,0.64,2.14,0.44,2.79-0.46l3.98-5.55l5.55,3.98
		c0.9,0.64,2.15,0.44,2.79-0.46c0.64-0.9,0.44-2.15-0.46-2.79l-5.55-3.98l3.98-5.55c0.64-0.9,0.44-2.15-0.46-2.79
		C331.15,99.84,329.9,100.05,329.26,100.95z"/>
</g>
<g class="st25">
	<path class="st24" d="M638.61,137.89c-6.44,0-11.68-5.24-11.68-11.68c0-6.44,5.24-11.68,11.68-11.68c6.44,0,11.68,5.24,11.68,11.68
		C650.29,132.66,645.05,137.89,638.61,137.89z M638.61,120.38c-3.22,0-5.83,2.62-5.83,5.83c0,3.22,2.62,5.84,5.83,5.84
		s5.84-2.62,5.84-5.84C644.45,123,641.83,120.38,638.61,120.38z"/>
</g>
<g class="st25">
	<path class="st24" d="M608.15,82.27c-9.99,0-18.12-8.13-18.12-18.12c0-9.99,8.13-18.12,18.12-18.12s18.12,8.13,18.12,18.12
		C626.27,74.14,618.14,82.27,608.15,82.27z M608.15,51.31c-7.08,0-12.83,5.76-12.83,12.83c0,7.08,5.76,12.83,12.83,12.83
		s12.83-5.76,12.83-12.83C620.98,57.07,615.22,51.31,608.15,51.31z"/>
</g>
<g>
	<path class="st26" d="M442.48,303.8c-4.27,15.53-11.72,31.41-15.99,46.94c-0.82,2.98,1.44,5.77-0.82,7.88
		c-2.26,2.1-4.56-1.79-6.46-4.22c-1.14-21.76-1.83-39.26,1.47-60.8"/>
</g>
<path class="st27" d="M429.41,348.68c0.73,1.46,0.42,3.21,0.03,4.8c-1.01,4.1-2.43,8.57-0.58,12.37c2.14,4.4,7.99,6.21,9.73,10.79
	c-6.64-0.89-13.11-3.08-18.94-6.39c-1.83-1.04-3.68-2.29-4.59-4.18c-1.09-2.26-0.61-4.92-0.11-7.38c0.62-3.07,1.25-6.13,1.87-9.2
	c0.67-3.3,0.21-5.23,3-5.33C421.91,344.09,428.55,346.53,429.41,348.68z"/>
<path class="st27" d="M438.4,378.03c-6.78-0.91-13.5-3.18-19.44-6.56c-1.95-1.11-4.08-2.54-5.17-4.79
	c-1.34-2.78-0.69-5.95-0.22-8.26l1.87-9.2c0.14-0.67,0.22-1.27,0.3-1.82c0.3-2.12,0.65-4.52,4.03-4.64
	c2.42-0.08,9.68,2.44,10.92,5.34c0.88,1.82,0.58,3.82,0.11,5.71l-0.29,1.14c-0.91,3.58-1.85,7.29-0.39,10.28
	c0.89,1.82,2.59,3.2,4.38,4.65c2.14,1.73,4.35,3.52,5.39,6.26c0.18,0.46,0.1,0.98-0.21,1.37c-0.27,0.34-0.67,0.53-1.1,0.53
	C438.53,378.04,438.46,378.03,438.4,378.03z M419.86,345.57c-0.99,0.03-1.03,0.03-1.34,2.23c-0.08,0.59-0.18,1.25-0.33,1.98
	l-1.87,9.2c-0.51,2.5-0.86,4.71,0,6.49c0.74,1.55,2.37,2.63,4.02,3.57c4.74,2.7,10.01,4.65,15.4,5.71c-0.85-0.94-1.91-1.8-3-2.68
	c-1.96-1.58-3.98-3.22-5.14-5.6c-1.91-3.91-0.79-8.31,0.19-12.2l0.28-1.12c0.34-1.39,0.59-2.81,0.08-3.84
	c-0.02-0.03-0.03-0.07-0.05-0.1c-0.51-1.27-6.2-3.63-8.17-3.63C419.92,345.57,419.89,345.57,419.86,345.57z M429.4,348.68h0.01
	H429.4z"/>
<g>
	<path class="st28" d="M437.78,318.89c-0.96,3.5-3.11,6.98-4.07,10.48c-4.94-2.26-9.12-4.6-15.39-8.06
		c0.44-6.72,0.47-13.75,1.34-20.42l13.53,6.69L437.78,318.89z"/>
</g>
<g>
	<path class="st29" d="M481.74,245.38c5.18,19.35,10.36,38.7,15.54,58.05c0.52,1.93,1.03,3.98,0.42,5.88
		c-0.72,2.26-2.85,3.73-4.87,4.98c-14.84,9.12-23.06,8.45-40.35,10.55l-10-36.3l29.25-43.15"/>
</g>
<g>
	<path class="st29" d="M452.48,326.24c0.06,0,0.11,0,0.17-0.01c2.88-0.35,5.51-0.62,7.96-0.88c12.24-1.27,20.32-2.11,32.95-9.87
		c2.19-1.34,4.59-3.01,5.47-5.74c0.75-2.35,0.11-4.75-0.4-6.67l-15.54-58.05c-0.2-0.75-0.97-1.19-1.72-0.99
		c-0.75,0.2-1.19,0.97-0.99,1.72l15.54,58.05c0.53,2,0.9,3.64,0.44,5.09c-0.58,1.82-2.51,3.13-4.27,4.21
		c-12.09,7.43-19.5,8.19-31.77,9.47c-2.12,0.22-4.37,0.45-6.8,0.74l-9.51-34.51l28.88-42.61c0.43-0.64,0.27-1.52-0.37-1.95
		c-0.64-0.43-1.52-0.27-1.95,0.37l-29.25,43.15c-0.23,0.34-0.3,0.76-0.19,1.16l10,36.3C451.3,325.82,451.86,326.24,452.48,326.24z"
		/>
</g>
<g>
	<path class="st26" d="M478.32,247.97c7.53,33.28,16.83,66.15,27.84,98.44c-1.37,3.18-1.41,9.15-4.36,7.33s-9.21-10.57-10.71-13.7
		c-7.43-15.47-14.86-30.93-22.29-46.4"/>
</g>
<path class="st27" d="M507.32,346.79c1.56,0.49,2.6,1.93,3.47,3.31c2.25,3.57,4.48,7.7,8.49,9.01c4.66,1.51,10.02-1.43,14.52,0.5
	c-5.26,4.16-11.32,7.29-17.75,9.18c-2.02,0.59-4.2,1.06-6.2,0.4c-2.38-0.79-3.96-2.98-5.38-5.05c-1.77-2.58-3.54-5.16-5.31-7.74
	c-1.91-2.77-3.62-3.78-1.75-5.86C498.81,349,505.18,345.92,507.32,346.79z"/>
<path class="st27" d="M509.41,370.53c-2.93-0.97-4.76-3.64-6.1-5.58l-5.31-7.73c-0.38-0.56-0.76-1.04-1.1-1.48
	c-1.31-1.69-2.8-3.61-0.54-6.12c1.57-1.74,8.48-5.27,11.43-4.15c1.93,0.63,3.15,2.24,4.19,3.89l0.62,0.99
	c1.95,3.15,3.96,6.4,7.12,7.43c1.93,0.63,4.1,0.36,6.39,0.08c2.73-0.34,5.55-0.69,8.25,0.47c0.46,0.19,0.77,0.61,0.84,1.11
	c0.07,0.49-0.13,0.98-0.52,1.29c-5.36,4.24-11.66,7.5-18.23,9.43c-1.38,0.41-2.92,0.78-4.48,0.78
	C511.11,370.92,510.25,370.81,509.41,370.53z M526.45,360.64c-2.5,0.31-5.08,0.63-7.6-0.19c-4.14-1.35-6.53-5.21-8.64-8.62
	l-0.61-0.98c-0.76-1.21-1.61-2.38-2.7-2.72c-0.04-0.01-0.07-0.02-0.11-0.04c-1.3-0.52-7.07,2-8.34,3.41
	c-0.66,0.73-0.69,0.76,0.67,2.51c0.37,0.47,0.78,1,1.2,1.61l5.31,7.74c1.44,2.1,2.79,3.89,4.67,4.51c1.63,0.54,3.54,0.12,5.36-0.41
	c5.24-1.54,10.3-3.97,14.81-7.1C529.21,360.3,527.84,360.47,526.45,360.64z M507.31,346.79h0.01H507.31z"/>
<g>
	<path class="st28" d="M478.84,250.19c2.97,12.98,6.22,25.9,9.72,38.74c-3.39,9.19-7.26,19-10.37,24.27
		c-3.13-6.52-6.26-13.03-9.39-19.55l9.1-43.66L478.84,250.19z"/>
</g>
<g>
	<path class="st27" d="M516.38,235.92c4.89-0.16,9.44-3.89,10.55-8.65c-4.42,0.53-8.84,1.06-13.27,1.6c0.48,2.6,0.96,5.21,1.44,7.81
		"/>
</g>
<g>
	<path class="st27" d="M513.72,236.94l-1.44-7.81c-0.07-0.38,0.02-0.77,0.25-1.09c0.23-0.31,0.58-0.52,0.96-0.56l13.27-1.6
		c0.45-0.05,0.91,0.11,1.21,0.46c0.31,0.34,0.43,0.81,0.32,1.26c-1.26,5.37-6.36,9.55-11.87,9.73c-0.02,0-0.05,0-0.08,0
		c-0.19,0.37-0.55,0.65-0.99,0.73c-0.09,0.02-0.17,0.02-0.26,0.02C514.44,238.09,513.85,237.61,513.72,236.94z M515.31,230.09
		l0.82,4.45c0.06-0.01,0.13-0.02,0.2-0.02c3.58-0.12,6.93-2.4,8.51-5.58L515.31,230.09z"/>
</g>
<g>
	<path class="st29" d="M485.48,215.63c5.29,5.33,12.28,8.8,19.56,10.63c2.63,0.66,5.4,1.16,7.62,2.72s3.7,4.6,2.52,7.05
		c-0.87,1.8-2.95,2.77-4.94,2.88c-2,0.11-3.96-0.49-5.87-1.08c-6.49-2.01-12.98-4.02-19.46-6.03l-5.75-8.14l-1.86-11.15
		L485.48,215.63z"/>
</g>
<g>
	<path class="st29" d="M503.96,239.16l-19.46-6.03c-0.3-0.09-0.55-0.28-0.73-0.53l-5.75-8.14c-0.12-0.17-0.2-0.37-0.24-0.58
		l-1.86-11.15c-0.08-0.5,0.11-1,0.5-1.32c0.39-0.32,0.92-0.41,1.39-0.22l8.18,3.13c0.19,0.07,0.35,0.18,0.49,0.32
		c4.77,4.8,11.3,8.35,18.91,10.25l1.12,0.27c2.38,0.57,4.85,1.16,6.97,2.66c2.62,1.84,4.55,5.55,2.98,8.81
		c-1.02,2.11-3.37,3.52-6.13,3.67c-0.19,0.01-0.37,0.02-0.56,0.02C507.7,240.32,505.72,239.71,503.96,239.16z M479.09,214.69
		l1.41,8.41l5.29,7.49l19.01,5.89c1.78,0.55,3.6,1.12,5.38,1.02c1.72-0.09,3.19-0.91,3.76-2.09c0.85-1.77-0.41-4.12-2.07-5.29
		c-1.69-1.18-3.79-1.69-6.01-2.22l-1.14-0.28c-7.99-2-14.89-5.73-20-10.78L479.09,214.69z"/>
</g>
<g>
	<g>
		
			<rect x="492.5" y="179.49" transform="matrix(0.9896 -0.1436 0.1436 0.9896 -23.2916 80.7874)" class="st30" width="111.27" height="44.58"/>
	</g>
	<g>
		<path class="st30" d="M495.43,232.95c-0.3-0.22-0.49-0.55-0.55-0.92l-6.4-44.12c-0.05-0.37,0.04-0.74,0.26-1.04
			c0.22-0.3,0.56-0.5,0.92-0.55l110.12-15.98c0.77-0.11,1.48,0.42,1.59,1.19l6.4,44.12c0.05,0.37-0.04,0.74-0.26,1.04
			c-0.22,0.3-0.55,0.5-0.92,0.55l-110.12,15.98c-0.07,0.01-0.13,0.01-0.2,0.01C495.97,233.23,495.68,233.14,495.43,232.95z
			 M598.8,173.33L491.46,188.9l6,41.34l107.34-15.57L598.8,173.33z"/>
	</g>
</g>
<g>
	<g>
		<path class="st31" d="M491.93,201.91c24.66,10.51,87.13,11.97,114.19,12.09l0.27,1.86l-110.12,15.98L491.93,201.91z"/>
	</g>
	<g>
		<path class="st31" d="M494.89,232.03l-4.34-29.92c-0.07-0.5,0.13-1,0.53-1.31c0.41-0.31,0.94-0.38,1.41-0.18
			c24.54,10.46,87.65,11.86,113.64,11.97c0.7,0,1.28,0.51,1.38,1.2l0.27,1.86c0.05,0.37-0.04,0.74-0.26,1.04
			c-0.22,0.3-0.55,0.5-0.92,0.55l-110.12,15.98c-0.07,0.01-0.14,0.01-0.2,0.01C495.59,233.23,494.99,232.73,494.89,232.03z
			 M493.67,204.11l3.79,26.12l102.59-14.88C572.09,215.05,518.16,213.23,493.67,204.11z"/>
	</g>
</g>
<g>
	<g>
		
			<rect x="544.22" y="177.7" transform="matrix(0.9896 -0.1436 0.1436 0.9896 -23.1463 80.8797)" class="st20" width="9.25" height="46.24"/>
	</g>
	<g>
		<path class="st20" d="M539.36,177.42l11.93-1.73l7.04,48.54l-11.93,1.73L539.36,177.42z M548.91,178.87l-6.37,0.92l6.24,42.98
			l6.37-0.92L548.91,178.87z"/>
	</g>
</g>
<g>
	<path class="st7" d="M396.5,284.77c14.19-47.38,28.45-94.96,49.33-139.79l36.21,1.17l0.71,13.62h0.23
		c2.89,12.07,4.07,24.55,3.48,36.94l-1.69,1.93l0.89,17.11c-2.69,23.35-6.2,46.6-10.52,69.7c-1.81,9.68-3.79,19.41-7.66,28.46
		c-1.38,3.22-3.09,6.46-5.92,8.52c-5.89,4.29-14.11,2.04-20.89-0.63c-12.44-4.91-24.54-10.7-36.16-17.32
		c-3.66-2.09-7.55-4.57-8.93-8.55C394.32,292.34,395.41,288.41,396.5,284.77z"/>
</g>
<g>
	<path class="st7" d="M440.15,323.1c-12.47-4.92-24.7-10.77-36.34-17.4c-3.82-2.17-8.02-4.86-9.56-9.31
		c-1.45-4.15-0.09-8.7,0.91-12.02l0,0c13.98-46.69,28.44-94.97,49.4-139.99c0.24-0.51,0.74-0.84,1.32-0.81l36.21,1.17
		c0.73,0.02,1.32,0.6,1.36,1.33l0.67,12.86c0.11,0.15,0.19,0.32,0.23,0.51c2.93,12.22,4.11,24.79,3.52,37.34
		c-0.02,0.32-0.14,0.62-0.34,0.86l-1.31,1.51l0.86,16.54c0,0.08,0,0.16-0.01,0.23c-2.68,23.29-6.23,46.77-10.54,69.8
		c-1.87,9.96-3.86,19.66-7.75,28.75c-1.37,3.2-3.2,6.78-6.38,9.1c-2.68,1.95-5.73,2.69-8.87,2.69
		C448.97,326.25,444.24,324.71,440.15,323.1z M483.37,198.71c-0.02-0.36,0.1-0.72,0.34-1l1.36-1.57c0.52-11.89-0.59-23.78-3.3-35.38
		c-0.25-0.24-0.41-0.57-0.43-0.94l-0.64-12.33l-33.99-1.09c-20.67,44.59-35,92.46-48.87,138.76v0c-1.15,3.83-2.01,7.25-0.95,10.29
		c1.23,3.53,4.78,5.78,8.3,7.79c11.53,6.57,23.63,12.36,35.98,17.23c6.24,2.46,14.1,4.78,19.55,0.8c2.64-1.92,4.24-5.09,5.46-7.94
		c3.78-8.83,5.74-18.36,7.57-28.16c4.29-22.92,7.82-46.3,10.5-69.49L483.37,198.71z"/>
</g>
<g>
	<path class="st32" d="M465.91,196.13c0.17,0.97,0.54,1.92,1.14,2.71c2.53,3.3,6.83,2.21,10.34,1.01
		c10.84-3.71,27.14,1.05,37.98-2.67c0.64-0.22-4.17-8.91-3.53-9.13"/>
	<path class="st32" d="M515.37,197.18c-12.49,11.22-27.94,19.12-44.35,22.67c-5.79,1.25-12.07,1.92-17.45-0.57
		c-7.27-3.37-10.96-11.68-12.15-19.6c-0.41-2.74-0.6-5.5-0.73-8.28c-0.42-8.64,6.52-20.05,15.88-17.8l0,0
		c4.73,0.69,7.52,16.7,9.33,22.54"/>
</g>
<g>
	<path class="st33" d="M461.81,120.85c3.19,4.6,7.41,8.47,12.25,11.27c1.98,1.14,4.42,2.11,6.48,1.14c1.92-0.91,2.76-3.15,3.26-5.21
		c1.69-6.87-0.05-16.37-1.77-23.23l-11.58-7.95l-17.65,10.83L461.81,120.85z"/>
</g>
<g>
	<path class="st33" d="M473.36,133.34c-5.01-2.89-9.41-6.93-12.7-11.69c0,0,0,0-0.01-0.01l-9.01-13.15
		c-0.22-0.32-0.29-0.71-0.22-1.09c0.08-0.38,0.31-0.7,0.64-0.9l17.65-10.83c0.47-0.29,1.07-0.27,1.53,0.04l11.58,7.95
		c0.28,0.19,0.49,0.48,0.57,0.82c2.56,10.24,3.16,18.28,1.77,23.91c-0.51,2.06-1.48,4.93-4.02,6.14c-0.76,0.36-1.57,0.54-2.45,0.54
		C477.12,135.07,475.36,134.5,473.36,133.34z M470.41,98.55l-15.62,9.58l8.17,11.93c3.06,4.41,7.14,8.16,11.8,10.85
		c2.26,1.3,3.96,1.66,5.18,1.08c1.47-0.7,2.13-2.77,2.5-4.27c1.25-5.09,0.7-12.5-1.64-22.04L470.41,98.55z M461.79,120.85h0.01
		H461.79z"/>
</g>
<path class="st34" d="M452.8,122.65c5,0.99,16.91,5.55,21.38,8s8.44,6.03,10.72,10.59c2.27,4.57,2.69,10.17,0.48,14.77
	c-0.39,0.82-0.91,1.64-1.72,2.05c-1.24,0.62-2.71,0.09-3.99-0.45c-9.81-4.12-19.63-8.23-29.44-12.35c-0.95-0.4-1.91-0.81-2.67-1.5
	c-0.76-0.69-1.27-1.74-1.06-2.74"/>
<path class="st34" d="M482.42,159.74c0.62,0,1.26-0.12,1.87-0.43c1.25-0.63,1.95-1.84,2.36-2.69c2.3-4.79,2.11-10.77-0.49-16.01
	c-2.25-4.51-6.15-8.38-11.3-11.2c-0.78-0.43-1.57-0.87-2.37-1.33c-3.95-2.24-8.04-4.55-12.39-5.41c-0.76-0.15-1.5,0.34-1.65,1.11
	c-0.15,0.76,0.35,1.5,1.11,1.65c3.9,0.77,7.79,2.97,11.55,5.1c0.81,0.46,1.62,0.92,2.41,1.35c3.24,1.77,7.63,4.94,10.14,9.99
	c2.19,4.4,2.37,9.59,0.48,13.54c-0.23,0.48-0.6,1.16-1.08,1.4c-0.7,0.35-1.82-0.07-2.81-0.49l-29.44-12.35
	c-0.83-0.35-1.68-0.7-2.26-1.24c-0.47-0.43-0.73-1-0.64-1.42c0.16-0.76-0.33-1.5-1.09-1.66c-0.76-0.16-1.5,0.33-1.66,1.09
	c-0.29,1.4,0.28,2.95,1.49,4.06c0.95,0.87,2.08,1.34,3.07,1.76l29.44,12.35C479.91,159.23,481.12,159.74,482.42,159.74z"/>
<g>
	<g>
		<path class="st20" d="M531.75,72.1c-3.5-3.87-6.21-11.81-5.88-14.17s5.31,2.86,5.33,5.73c0.14-1.12-0.06-2.25-0.14-3.37
			s0-2.32,0.62-3.27s1.93-1.51,2.92-0.97c0.73,0.39,1.09,1.22,1.35,2c0.68,2.01,1.05,4.12,1.09,6.25c0.05-2.33,1.29-4.6,3.21-5.91
			c0.68-0.46,1.66-0.78,2.26-0.23c0.37,0.34,0.45,0.88,0.48,1.38c0.12,1.79-0.05,3.59-0.5,5.33c0.56-0.89,1.13-1.81,1.96-2.45
			c0.83-0.64,1.99-0.97,2.96-0.55c1.4,0.61,1.79,2.46,1.47,3.95c-0.65,3.06-3.29,5.24-5.76,7.17"/>
	</g>
	<g>
		<path class="st20" d="M543.14,74.36c0.3,0,0.61-0.1,0.86-0.3c2.88-2.25,5.54-4.55,6.26-7.99c0.43-2-0.11-4.58-2.29-5.53
			c-1.08-0.47-2.37-0.39-3.53,0.2c0-0.44-0.01-0.88-0.04-1.32c-0.03-0.47-0.11-1.56-0.93-2.32c-1-0.92-2.57-0.87-4,0.1
			c-0.68,0.46-1.28,1.02-1.8,1.65c-0.12-0.43-0.25-0.85-0.39-1.27c-0.32-0.97-0.85-2.16-2.02-2.79c-1.56-0.83-3.69-0.19-4.76,1.44
			c-0.37,0.56-0.59,1.15-0.71,1.74c-1.07-1.16-2.26-1.99-3.23-2.05c-0.92-0.05-1.9,0.48-2.08,1.8c-0.42,3.05,2.64,11.33,6.23,15.31
			c0.52,0.58,1.41,0.62,1.98,0.1c0.57-0.52,0.62-1.41,0.1-1.98c-2.73-3.02-4.92-8.72-5.43-11.65c1.08,1.08,2.43,2.99,2.44,4.15
			c0,0.74,0.58,1.35,1.32,1.39c0.72,0.03,1.38-0.49,1.48-1.23c0.12-0.97,0.03-1.88-0.05-2.76c-0.03-0.29-0.06-0.59-0.08-0.88
			c-0.07-1.12,0.05-1.88,0.39-2.4c0.28-0.43,0.84-0.64,1.09-0.51c0.34,0.18,0.6,0.96,0.69,1.21c0.63,1.88,0.98,3.84,1.02,5.83
			c0.02,0.76,0.64,1.38,1.4,1.38c0.76,0,1.39-0.61,1.4-1.37c0.04-1.89,1.04-3.72,2.6-4.78c0.21-0.14,0.39-0.22,0.52-0.25
			c0.01,0.07,0.02,0.18,0.03,0.34c0.11,1.64-0.04,3.28-0.46,4.87c-0.18,0.67,0.17,1.37,0.8,1.65c0.64,0.27,1.38,0.04,1.75-0.55
			c0.48-0.78,0.99-1.59,1.63-2.08c0.51-0.4,1.14-0.55,1.54-0.38c0.66,0.29,0.85,1.45,0.66,2.37c-0.53,2.51-2.78,4.44-5.24,6.36
			c-0.61,0.48-0.72,1.36-0.24,1.97C542.31,74.17,542.72,74.36,543.14,74.36z"/>
	</g>
</g>
<g>
	<g>
		
			<rect x="515.9" y="70.43" transform="matrix(0.1369 -0.9906 0.9906 0.1369 372.0625 606.8186)" class="st17" width="36.68" height="38.96"/>
	</g>
	<g>
		<path class="st17" d="M510.85,106.61l5.41-39.12l41.38,5.72l-5.4,39.12L510.85,106.61z M518.65,70.66l-4.64,33.55l35.81,4.95
			l4.63-33.55L518.65,70.66z"/>
	</g>
</g>
<g>
	<g>
		<path class="st35" d="M515.9,80.29c8.14,9.11,20.08,21.61,31.04,29.89l-34.51-4.77L515.9,80.29z"/>
	</g>
	<g>
		<path class="st35" d="M510.85,106.61l4.08-29.52l2.02,2.26c8.06,9.01,19.96,21.48,30.84,29.71l4.3,3.25L510.85,106.61z
			 M514.02,104.21l28.02,3.87c-8.97-7.41-18.18-16.93-25.16-24.62L514.02,104.21z"/>
	</g>
</g>
<g>
	<g>
		
			<rect x="515.9" y="87.36" transform="matrix(0.1369 -0.9906 0.9906 0.1369 372.0625 606.8186)" class="st20" width="36.68" height="5.09"/>
	</g>
	<g>
		<path class="st20" d="M534.06,109.82l-5.04-0.7c-0.77-0.11-1.31-0.82-1.2-1.58l5.02-36.33c0.05-0.37,0.25-0.7,0.54-0.93
			c0.3-0.22,0.67-0.32,1.04-0.27l5.04,0.7c0.77,0.11,1.31,0.82,1.2,1.58l-5.02,36.33c-0.05,0.37-0.25,0.7-0.54,0.93
			c-0.25,0.19-0.54,0.28-0.85,0.28C534.19,109.83,534.12,109.83,534.06,109.82z M535.43,72.98l-4.64,33.55l2.26,0.31l4.64-33.55
			L535.43,72.98z"/>
	</g>
</g>
<g>
	<g>
		
			<rect x="507.2" y="111.11" transform="matrix(0.999 -0.0446 0.0446 0.999 -5.9368 24.4246)" class="st17" width="73.71" height="68.12"/>
	</g>
	<g>
		<path class="st17" d="M507.81,181.88c-0.27-0.25-0.44-0.6-0.46-0.97l-3.04-68.05c-0.03-0.77,0.56-1.43,1.34-1.47l73.64-3.29
			c0.39-0.01,0.74,0.12,1.01,0.37c0.27,0.25,0.44,0.6,0.46,0.97l3.04,68.05c0.03,0.77-0.56,1.43-1.34,1.47l-73.64,3.29
			c-0.02,0-0.04,0-0.06,0C508.41,182.25,508.07,182.12,507.81,181.88z M578.02,110.97l-70.83,3.16l2.91,65.25l70.83-3.16
			L578.02,110.97z"/>
	</g>
</g>
<g>
	<g>
		<path class="st35" d="M506.38,127.62c9.91,7.48,56.12,42,76.02,49.94l-73.64,3.29L506.38,127.62z"/>
	</g>
	<g>
		<path class="st35" d="M507.81,181.88c-0.27-0.25-0.44-0.6-0.46-0.97l-2.38-53.23c-0.02-0.54,0.27-1.05,0.75-1.31
			c0.48-0.25,1.07-0.21,1.5,0.12c9.16,6.92,55.88,41.85,75.69,49.75c0.61,0.24,0.97,0.89,0.86,1.54c-0.11,0.65-0.66,1.14-1.32,1.17
			l-73.64,3.29c-0.02,0-0.04,0-0.06,0C508.41,182.25,508.07,182.12,507.81,181.88z M507.91,130.53l2.18,48.85l66.41-2.97
			C556.03,166.16,519.88,139.5,507.91,130.53z"/>
	</g>
</g>
<g>
	<g>
		
			<rect x="540.32" y="111.12" transform="matrix(0.999 -0.0446 0.0446 0.999 -5.9373 24.4174)" class="st20" width="7.14" height="68.12"/>
	</g>
	<g>
		<path class="st20" d="M540.9,180.41c-0.27-0.25-0.44-0.6-0.46-0.97l-3.04-68.05c-0.03-0.77,0.56-1.43,1.34-1.47l7.14-0.32
			c0.39-0.01,0.74,0.12,1.01,0.37c0.27,0.25,0.44,0.6,0.46,0.97l3.04,68.05c0.03,0.77-0.56,1.43-1.34,1.47l-7.14,0.32
			c-0.02,0-0.04,0-0.06,0C541.5,180.77,541.16,180.64,540.9,180.41z M544.6,112.46l-4.33,0.19l2.91,65.25l4.33-0.19L544.6,112.46z"
			/>
	</g>
</g>
<g>
	<path class="st27" d="M519.68,179.58c1,2.25,0.94,4.95-0.15,7.16c1.36,1.02,3.25,0.96,4.9,0.56c1.65-0.39,3.26-1.07,4.96-1.15
		s3.6,0.67,4.19,2.27c0.58,1.56-0.36,3.36-1.73,4.31c-1.37,0.95-3.07,1.25-4.72,1.53c-2.81,0.47-5.63,0.95-8.44,1.42
		c-1.26,0.21-2.59,0.42-3.8,0C505.81,192.57,516.57,182.57,519.68,179.58z"/>
</g>
<g>
	<path class="st27" d="M514.45,197.02c-2.49-0.86-3.97-2.27-4.4-4.22c-0.95-4.32,3.72-9.49,8.41-13.99l0.26-0.25
		c0.33-0.32,0.8-0.45,1.24-0.37c0.45,0.09,0.83,0.39,1.01,0.81c0.98,2.21,1.09,4.75,0.36,7.04c0.9,0.23,1.96,0.08,2.79-0.11
		c0.51-0.12,1.01-0.27,1.51-0.42c1.17-0.35,2.39-0.71,3.71-0.76c2.15-0.09,4.71,0.86,5.57,3.18c0.85,2.3-0.48,4.73-2.24,5.95
		c-1.65,1.15-3.67,1.48-5.28,1.76l-8.44,1.42c-0.74,0.12-1.58,0.26-2.45,0.26c-0.53,0-1.08-0.05-1.63-0.19
		C514.72,197.1,514.59,197.06,514.45,197.02z M529.46,187.56c-0.98,0.04-1.98,0.34-3.03,0.65c-0.55,0.16-1.1,0.33-1.66,0.46
		c-2.48,0.59-4.58,0.31-6.07-0.81c-0.54-0.41-0.72-1.14-0.42-1.74c0.58-1.18,0.81-2.54,0.67-3.87c-2.64,2.63-6.77,7.19-6.16,9.94
		c0.08,0.34,0.31,1.39,2.57,2.16c0.9,0.31,2.08,0.11,3.11-0.06l8.44-1.42c1.48-0.25,3.01-0.51,4.15-1.3
		c0.86-0.6,1.55-1.76,1.21-2.67c-0.33-0.9-1.56-1.36-2.65-1.36C529.57,187.56,529.51,187.56,529.46,187.56z"/>
</g>
<path class="st27" d="M454.74,125.87c-17.28,6.39-8.47-17.88-7.78-21.48c0.8-4.17,4.01-7.57,7.75-9.58
	c5.28-2.84,13.01-7.27,22.03-3.94c2.27,0.84,9.09,4.03,7.37,9.31c-1.07,3.27-4.25,4.45-7.39,4.66c-2.47,0.17-13.7,0.05-15.44,1.81
	c-1.45,1.47-1.62,3.79-1.22,5.81c0.39,2.02,1.25,3.94,1.54,5.98c0.29,2.04-0.12,4.38-1.77,5.61
	C458.38,125.14,456.38,125.11,454.74,125.87"/>
<path class="st36" d="M433.97,217.89c1.12,0.23,1.57,1.9,0.74,2.69c-0.83,0.79-2.43,0.31-2.75-0.78c-0.36-1.25,0.73-2.44,1.85-3.1"
	/>
<path class="st36" d="M432.8,222.26c-1.07-0.29-1.91-1.08-2.2-2.07c-0.49-1.68,0.49-3.53,2.49-4.7c0.67-0.39,1.53-0.17,1.92,0.5
	c0.17,0.29,0.22,0.62,0.18,0.93c0.57,0.38,1.01,0.98,1.22,1.7c0.32,1.11,0.04,2.25-0.74,2.99c-0.54,0.51-1.25,0.78-2,0.78
	C433.39,222.38,433.09,222.34,432.8,222.26z M433.32,219.14c-0.03,0.1-0.04,0.19-0.02,0.27c0.01,0.02,0.07,0.08,0.19,0.13
	c0.13,0.05,0.24,0.03,0.23,0.05c0.03-0.07-0.01-0.26-0.07-0.33C433.54,219.23,433.43,219.19,433.32,219.14z"/>
<g>
	<path class="st37" d="M423.93,254.03c1.12,0.23,1.57,1.9,0.74,2.69c-0.83,0.79-2.43,0.31-2.75-0.78c-0.36-1.25,0.73-2.44,1.85-3.1"
		/>
	<path class="st37" d="M422.76,258.4c-1.07-0.29-1.91-1.08-2.2-2.07c-0.49-1.68,0.49-3.53,2.49-4.7c0.67-0.39,1.53-0.17,1.92,0.5
		c0.17,0.29,0.22,0.62,0.18,0.93c0.57,0.38,1.01,0.98,1.22,1.7c0.32,1.11,0.03,2.25-0.74,2.99c-0.54,0.51-1.25,0.78-2,0.78
		C423.34,258.52,423.05,258.48,422.76,258.4z M423.27,255.28c-0.03,0.1-0.04,0.19-0.02,0.27c0.01,0.02,0.07,0.08,0.19,0.13
		c0.13,0.05,0.24,0.03,0.23,0.05c0.03-0.07-0.01-0.26-0.07-0.33C423.49,255.37,423.38,255.33,423.27,255.28z"/>
</g>
<g>
	<path class="st37" d="M435.54,269.74c0.69,2.04,0.88,4.24,0.54,6.36c-1.59-1.64-2.34-4.06-1.94-6.32c0.34,0.08,0.68,0.16,1.01,0.24
		"/>
	<path class="st37" d="M436.08,277.51c0.14,0,0.28-0.02,0.42-0.07c0.51-0.16,0.88-0.59,0.96-1.12c0.38-2.35,0.17-4.78-0.59-7.03
		c-0.25-0.73-1.05-1.12-1.78-0.88c-0.08,0.03-0.16,0.06-0.23,0.1l-0.4-0.1c-0.38-0.09-0.77-0.02-1.1,0.19
		c-0.32,0.21-0.54,0.55-0.61,0.93c-0.47,2.69,0.42,5.58,2.32,7.54C435.34,277.36,435.71,277.51,436.08,277.51z"/>
</g>
<g>
	<path class="st37" d="M452.15,285.45c1.12,0.23,1.57,1.9,0.74,2.69s-2.43,0.31-2.75-0.78c-0.36-1.25,0.73-2.44,1.85-3.1"/>
	<path class="st37" d="M450.98,289.82c-1.07-0.29-1.91-1.08-2.19-2.07c-0.49-1.68,0.49-3.53,2.49-4.7c0.67-0.39,1.53-0.17,1.92,0.5
		c0.17,0.29,0.23,0.62,0.18,0.93c0.57,0.38,1.01,0.98,1.22,1.7c0.32,1.11,0.04,2.25-0.74,2.99c-0.54,0.51-1.25,0.78-2,0.78
		C451.57,289.93,451.27,289.9,450.98,289.82z M451.5,286.69c-0.03,0.1-0.04,0.19-0.02,0.27c0.01,0.02,0.07,0.08,0.19,0.13
		c0.13,0.05,0.24,0.03,0.23,0.05c0.03-0.07-0.01-0.26-0.07-0.33C451.72,286.79,451.6,286.75,451.5,286.69z"/>
</g>
<g>
	<path class="st37" d="M452.1,304.39c0.69,2.04,0.88,4.24,0.54,6.36c-1.59-1.64-2.34-4.07-1.94-6.32c0.34,0.08,0.68,0.16,1.01,0.24"
		/>
	<path class="st37" d="M452.63,312.16c0.14,0,0.28-0.02,0.42-0.07c0.51-0.16,0.88-0.59,0.96-1.12c0.38-2.35,0.17-4.78-0.59-7.03
		c-0.25-0.73-1.05-1.13-1.78-0.88c-0.08,0.03-0.16,0.06-0.23,0.1l-0.4-0.09c-0.37-0.09-0.77-0.02-1.1,0.19
		c-0.32,0.21-0.54,0.55-0.61,0.93c-0.47,2.69,0.42,5.58,2.32,7.54C451.89,312.01,452.26,312.16,452.63,312.16z"/>
</g>
<g>
	<path class="st37" d="M442.89,244.44c1.12,0.23,1.57,1.9,0.74,2.69c-0.83,0.79-2.43,0.31-2.75-0.78c-0.36-1.25,0.73-2.44,1.85-3.1"
		/>
	<path class="st37" d="M441.72,248.81c-1.07-0.29-1.91-1.08-2.2-2.07c-0.49-1.68,0.49-3.53,2.49-4.7c0.67-0.39,1.53-0.17,1.92,0.5
		c0.17,0.29,0.22,0.62,0.18,0.93c0.57,0.38,1.01,0.98,1.22,1.7c0.32,1.11,0.04,2.25-0.74,2.99c-0.54,0.51-1.25,0.78-2,0.78
		C442.31,248.93,442.01,248.89,441.72,248.81z M442.24,245.68c-0.03,0.1-0.04,0.19-0.02,0.27c0.01,0.02,0.07,0.08,0.19,0.13
		c0.14,0.05,0.24,0.03,0.23,0.05c0.03-0.07-0.01-0.26-0.07-0.33C442.46,245.78,442.34,245.74,442.24,245.68z"/>
</g>
<g>
	<path class="st37" d="M467.06,235.73c0.69,2.04,0.88,4.24,0.54,6.36c-1.59-1.64-2.34-4.06-1.94-6.32c0.34,0.08,0.68,0.16,1.01,0.24
		"/>
	<path class="st37" d="M467.59,243.5c0.14,0,0.28-0.02,0.42-0.07c0.51-0.16,0.88-0.59,0.96-1.12c0.38-2.35,0.17-4.78-0.59-7.03
		c-0.25-0.73-1.05-1.13-1.78-0.88c-0.08,0.03-0.16,0.06-0.23,0.1l-0.4-0.1c-0.37-0.09-0.77-0.02-1.1,0.19
		c-0.32,0.21-0.54,0.55-0.61,0.93c-0.47,2.69,0.42,5.58,2.32,7.54C466.85,243.35,467.22,243.5,467.59,243.5z"/>
</g>
<g>
	<path class="st37" d="M460.87,264.62c1.12,0.23,1.57,1.9,0.74,2.69s-2.43,0.31-2.75-0.78c-0.36-1.25,0.73-2.44,1.85-3.1"/>
	<path class="st37" d="M459.7,268.99c-1.07-0.29-1.91-1.08-2.19-2.07c-0.49-1.68,0.49-3.53,2.49-4.7c0.67-0.39,1.53-0.17,1.92,0.5
		c0.17,0.29,0.22,0.62,0.18,0.93c0.57,0.38,1.01,0.98,1.22,1.7c0.32,1.11,0.03,2.25-0.74,2.99c-0.54,0.51-1.25,0.78-2,0.78
		C460.29,269.11,459.99,269.07,459.7,268.99z M460.22,265.87c-0.03,0.1-0.04,0.19-0.02,0.27c0.01,0.02,0.07,0.08,0.19,0.13
		c0.13,0.05,0.24,0.03,0.23,0.05c0.03-0.07-0.01-0.26-0.07-0.33C460.43,265.96,460.32,265.92,460.22,265.87z"/>
</g>
<g>
	<path class="st37" d="M418.51,285.35c0.69,2.04,0.88,4.24,0.54,6.36c-1.59-1.64-2.34-4.06-1.94-6.32c0.34,0.08,0.68,0.16,1.01,0.24
		"/>
	<path class="st37" d="M419.05,293.11c0.14,0,0.28-0.02,0.42-0.07c0.51-0.16,0.88-0.59,0.96-1.12c0.38-2.35,0.17-4.78-0.59-7.03
		c-0.25-0.73-1.05-1.13-1.78-0.88c-0.08,0.03-0.16,0.06-0.23,0.1l-0.41-0.1c-0.38-0.09-0.77-0.02-1.09,0.2
		c-0.32,0.21-0.54,0.55-0.61,0.93c-0.47,2.69,0.42,5.58,2.32,7.54C418.31,292.96,418.68,293.11,419.05,293.11z"/>
</g>
<g>
	<path class="st37" d="M433.97,217.89c1.12,0.23,1.57,1.9,0.74,2.69c-0.83,0.79-2.43,0.31-2.75-0.78c-0.36-1.25,0.73-2.44,1.85-3.1"
		/>
	<path class="st37" d="M432.8,222.26c-1.07-0.29-1.91-1.08-2.2-2.07c-0.49-1.68,0.49-3.53,2.49-4.7c0.67-0.39,1.53-0.17,1.92,0.5
		c0.17,0.29,0.22,0.62,0.18,0.93c0.57,0.38,1.01,0.98,1.22,1.7c0.32,1.11,0.04,2.25-0.74,2.99c-0.54,0.51-1.25,0.78-2,0.78
		C433.39,222.38,433.09,222.34,432.8,222.26z M433.32,219.14c-0.03,0.1-0.04,0.19-0.02,0.27c0.01,0.02,0.07,0.08,0.19,0.13
		c0.13,0.05,0.24,0.03,0.23,0.05c0.03-0.07-0.01-0.26-0.07-0.33C433.54,219.23,433.43,219.19,433.32,219.14z"/>
</g>
<g>
	<path class="st37" d="M452.15,162.66c1.12,0.23,1.57,1.9,0.74,2.69c-0.83,0.79-2.43,0.31-2.75-0.78c-0.36-1.25,0.73-2.44,1.85-3.1"
		/>
	<path class="st37" d="M450.98,167.02c-1.07-0.29-1.91-1.08-2.19-2.07c-0.49-1.68,0.49-3.53,2.49-4.7c0.67-0.39,1.53-0.17,1.92,0.5
		c0.17,0.29,0.23,0.62,0.18,0.93c0.57,0.38,1.01,0.98,1.22,1.7c0.32,1.11,0.04,2.26-0.74,2.99c-0.54,0.51-1.25,0.78-2,0.78
		C451.57,167.14,451.27,167.1,450.98,167.02z M451.5,163.9c-0.03,0.1-0.04,0.19-0.02,0.27c0.01,0.02,0.07,0.08,0.19,0.13
		c0.13,0.05,0.24,0.03,0.23,0.05c0.03-0.07-0.01-0.26-0.07-0.33C451.72,164,451.6,163.96,451.5,163.9z"/>
</g>
<path class="st38" d="M457.39,62.38c-2.49,3.7-3.04,12.03-3.04,12.03c3.65,1,3.09,5.58,0.41,7.32c-2.04,1.32-5.72,0.12-6.56-2.21
	c-0.61-1.69,0.06-3.21,1.05-4.59c0,0-11.07-1.57-12.92-2.82c0,0-0.87-0.13-0.22,1.18c0.65,1.31,12.19,22.06,12.19,22.06l13.8-1.95
	l3.22-0.55l13.66-2.78c0,0,3.92-23.41,4.1-24.86c0.18-1.45-0.6-1.03-0.6-1.03c-1.33,1.79-11.23,6.98-11.23,6.98
	c1.39,0.97,2.54,2.17,2.53,3.97c-0.01,2.47-3.08,4.84-5.44,4.27c-3.11-0.74-5.17-4.86-2.07-7.03c0,0-3.31-7.67-6.9-10.32l-1.14-0.73
	L457.39,62.38z"/>
<path class="st39" d="M480.28,90.87c0.14,0.82-0.41,1.6-1.23,1.74l-30.08,5.19c-0.82,0.14-1.6-0.41-1.74-1.23l0,0
	c-0.14-0.82,0.41-1.6,1.23-1.74l30.08-5.19C479.36,89.5,480.13,90.05,480.28,90.87L480.28,90.87z"/>
<path id="XMLID_31_" class="st22" d="M387.81,48c-1.74,0-3.35,0.51-4.75,1.33c-0.92-7.73-7.49-13.73-15.47-13.73
	c-6.38,0-11.86,3.84-14.27,9.33c-0.94-0.26-1.91-0.44-2.93-0.44c-6.15,0-11.14,4.99-11.14,11.14c0,6.15,4.99,11.14,11.14,11.14
	h37.42c5.19,0,9.39-4.2,9.39-9.39C397.2,52.2,393,48,387.81,48z"/>
</svg>
