<svg id="Layer_1" data-name="Layer 1" xmlns="http://www.w3.org/2000/svg" viewBox="0 0 960 380"><defs><style>.cls-1{opacity:0.2;}.cls-2{fill:#abd7e5;fill-rule:evenodd;}.cls-23,.cls-25,.cls-3{fill:#abd7e6;}.cls-3{opacity:0.7;}.cls-4{fill:#eaaaa9;}.cls-5{fill:#f7b2b1;}.cls-6{fill:#f7bcbb;}.cls-7{fill:#8b6697;}.cls-8{fill:#f5b01a;}.cls-9{fill:#b28dc0;}.cls-10{fill:#eb8882;}.cls-11{fill:#bda4ce;}.cls-12{fill:#279d64;}.cls-13{fill:#57546e;}.cls-14{fill:#69695b;}.cls-15{fill:#828270;}.cls-16{fill:#413e56;}.cls-17{fill:#525845;}.cls-18{fill:#66c192;}.cls-19{fill:#32ac73;}.cls-20{fill:#302411;}.cls-21{fill:#e24f45;}.cls-22{fill:#cd3836;}.cls-23{opacity:0.4;}.cls-24{fill:none;stroke:#abd7e6;stroke-miterlimit:10;stroke-width:6px;}.cls-24,.cls-25{opacity:0.22;}</style></defs><title>app-ilustraciones</title><g class="cls-1"><path class="cls-2" d="M951.56,625.22s71.87-76,64.32-197.77-155.41-244.83-317.12-174c-117.18,51.3-138.45,144.23-320.22,4.5C-64-82.27-129.76,479.79,24.86,682.65l7.42,11.29,894.31-54.41Z"/></g><g class="cls-1"><path class="cls-2" d="M437,146.21s38.86,38.54,76.24,19.11,24.23-69.36,19-79.54-22.67-28.59-70-10.81S419.33,129.72,437,146.21Z"/><path class="cls-2" d="M542.15,102.32s-2.24,15.16,8.35,20.36,19.66-6.05,21.08-8.93,2.68-9.86-9.19-17.59S542.94,95.6,542.15,102.32Z"/></g><path class="cls-3" d="M632.7,213.83l-6.38-1.43,1.44-6.38a1.91,1.91,0,0,0-3.73-.84l-1.44,6.38-6.38-1.43a1.9,1.9,0,0,0-2.28,1.44,1.92,1.92,0,0,0,1.44,2.29l6.38,1.43-1.43,6.38a1.91,1.91,0,0,0,3.73.84l1.43-6.38,6.38,1.43a1.91,1.91,0,0,0,.84-3.73Z"/><path class="cls-3" d="M360,43.36l-.6,7.77-7.77-.6a2.28,2.28,0,0,0-.35,4.55l7.77.59-.59,7.77a2.28,2.28,0,1,0,4.54.35l.6-7.77,7.77.6a2.28,2.28,0,0,0,.35-4.54l-7.77-.6.6-7.77a2.28,2.28,0,1,0-4.55-.35Z"/><path class="cls-4" d="M420.66,167.74s5.92,14.37-3,17.75c0,0,12.68,5.49,15.64,4.22s5.07-4.22,5.07-5.07-3-1.27-3-1.27-5.49.43-1.26-13.52Z"/><circle class="cls-5" cx="427.42" cy="164.78" r="10.57"/><path class="cls-5" d="M438,183s2.54-5.07,11.83-7.61,27.47-33,27.47-33-.84-18.18,3.39-12.68.84,16.48.84,16.48L470.62,165a41.46,41.46,0,0,1-7.56,9.48c-6.74,6.27-18.79,17.33-20,17.33C441.37,191.83,438,183,438,183Z"/><path class="cls-6" d="M423.2,255.22s3,35.93,2.11,39.31-3.38,10.14.85,30-.85,18.59-.85,18.59l13.52,5.92s-4.64-22.82-3.8-29.16.42-19.44,3-28.32,3-33.81,3-33.81Z"/><path class="cls-4" d="M423.2,255.22s3,35.93,2.11,39.31-3.38,10.14.85,30-.85,18.59-.85,18.59l13.52,5.92s-4.64-22.82-3.8-29.16.42-19.44,3-28.32,3-33.81,3-33.81Z"/><path class="cls-5" d="M413.05,251s-7.18,16.48-10.14,24.93c-1.55,4.44-6.25,5.85-10.36,6.19a35.37,35.37,0,0,0-14.49,4.36c-5.91,3.32-14,7.09-19.1,6.36-8.88-1.27-1.7,12.68-1.7,12.68s13.11-8,25.36-8.88,25.36-2.11,31.28-9.72,20.29-31.7,20.29-31.7Z"/><path class="cls-7" d="M357.69,303.4s-4.23-2.95-.85-5.91a20.48,20.48,0,0,0,4.65-5.5s-5.92-6.34-8-3-11.41,18.6-9.3,23.25,4.23,5.92,6.77.84,8.93-9.06,8.93-9.06Z"/><path class="cls-8" d="M436.3,185.06s-1.41,2.81-14.46.11a8,8,0,0,0-8.84,4.12c-1.64,3.28-1.85,8,3.86,14,0,0,10.14,11.41,5.07,16.06s24.09-3,24.09-3-3.8-2.54-.42-10.14c2.65-6,2.44-9.35.38-11.95a13.09,13.09,0,0,1-2.47-5.52c-.57-2.83-2-6.37-5.52-6.62,0,0-3.7-.22-4,.73S437.14,184.64,436.3,185.06Z"/><path class="cls-5" d="M420.85,194c-.09-.6-.2-1.19-.27-1.79-.26-2-1.23-7-4.58-6.13-4.21,1.07-8.86,11.63-8.86,11.63s-3.81,11.84-9.3,14.8-20.71,18.17-20.71,18.17-12.68,3.38-8,6.76,10.56-2.11,10.56-2.11l14.95-9A42.79,42.79,0,0,0,407.8,214c3.11-4.51,7-9.72,9.48-11.44a8.17,8.17,0,0,0,3.2-4.18A9.81,9.81,0,0,0,420.85,194Z"/><path class="cls-9" d="M424.46,218.45S405,215.92,394,229s-19,9.3-18.17,11.41,41.42,27.05,65.09,24.09c14.41-1.8,22.08-3.45,25.88-4.46a7.34,7.34,0,0,0,4.07-2.73,7.64,7.64,0,0,1,2.06-1.87,3.66,3.66,0,0,0,1.05-5.07l-.06-.09c-6.71-9.7-24.9-35.39-30-36.07C437.57,213.38,424.46,218.45,424.46,218.45Z"/><ellipse class="cls-10" cx="420.45" cy="162.45" rx="9.3" ry="13.1"/><ellipse class="cls-10" cx="413.69" cy="158.23" rx="9.3" ry="13.1"/><ellipse class="cls-10" cx="404.39" cy="148.72" rx="4.65" ry="6.55"/><ellipse class="cls-10" cx="427.63" cy="153.37" rx="6.76" ry="4.86"/><path class="cls-5" d="M562.59,110.06a48.37,48.37,0,0,1,1.76-6.58c.77-2.09,1.73-3.87,2.81-3.87,2.61,0-9.14-11.09-9.14-11.09s-.74,1.37-2,3.21a47.4,47.4,0,0,1-2.92,4,21.9,21.9,0,0,1-4.91,4.55C543,103.53,562.59,110.06,562.59,110.06Z"/><path class="cls-5" d="M597.16,153.33s26.18,16.54,18.11,19.26-21.42-16.72-21.42-16.72Z"/><path class="cls-11" d="M562.05,115.76s12.54,9.14,16.2,16.1S601,154.27,601,154.27s-3.93,7.77-5.83,7.3-41.1-29.63-45.23-32S552.07,112.63,562.05,115.76Z"/><path class="cls-12" d="M562.05,115.76s12.54,9.14,16.2,16.1S601,154.27,601,154.27s-3.93,7.77-5.83,7.3-41.1-29.63-45.23-32S552.07,112.63,562.05,115.76Z"/><path class="cls-5" d="M599.15,132.25s29.37,9.79,22.19,14.36-24.8-11.09-24.8-11.09Z"/><path class="cls-13" d="M580.22,266.07s12.4-5.22,11.09,2.61-7.18,15-7.18,18.93S573,300,571.08,298.06s3.26-9.79,2-14.36-2.62-15-2.62-15Z"/><path class="cls-14" d="M580.22,266.07s12.4-5.22,11.09,2.61-7.18,15-7.18,18.93S573,300,571.08,298.06s3.26-9.79,2-14.36-2.62-15-2.62-15Z"/><path class="cls-15" d="M576.3,272s12.4-5.22,11.1,2.61-7.18,15-7.18,18.93-11.1,12.4-13.06,10.44,3.26-9.79,2-14.36-2.61-15-2.61-15Z"/><path class="cls-16" d="M547.58,224.29s38.51,36.56,37.21,39.82-9.8,10.45-9.8,10.45S545.62,236,547.58,224.29Z"/><path class="cls-17" d="M547.58,224.29s38.51,36.56,37.21,39.82-9.8,10.45-9.8,10.45S545.62,236,547.58,224.29Z"/><path class="cls-17" d="M538.44,158.36s9.79,9.8,7.18,28.73,2,37.2,7.18,43.08S579.56,270,579.56,270s-9.14,15-16.32,7.18-28.72-39.82-28.72-39.82-19.58-38.51-21.54-49-2.61-26.76,2.61-30S538.44,158.36,538.44,158.36Z"/><circle class="cls-5" cx="568.47" cy="90.47" r="12.4"/><path class="cls-18" d="M545.62,99.61s18.93,2,22.85,10.45-24.16,49.61-26.12,50.26S513,164.24,513,164.24s1.3-41.78,26.76-57.45C539.74,106.79,545.62,104.18,545.62,99.61Z"/><path class="cls-19" d="M556.06,104.18s14.36,5.88,19.59,11.75,27.41,16.32,27.41,16.32-1.95,8.49-3.91,8.49-47-18.93-51.57-20.24S545.62,103.53,556.06,104.18Z"/><path class="cls-20" d="M567.49,92.11s3.26-3.27-3.27-5.88c0,0,6.53-2.61,7.84-6.53s5.87-10.44,9.79,0,11.1,24.16-12.4,24.16c0,0-5.88,1.3-5.88-3.92A9.77,9.77,0,0,1,567.49,92.11Z"/><path class="cls-21" d="M436.89,73.29c-2.84,1-5.55,4.14-5.21,7-2-2.15-6.87-1.81-9.48-.33-6.9,3.92-5.36,13.75.36,18.23a36.45,36.45,0,0,0,10.39,5.4c1.18.42,3,.94,4.81,1.44a7.38,7.38,0,0,0,8.58-3.91c.82-1.69,1.61-3.41,2.07-4.57a36.17,36.17,0,0,0,2.75-11.39C451.54,77.94,444.37,70.65,436.89,73.29Z"/><path class="cls-22" d="M417.63,88.6a13.24,13.24,0,0,0,4.93,9.63,36.45,36.45,0,0,0,10.39,5.4c1.18.42,3,.94,4.81,1.44a7.38,7.38,0,0,0,8.58-3.91c.82-1.69,1.61-3.41,2.07-4.57l.12-.31a20.55,20.55,0,0,1-30.9-7.68Z"/><path class="cls-21" d="M529.94,38.58c-4.73-1.69-11.55-.47-14.18,3.65-.28-4.88-7-9.59-11.94-10.42-13.08-2.21-21.45,12.16-18.76,24a60.63,60.63,0,0,0,7.79,18c1.08,1.78,2.89,4.38,4.71,6.93a12.32,12.32,0,0,0,15.25,4c2.83-1.33,5.68-2.72,7.5-3.74a60.64,60.64,0,0,0,15.58-11.87C544,60.07,542.43,43.05,529.94,38.58Z"/><path class="cls-22" d="M488.82,38.13a22.18,22.18,0,0,0-3.76,17.68,60.63,60.63,0,0,0,7.79,18c1.08,1.78,2.89,4.38,4.71,6.93a12.32,12.32,0,0,0,15.25,4c2.83-1.33,5.68-2.72,7.5-3.74l.48-.27a34.35,34.35,0,0,1-32-42.55Z"/><path class="cls-21" d="M446,17.57c-3.49.73-7.17,4-7.24,7.45-2-2.85-7.77-3.22-11.08-1.89-8.73,3.49-8.49,15.29-2.48,21.46a43,43,0,0,0,11.35,8c1.32.68,3.37,1.59,5.41,2.46a8.74,8.74,0,0,0,10.71-3.23c1.23-1.85,2.44-3.74,3.16-5a43.06,43.06,0,0,0,5-12.95C462.43,25.38,455.17,15.67,446,17.57Z"/><path class="cls-22" d="M420.9,32.5a15.69,15.69,0,0,0,4.26,12.09,43,43,0,0,0,11.35,8c1.32.68,3.37,1.59,5.41,2.46a8.74,8.74,0,0,0,10.71-3.23c1.23-1.85,2.44-3.74,3.16-5,.06-.12.13-.23.19-.34a24.37,24.37,0,0,1-35.08-14Z"/><path class="cls-23" d="M708.62,41.63a7.36,7.36,0,0,0-3.78,1.06,12.4,12.4,0,0,0-23.67-3.5,9,9,0,0,0-2.33-.35,8.87,8.87,0,1,0,0,17.73h29.78a7.47,7.47,0,1,0,0-14.94Z"/><path class="cls-23" d="M363.44,164.55a9.27,9.27,0,0,0-4.75,1.33,15.58,15.58,0,0,0-29.74-4.4A10.93,10.93,0,0,0,326,161a11.14,11.14,0,1,0,0,22.28h37.42a9.39,9.39,0,1,0,0-18.77Z"/><path class="cls-23" d="M648.08,96.33a8.68,8.68,0,0,0-4.4,1.23,14.44,14.44,0,0,0-27.57-4.07,10.16,10.16,0,0,0-2.72-.41,10.33,10.33,0,0,0,0,20.66h34.69a8.71,8.71,0,1,0,0-17.41Z"/><path class="cls-7" d="M438.31,344.5c-1.05.73-3.74,1.47-8.77-3.88,0,0-3-4.22-5.5,0s-.84,4.65.85,6.76,14.68,15.9,20.15,15.34a2.66,2.66,0,0,0,.56-.12c5.07-1.69-2.12-7.18-2.12-7.18s-4.71-7.25-4.73-10.67a.28.28,0,0,0-.28-.29A.23.23,0,0,0,438.31,344.5Z"/><circle class="cls-24" cx="688.68" cy="178.82" r="15.3"/><circle class="cls-24" cx="502.68" cy="274.56" r="14.32"/><circle class="cls-25" cx="382.29" cy="108.42" r="14.22"/></svg>