<svg id="Layer_1" data-name="Layer 1" xmlns="http://www.w3.org/2000/svg" viewBox="0 0 960 380"><defs><style>.cls-1{opacity:0.2;}.cls-2{fill:#abd7e5;}.cls-10,.cls-11,.cls-12,.cls-13,.cls-14,.cls-15,.cls-16,.cls-17,.cls-18,.cls-19,.cls-2,.cls-20,.cls-21,.cls-8,.cls-9{fill-rule:evenodd;}.cls-14,.cls-3,.cls-4{fill:#abd7e6;}.cls-3{opacity:0.5;}.cls-4{opacity:0.4;}.cls-5{fill:none;stroke:#abd7e6;stroke-miterlimit:10;stroke-width:6px;opacity:0.22;}.cls-6,.cls-8{fill:#fbd6d6;}.cls-10,.cls-7{fill:#f7b2b1;}.cls-9{fill:#eaaaa9;}.cls-11{fill:#302411;}.cls-12{fill:#b28dc0;}.cls-13{fill:#f7b11d;}.cls-15{fill:#d1afcf;}.cls-16{fill:#3b2912;}.cls-17{fill:#828270;}.cls-18{fill:#4f3813;}.cls-19{fill:#b3b0a5;}.cls-20{fill:#e5cfe3;}.cls-21{fill:#8b6697;}</style></defs><title>app-ilustraciones</title><g class="cls-1"><path class="cls-2" d="M732,442.53s40-37.39,40-101.29S698.7,208.23,611.88,240c-62.91,23-77,70.91-167.53-8C224,39.81,171.46,331.48,245.71,442.53l3.51,6.14,469.24.53Z"/></g><path class="cls-3" d="M327.52,277.84l6.8,7.46-7.46,6.81a3,3,0,1,0,4,4.36l7.46-6.8,6.81,7.46a3,3,0,1,0,4.36-4l-6.8-7.46,7.46-6.81a3,3,0,1,0-4-4.36l-7.46,6.8-6.81-7.46a3,3,0,1,0-4.36,4Z"/><path class="cls-3" d="M624.72,103.78l-3.31,7.5-7.5-3.31a2.4,2.4,0,0,0-1.94,4.39l7.51,3.31-3.31,7.5a2.39,2.39,0,1,0,4.38,1.93l3.31-7.5,7.5,3.31a2.4,2.4,0,0,0,1.94-4.38l-7.5-3.31,3.31-7.5a2.4,2.4,0,0,0-4.39-1.94Z"/><path class="cls-3" d="M672.6,99.34l-2,4.44-4.44-2a1.42,1.42,0,0,0-1.14,2.6l4.44,2-2,4.44a1.42,1.42,0,0,0,2.6,1.15l2-4.44,4.44,2a1.42,1.42,0,1,0,1.14-2.6l-4.44-2,2-4.44a1.42,1.42,0,1,0-2.59-1.15Z"/><path class="cls-4" d="M663.68,172a9.07,9.07,0,0,0-4.64,1.3A15.23,15.23,0,0,0,630,169a10.87,10.87,0,1,0-2.86,21.36h36.58a9.18,9.18,0,1,0,0-18.36Z"/><path class="cls-4" d="M395.68,99.37a8.64,8.64,0,0,0-4.42,1.24,14.51,14.51,0,0,0-27.7-4.09,10.24,10.24,0,0,0-2.73-.41,10.38,10.38,0,0,0,0,20.75h34.85a8.75,8.75,0,0,0,0-17.49Z"/><circle class="cls-5" cx="568.19" cy="86.37" r="12.34"/><path class="cls-6" d="M593.27,295.82s13.89,6.88,15.05,2-11.92-7.74-11.92-7.74Z"/><circle class="cls-7" cx="558.11" cy="153.41" r="20.18"/><path class="cls-8" d="M517.75,261.23c6.81,3.07,5.91,1.68,8.12,8.81l-3.59,4.72s-5.92-2.9-6.11-3.27-5-7.43-5-7.43l1.19-3Z"/><path class="cls-9" d="M493.46,211.24c4.46,6.37,2.58,3.55,5.56,7,7.12,8.36,14.63,10.28,30,21.45l7.16,5.19,10.06-5.85a71.5,71.5,0,0,1-11.87-12c-5-6.23-8.66-13.32-14.24-19.42-4.45-4.87-2.52-3.08-13.95-11.76C502.23,191,483.52,199.31,493.46,211.24Z"/><path class="cls-9" d="M565,252.71l-4.77-7.65c-.45-.73-12.27,1.92-9.24,4.26l4.5,3.47,2.53,7.94c.29.89,5.2,4.08,6.14,4h0a1.72,1.72,0,0,0,1.65-1.77C565.71,261.09,566,254.28,565,252.71Z"/><path class="cls-9" d="M551.07,258.36l2.32-3.32c.37-.52-2.84-7.19,4.63-5a.64.64,0,0,0,.31,0l5.55,4.82.37,9.9a2,2,0,0,0,3.93-.15l-.37-10.11a1.55,1.55,0,0,0,0-.31,3,3,0,0,0-.52-1.45c-1-1.62-4.89-7.87-6.65-9.47a23.43,23.43,0,0,0-4.76-3.35c-3.09-1.46-7-1-10.21-1.08l-9.3-7.26-3.72,9.12,4.16,6.28c.74,1.11.63,4.12,2.21,5.25l8.36,5.43C548.43,258.4,550.3,259.45,551.07,258.36Z"/><path class="cls-9" d="M562.92,265.56h0a2.35,2.35,0,0,0-.17-3.32c-3.15-2.83-7-5.38-9.92-8.38l-2.65-2.92a2.27,2.27,0,0,0-3.32.18h0c-.86.95.43,2,.18,3.31l-.53,2.63,13.09,8.68A2.51,2.51,0,0,0,562.92,265.56Z"/><path class="cls-10" d="M540.71,137l-13.54-1.27c-3,0-13.64,20.3-1.22,24.54,4.43,0,7.52-.8,18,1.15l9.26-20.74C543.75,140.38,547.51,138.09,540.71,137Z"/><path class="cls-11" d="M559.93,155.15a43,43,0,0,1-4.83.15c-1.35.13-2.11.19-2.66-.26a16.79,16.79,0,0,1,4.23-4.72c2-2.62,4.08-6.07,2.89-8.3-1.28-2.41-5.79-.6-8.77,1.8a5.77,5.77,0,0,1-4.67,1.32c-2.75-.62-1.85-3.24-4.75-5.35-2.36-1.73-5.83-2.37-7.4-3.12,6.37-2.57,8.59-3.46,12.3-6.56,5.09-4.26,16.29-7.47,23.16-4.93l-.45-.35c5.31,2.09,7.26,2.5,10.82,7.15,5.74,2.33,9,7.92,10,13.93a18.42,18.42,0,0,0-2.85-5.28c7.6,19.77-7.18,27.44-4.58,33-8.38-2.92-8.73-8.52-8.61-16a15.89,15.89,0,0,0-14.71-.83l1.28-1.64Z"/><path class="cls-12" d="M583.9,361.76a56.85,56.85,0,0,0,2.3,9.37c.85,1.7,2.29,5.39-.37,6.33-2.18.77-7,.56-9.28-.69-1.37-.76-1.36-4.44-2-7.93a23,23,0,0,0-1.29-3.89c-.73-2-.06-3.59,1.76-7.43l5.5,3.13Z"/><path class="cls-12" d="M562.7,368.08c-.34,5,.49,6.19,1.16,10.16.41,2.39-.08,3.46-2.31,3.75a67.59,67.59,0,0,1-9.52.07c-4.32-.24-2.59-3.89-1.63-8.06l1.3-5.66,6-.37Z"/><path class="cls-13" d="M583.9,316c4.36,11.19,5.82,15.94,7.48,26.45.76,4.75,0,5.27-1.39,9.84l-5.35,11.9c-3.16.35-6.6.84-11.53-1.71l2.16-12.12-3-11.6-2.24-.15a112.71,112.71,0,0,0-4,14.13l-2.68,16.95a38.72,38.72,0,0,1-12.49,0c.57-7.47.15-15.85.13-23.35,0-9.16,0-16.73.91-27.22Z"/><path class="cls-14" d="M572.81,268.55c5.55.7,7,2.73,12.27,11l4.47,5.66,13.53,6.62a44.68,44.68,0,0,1-2.23,7.51c-8-2.36-13.07-1.87-19.41-8.41,1.12,11.52,1.73,16.31,4.76,27.59-12,2.83-23.62,2.94-36.07,2.75,1.22-14.58-2.45-20.06-8.1-34.43-7.91.74-11.77,1.45-14.6.36-3.9-1.51-5.55-6.42-11.35-16.12l9.22-2.53,6.69,6.84,7-3.27c5.39-2.24,10.86-2.07,17.18-2.53C561.59,269.16,567.87,267.92,572.81,268.55Z"/><path class="cls-11" d="M558.11,238.42c-6.1-1.18-12.45,2.56-14,7.49a3.39,3.39,0,0,1,.73-.57,18.36,18.36,0,0,0-1.39,7.44c0,9.51,6.1,18.16,14.68,18.16s15.1-8.92,15.13-18.43c0-5.13-1.61-8.48-4.83-10.82a5.32,5.32,0,0,1,1.57,1.1C569,239,561.08,237.83,558.11,238.42Z"/><path class="cls-8" d="M558.11,275.63c1.4,0,2.39-.81,3.57-1.68,2.16-.72,5.31-2.21,6.22-3.77,1.06-1.59.81-3.33,1.33-5.13a3.05,3.05,0,0,0,1.6-1.82c.46-1.92,2.64-2.24,2.69-5.35s-2.26-2.39-2.81-1.69c.06-1.5.76-3.29.55-4.71-1.1-7.42-5-10.27-13.15-10.27s-12.06,2.85-13.15,10.27c-.21,1.42.48,3.21.54,4.71-.55-.7-2.85-1.42-2.81,1.69s2.23,3.43,2.69,5.35a3.05,3.05,0,0,0,1.6,1.82c.52,1.8.27,3.54,1.34,5.13.9,1.56,4,3.05,6.21,3.77C555.71,274.82,556.71,275.6,558.11,275.63Z"/><path class="cls-11" d="M569.74,260.7a33.51,33.51,0,0,0,1.71-3.4c6.61-16.89-15-22.25-23.36-13.72-3.28,3.35-4.79,8.77-1.51,17.77,1.17-4.37-1.93-14.12,5.86-15.26,3.37,4.28,4.51,4.16,14.24,8C569.87,255.42,569.87,256.68,569.74,260.7Z"/><path class="cls-9" d="M488.74,179c.32,10.66.8,20.76,5.27,32.84.66,1.78,20.14,13.38,18.46-6.28.6-23.63,3.59-22,9-45.94,3.55-15.63-1.06-19-12.39-19.3C488.85,139.78,488.4,167.56,488.74,179Z"/><path class="cls-15" d="M487.2,177.92l28.63,6.58c2.21-6.63,6.28-13.27,8.82-23.23,4.54-17.81-1.8-26.22-9.9-28.12a18.29,18.29,0,0,0-19.88,9.26C489.24,152.87,488.32,169.36,487.2,177.92Z"/><path class="cls-16" d="M411.06,379.47l10.62,1,3.27-1.26c4.42,1.18,4.59,1.42,9.06,1.7,9.07.56,22.48.13,31.44-.19-.55-7.09-.87-8.09-12.42-9.63-4.62-.61-8.33-3.5-14.23-8.56-3-2.56-4.32-5.36-6-12.77l-19.37-.63a34.63,34.63,0,0,1-1,8.49C411,363.29,408.11,366.63,411.06,379.47Z"/><path class="cls-17" d="M389.47,202.6c-4.11-11.89-5.22-16.43-4.57-24.22.82-9.74,3.5-15.64,7.1-24.19l40,8.42,1.78,26-4,66.94,6.49,102.82-21.87,2.3L402.61,287l3.26-31.92C402.91,238.79,394.05,215.85,389.47,202.6Z"/><path class="cls-18" d="M392.45,380.47l10.59,1,3.31-1.25c4.38,1.18,4.54,1.42,9,1.7,9,.56,22.48.12,31.45-.2-.3-7.08-.6-8.09-12.09-9.62-4.6-.61-8.22-3.5-13.94-8.56-2.89-2.56-4.14-5.37-5.56-12.78l-19.34-.62a35.62,35.62,0,0,1-1.27,8.48C392.93,364.29,389.93,367.64,392.45,380.47Z"/><path class="cls-19" d="M381.69,202.6c-1.25-4.56-2.14-8-2.69-11-5.05-18.29,2.36-41.38,19.45-49.64l37.69,16.19L425.3,176.22l-.54,2.51-.85,12.42-2.9,10.6-2.27,53-.19,2.84-.13,102.86c-11.72,2.38-12.7,2.79-24.79,1.11l-5-74.6,1.74-32.79C388.57,237.92,385.32,215.85,381.69,202.6Z"/><path class="cls-20" d="M503.2,122.88c-10-4.22-21-5.48-31.7-5.6-24.16-.29-58.47,12-77.77,26.91l39,29.59c8.59-10.74,40.93,7.13,58,9,11.64,1.3,24-7.94,38.3-22.39.39-.38-6.73-7.53.21-24.18C524.54,134,506.86,124.43,503.2,122.88Z"/><path class="cls-21" d="M530.43,135.59c-3.53,7.28-3.23,17.53-1.2,25.35-3,.81-11.17,6.71-13.15,7.09,2.7-8.34,2.65-27.36,10.07-33.3Z"/><path class="cls-10" d="M476.7,171.23c-1.59,10.55-2.92,20.57-.68,33.25.33,1.87,17.42,16.76,19.28-2.88,4.81-23.14,7.46-21,17.08-43.59,6.29-14.75,2.35-18.89-8.74-21.2C483.82,132.66,478.41,159.92,476.7,171.23Z"/><path class="cls-15" d="M475.38,169.9l27,11.58c3.36-6.13,8.54-11.94,12.82-21.28,7.66-16.72,2.92-26.12-4.71-29.44a18.31,18.31,0,0,0-21.21,5.56C481.85,145.61,478,161.67,475.38,169.9Z"/><path class="cls-10" d="M476.25,206.72c1,7.71.64,4.35,1.67,8.82,2.44,10.71,8.21,15.89,16.69,32.92l3.94,7.92,11.63-.55a71.07,71.07,0,0,1-5-16.13c-1.59-7.86-1.51-15.81-3.63-23.81-1.7-6.37-.81-3.89-6.93-16.88C493.39,192.84,473,191.55,476.25,206.72Z"/><path class="cls-10" d="M509.08,254c1.65,1.18,7.08,5.32,10.27,8.17,2.28,2,2.16,2.28,3.29,4.94.9,2.12,2.58,5.05,2.71,5.41a59,59,0,0,1,0,6c-1.8,3.56-2.13,5.66-4,5-1.15-.38-1-2.29-.23-6.19l-.22-2.07c-.24,1.92-.35,3.42-1.42,4.77-.94,1.18-2.67,2.39-4.86.53-.52-.44,0-.8.29-1.45l.91-1.73c-.91-2-1.65-3.87-2.43-5.95.88,2.93,1.31,4.77,1.14,5.94-.24,1.66-1.71,1.69-3.18,1.7-2,0-1.3-3.19-3.22-7.3.45,1.51,1.3,3.62.83,5.21s-2.16.75-3.06-.15c-2.22-2.22-5.44-8.26-7.2-13.5-1.2-3.59-.41-9.06-1.45-10.43l5,1.84Z"/></svg>