<svg id="Layer_1" data-name="Layer 1" xmlns="http://www.w3.org/2000/svg" viewBox="0 0 960 380"><defs><style>.cls-1{opacity:0.2;}.cls-2{fill:#abd7e5;fill-rule:evenodd;}.cls-15,.cls-3,.cls-4,.cls-5{fill:#abd7e6;}.cls-3{opacity:0.7;}.cls-4{opacity:0.4;}.cls-5,.cls-6{opacity:0.22;}.cls-6{fill:none;stroke:#abd7e6;stroke-miterlimit:10;stroke-width:6px;}.cls-7{fill:#f8b5b7;}.cls-8{fill:#302411;}.cls-14,.cls-9{fill:#f7b2b1;}.cls-10{fill:#fdd34f;}.cls-11{fill:#b28dc0;}.cls-12{fill:#8b6697;}.cls-13{fill:#f8b6b7;}.cls-14{opacity:0.1;isolation:isolate;}</style></defs><title>app-ilustraciones</title><g class="cls-1"><path class="cls-2" d="M773.33,442.6s47.49-44.37,47.49-120.19-87-157.81-190-120.12c-74.64,27.32-91.4,84.13-198.77-9.51C170.67-35.21,108.3,310.84,196.39,442.6l4.17,7.28,556.73.63Z"/></g><path class="cls-3" d="M659.22,160.92l-6.06-1.36,1.36-6.06a1.81,1.81,0,1,0-3.54-.8l-1.36,6.06-6.06-1.36a1.81,1.81,0,1,0-.8,3.54l6.06,1.36-1.36,6.06a1.81,1.81,0,1,0,3.54.8l1.36-6.06,6.06,1.36a1.81,1.81,0,1,0,.8-3.54Z"/><path class="cls-3" d="M365.29,62.6l-.62,8.06L356.61,70a2.37,2.37,0,0,0-.36,4.72l8.06.62-.62,8.06a2.36,2.36,0,1,0,4.71.36l.62-8.06,8.06.62a2.36,2.36,0,1,0,.36-4.71L369.38,71,370,63a2.36,2.36,0,1,0-4.71-.37Z"/><path class="cls-4" d="M316.15,77.47a7.73,7.73,0,0,0-3.92,1.1,12.88,12.88,0,0,0-24.58-3.64,9.19,9.19,0,1,0-2.42,18h30.92a7.76,7.76,0,1,0,0-15.51Z"/><circle class="cls-5" cx="498.55" cy="56.57" r="10.32"/><circle class="cls-6" cx="588.71" cy="46.16" r="14.47"/><polygon class="cls-7" points="537.84 318.61 541.1 336.95 551.15 332.51 551.15 315.95 537.84 318.61"/><path class="cls-8" d="M552.34,328.08s-6.51,7.09-13,3.55l-.88,30.75s-15.38,17.16-.6,17.45S550,373.62,550,373.62v-3.84l1.78-3.25,1.47.59s4.14-5,3.85-7.4-.59-5.62-.59-5.62l-3.55-15.67Z"/><polygon class="cls-7" points="650.24 265.37 662.95 276.02 656.45 283.71 639.88 274.54 650.24 265.37"/><path class="cls-8" d="M652.6,282.53l7.69-9.76,12.13,9.17,14.49,7.69s16.27,5.91,12.42,11.53S686.61,305,686.61,305l-2.07-1.48-3.25-.89.89,1.77-7.1-.29-4.73-5.62-3.85-5-6.21-5.91Z"/><path class="cls-9" d="M512.7,147.36l-3.25,24.55-13.6,38.75s-14.5,20.4-4.15,21,10.65-18.93,10.65-18.93l17.75-32.24,4.73-31.94Z"/><path class="cls-9" d="M578.07,155.05l2.07,28.1,17.15,32.24s11.83,10.65,5,14.2-13-14.5-13-14.5L568.9,186.4l-3.25-29.87Z"/><circle class="cls-7" cx="558.84" cy="104.18" r="15.08"/><path class="cls-7" d="M546.72,108s-2.66,16-13.9,18.63,19.81,11.53,28.69,3.25a9.25,9.25,0,0,1-.89-12.12C565.35,111,546.72,108,546.72,108Z"/><path class="cls-10" d="M575.41,136.42l-15.24-8.23s-8.89,6.1-25.07-2.3c0,0-20.33,1.66-20,4.32s-9.17,17.74-5.92,20.7,5.33-2.66,8.58,3,4.73,4.14,4.73,4.14-1.18,19.82,1.19,20.7S564.17,174,564.17,174s5,.89,2.66-1.48-2.66-2.66-1.18-4.43,3.55-1.48,1.47-3a2.7,2.7,0,0,1-.88-3.55s9.76-4.14,13.6-3.85S578.36,137.31,575.41,136.42Z"/><path class="cls-11" d="M524.53,177.83l-.29,11.24s-10.06,137.23,3.55,136.34,14.19-5.91,15.08-6.5,11.83,5.62,13.31-.89,2.37-88.73,2.37-88.73,34,78.08,55.31,68.62,48.21-26.92,42-33.72-34.6-24.55-34.6-24.55-.59-5.32-10.94-10.35l-33.72-34.6s.89-1.19-1.18-2.67-2.07,1.19-2.67-2.66.3-2.36-1.47-4.14-1.48-.29-1.78-2.07.3-1.48-.29-2.07-3-3.25-3-3.25l-3-7.69S529.86,171.91,524.53,177.83Z"/><polygon class="cls-12" points="523.35 184.04 565.35 173.09 567.42 177.83 523.06 189.07 523.35 184.04"/><polygon class="cls-12" points="528.38 186.4 525.72 200.31 529.27 200.31 531.93 185.81 528.38 186.4"/><path class="cls-12" d="M534.29,184.93a19.73,19.73,0,0,0,.6,6.21c.88,3.55,2.07,8.57,2.07,8.57s5.62-3,4.73-5.62S538.14,184,538.14,184Z"/><path class="cls-12" d="M557.14,103.55c.9-1.3.5-3.11,1.14-4.56,1-2.27,4-2.73,6.44-2.88a18.93,18.93,0,0,1,4.93.13A4.73,4.73,0,0,1,573,98.8c.35.75.31-1.55.15-4.51a14.26,14.26,0,0,0-10.62-13l-.11,0a27.1,27.1,0,0,0-9.16-1.06,11.89,11.89,0,0,0-8.13,3.91c-.91,1.09-1.56,2.38-2.56,3.37-1.76,1.75-4.32,2.34-6.67,3.12a19.89,19.89,0,0,0-7.34,4,10.8,10.8,0,0,0-3.67,7.33c-.13,3.27,1.87,6.7,5.21,7.42a3.81,3.81,0,0,1,1.59.74c3.14,2.56-.58,5.07-.62,7.86,0,2.34,2.52,3.92,4.85,4.08a9.39,9.39,0,0,0,9.53-7.2,19.51,19.51,0,0,0,0-5.81c-.21-2.22,4.68-7.31,1.44-3.57a5.5,5.5,0,0,0-1.26,2.5c-.6,3,2.15,4.13,3.86,5.86a7.27,7.27,0,0,1,1.58,7.51,8.37,8.37,0,0,0,1.77-10.52c-.54-.88-1.25-1.65-1.76-2.54-.8-1.4-1-4.4,1.37-4.26C554.12,104.06,555.81,105.49,557.14,103.55Z"/><path class="cls-8" d="M415.21,343.07l1.31,17.25s-9.58,17,.51,16.73,10.89-1.32,10.89-1.32v-5.3l0-11.42L425,341.49Z"/><path class="cls-8" d="M455.29,347.36s2.38,7.17.52,11.95-2.67,15.92-1.35,16.19l7.7,1.6s15.39,5.33,22,3.22,5.58-5.31,5.58-5.31a7.6,7.6,0,0,0-6.63-4.78c-5-.27-16.7-19.4-17-23.65S455.29,347.36,455.29,347.36Z"/><circle class="cls-8" cx="422.27" cy="103.48" r="23.63"/><path class="cls-13" d="M413.89,118.74s2.11,11.68-4.26,14.86,11.93,9.31,11.93,9.31l8-2.12,5.06-10.88s-6.37-.54-4.77-10.09Z"/><path class="cls-14" d="M413.89,118.74s2.11,11.68-4.26,14.86,11.93,9.31,11.93,9.31l8-2.12,5.06-10.88s-6.37-.54-4.77-10.09Z"/><path class="cls-9" d="M389.42,158.53,388.86,184l-6.69,43.53s.24,22.57,7.14,23.91,0-24.16,0-24.16l10-36,2-31.39Z"/><circle class="cls-9" cx="421.47" cy="109.85" r="15.13"/><path class="cls-15" d="M445.14,185.68c2.65,4.51,1.84,9.82-1.08,9.82s-42.2-4.83-42.2-4.83l2.4-9s-2.39-3.72-.79-6.1-1.58-9.83-1.58-9.83l-6.07-28.94,3.19-1,5.3-1.66,5.85-1.84s4,5.85,13.8,4c0,0,6.1.81,9.56-7.15a9.78,9.78,0,0,1,2.22.28,2.88,2.88,0,0,1,1.77,1c.32.53,2.18.9,4.3,1.14,3.15.36,6.84.46,6.84.46l-2.95,29.47S442.49,181.16,445.14,185.68Z"/><path class="cls-15" d="M397.94,136.77h-2.12s-8.51,6.89-7.46,23.35c0,0,.79,1.6,6.9,2.66S404,161.2,404,161.2Z"/><path class="cls-12" d="M437.74,156.2S403.76,154,404,158s-2.14,13-1.08,14.6,2.35,8.12.77,11.09a23.21,23.21,0,0,0-2.12,5.63s-2.12-.53-3.72,6.1-9.59,25.74-6.41,35.57,13.45,72.49,13.45,72.49l6.85,41.15s11.41,2.14,15.4-2.1l-3.66-48.32-2.59-52.57s17.73,51,20.38,52.59l10.82,54.17s12.2,4.26,16.46-2.63l-5-39.57s-2.91-7.7-1.84-11.68a7.59,7.59,0,0,0-1.85-6.9l-10.82-56s-3.17-6.38-.51-11.15-4.75-26.56-4.75-26.56-4.77-11.15-3.16-17.52S437.74,156.2,437.74,156.2Z"/><path class="cls-9" d="M456.59,152.51l5.28,30s.79,4.51-1.61,12-11.71,25.2-11.71,25.2l-4.77-8.5,8-27.07-6.6-31.6Z"/><polygon class="cls-12" points="409.33 156.43 404.39 158.95 399 143.41 399 135.77 404.31 134.11 405.11 140.5 409.33 156.43"/><path class="cls-12" d="M441.81,131.59l-4.34,25.54h-6.9l5.17-27.72a2.88,2.88,0,0,1,1.77,1C437.83,131,439.69,131.35,441.81,131.59Z"/><path class="cls-15" d="M445.47,133.64l3.18-1.59s13.52,16.21,9.53,22.85-15.66,2.37-15.66,2.37Z"/><circle class="cls-8" cx="424.69" cy="79.86" r="10.09"/><ellipse class="cls-8" cx="421.49" cy="94.72" rx="7.7" ry="13.01" transform="translate(326.25 516.09) rotate(-89.93)"/><circle class="cls-11" cx="406.81" cy="159.21" r="1.33"/><circle class="cls-11" cx="435.21" cy="159.25" r="1.33"/><path class="cls-4" d="M671.62,101.89a9.59,9.59,0,0,0-4.89,1.37A16.08,16.08,0,0,0,636,98.73a11.2,11.2,0,0,0-3-.46,11.5,11.5,0,1,0,0,23h38.6a9.69,9.69,0,1,0,0-19.37Z"/></svg>