<svg id="Layer_1" data-name="Layer 1" xmlns="http://www.w3.org/2000/svg" viewBox="0 0 960 380"><defs><style>.cls-1{opacity:0.2;}.cls-2{fill:#abd7e5;}.cls-10,.cls-11,.cls-12,.cls-13,.cls-14,.cls-15,.cls-2,.cls-3,.cls-4,.cls-5,.cls-6,.cls-9{fill-rule:evenodd;}.cls-3{fill:#66c192;}.cls-4{fill:#32ac73;}.cls-5,.cls-8{fill:#f7b2b1;}.cls-6{fill:#f1f1e9;}.cls-14,.cls-7{fill:#f9c1b5;}.cls-9{fill:#302411;}.cls-10{fill:#1b75ba;}.cls-11{fill:#eb8882;}.cls-12,.cls-20{fill:#8b6697;}.cls-13{fill:#eaaaa9;}.cls-15{fill:#fdd34f;}.cls-16,.cls-17,.cls-19{fill:#abd7e6;}.cls-16{opacity:0.7;}.cls-17{opacity:0;}.cls-18{fill:none;stroke:#abd7e6;stroke-miterlimit:10;stroke-width:6px;}.cls-18,.cls-19{opacity:0.22;}</style></defs><title>app-ilustraciones</title><g class="cls-1"><path class="cls-2" d="M330,374.21s-27.17-25.38-27.17-68.74,49.75-90.26,108.66-68.7c42.7,15.62,52.28,48.12,113.69-5.44C674.66,100.93,710.33,298.85,660,374.21l-2.39,4.16-318.41.36Z"/></g><g class="cls-1"><path class="cls-2" d="M543.57,188.39s-39.34,39-77.18,19.36-24.53-70.22-19.19-80.53,22.95-28.94,70.91-10.94S561.42,171.7,543.57,188.39Z"/><path class="cls-2" d="M437.09,144s2.26,15.35-8.45,20.62-19.91-6.13-21.34-9-2.72-10,9.3-17.81S436.29,137.17,437.09,144Z"/></g><path class="cls-3" d="M446.28,315.09c3.67-2.53-.35-65.38-2.58-64.72-4.92,1.46-29.67,2.45-33.5,6.82-2.17,2.48-2,7.82-2.18,11-.44,10.05-1.22,39.9,5.2,44.78C416.72,315.61,442.46,317.73,446.28,315.09Z"/><path class="cls-4" d="M416.31,257.71c-4.53,1-4.44,8.38-4.38,13.36a190.08,190.08,0,0,0,1.26,21.13c.81,6.12-1.64,16.24,4.54,16.14,3.12,0,3.8-4.78,3.61-9.19l-.79-6.95c0-.31,0-.61.06-.92.46-9.71-1-19.26-1.77-29.3a7.17,7.17,0,0,0-.6-2.86A1.94,1.94,0,0,0,416.31,257.71Zm3.61,45.5-.05-.1,0,0,0,0"/><path class="cls-5" d="M434.31,273.43c-.76-3.81,2.76-7,4.48-9.69,4.52-6.94,26-33.91,28.32-32.64,5.58,3-5.55,19.49-10.67,28.77-4.75,8.59-7.8,18-14.85,18.59C439.63,278.63,435.16,277.69,434.31,273.43Z"/><path class="cls-6" d="M441.08,259.77l6-9,11.35,8.13L450,275.17S440.11,264.76,441.08,259.77Z"/><path class="cls-7" d="M437.24,311.06l-11.32-18.34c-2.44-11-4.09-14.42-.24-23.91,1-2.41,4.13-3.92,5.44-6.68,2.73-5.75,6.71-4.88,9.8-3.4,7.08,3.41,8.28,5.53,9.06,9.91l3.56,32c.65,6.43-11.67,14.15-16.3,10.42"/><path class="cls-7" d="M451.3,282.38a67.82,67.82,0,0,1,0,38l-19.69-.64c-11.41-5.88-11.19-16.9-3-33C437.26,274.82,451.3,282.38,451.3,282.38Z"/><path class="cls-8" d="M437.51,268.66a4.59,4.59,0,0,1-5.68-3.63l-1.76-9.11a5.23,5.23,0,0,1,3.82-6,4.58,4.58,0,0,1,5.68,3.63l1.76,9.11a5.21,5.21,0,0,1-3.82,6"/><path class="cls-8" d="M436.13,352.44c-1.92-5.19-.21-11.61,0-13.61,0,0,.53-5.09-.77-16.3-1.17-10,3.43-30.5,12.46-21.52,6.36,6.33,5.52,25.4,3.11,42-1.46,10.09-1.94,27.47-3.34,27.36C440.27,369.83,436.13,352.44,436.13,352.44Z"/><path class="cls-9" d="M440,297.73a42.76,42.76,0,0,0,14.32-2.53c-.34,0,1.89,41.16,1.12,42.11s-22.91.6-23.56-.21c-.12-.15-3.78-13.27-1.72-22.83S440,298.71,440,297.73Z"/><path class="cls-8" d="M396.11,339c1.77-5.19,7.2-9.26,8.61-10.74,0,0,3.65-3.7,9.74-13.29,5.43-8.56,24.32-17.44,25.76-5.13,1,8.67-14,18.61-26.46,30.31-7.55,7.09-19,20.51-20,19.61C388.33,355.07,396.11,339,396.11,339Z"/><path class="cls-10" d="M446.6,367.28c-.35-.61-2.44-4.2,1.33-2,1.93,1.1,4.42.36,6.23-.32,4.18-1.56,5.84,1.78,7,4.91-2.9,4.93-18,5.45-19.11,5.05-.93-3.58.24-4.92-.76-6.32C441.37,367.53,445.17,367.16,446.6,367.28Z"/><path class="cls-10" d="M394.57,357.77c.32-.57,2.14-4,2.53.26.2,2.17,2.3,4,3.94,5.31,3.78,3,1.92,5.87-.08,8.23-5.91-.39-15.26-13.39-15.55-14.5,2.51-2.37,4.34-1.92,4.95-3.41C391.28,353.3,393.83,356.46,394.57,357.77Z"/><path class="cls-9" d="M444.48,313.78c1.19-2.89,1.19-9.25,1.19-9.25l-5.39-2.18c-16.37-6.53-13.45-1.72-34.19,19.29.77,4.31,9.57,13.21,16.14,18C427.61,337.15,439.09,326.85,444.48,313.78Z"/><path class="cls-6" d="M430.56,262.92s5.57,3.31,8.28,1.68c4.3-2.58,2.34-6,2.58-5.82a11,11,0,0,1,8.08,5.55c3.48,6.18,5.68,29.27,5.79,30.17s-3.9,6.25-11.41,7.16c-17.3,2.08-21.1,1.41-21.75,1.22s-1.22-29.56,3.15-35.88A13.89,13.89,0,0,1,430.56,262.92Z"/><path class="cls-5" d="M396.27,310.45s13.23-22.9,29.16-29.09c6.44-2.51,10.47-9.19,7.25-14.49s-11.88-2-23.94,10.07C391.55,294.11,386.83,316.69,396.27,310.45Z"/><path class="cls-6" d="M437.13,269s-5.47-10.83-21.8.05l-7,5,8.17,13.58S440.32,277.62,437.13,269Z"/><path class="cls-8" d="M447.1,244.46c.87,9.45-5.07,11.35-9.16,12.88-6.11,2.28-24.25-1.11-25.12-10.56S422.73,229.16,429,228s17.21,7,18.07,16.49"/><path class="cls-8" d="M425.5,251.3c2.78.19,4.74,1.4,4.46,2.59-.95,4-2.72,5.57-5.5,5.39s-4-2-3.72-4.23a4.22,4.22,0,0,1,4.76-3.75"/><path class="cls-11" d="M428.4,257.57s-2.87,6.88-13.39.31c-8.86-5.53-5.05-9-5.64-10.31-5.17-11.47-.56-17.83,7.12-21.72,3.61-1.83,2.95-5.61,6.68-8,1.3-.83,7.6-.35,6.43,6.18,0,.22,2.36-3.46,3.4-3.9,5.73-2.39,10.45,8,5.59,10.46-7.36,3.81-11.88,7-14.1,12.87-2.34,6.23,5.71,6.59,4.22,10.3-.12.3-2.18-.23-2.51-.23-.57,0-2.9,0-3.47,0C421.07,253.66,419.84,260.33,428.4,257.57Z"/><path class="cls-3" d="M442,260.54s5.82,5.65,8.14,10.73c.56,1.25,1.09,2.52,1.57,3.82.8,2.18,1.63,5.33,1.63,5.33.11.73-.13-1.69.16,2.12s1.64,7,.72,12.84l.27.82a29.12,29.12,0,0,0,2.4-6,29.33,29.33,0,0,0,0-6.94c-.51-3.49-3.83-17.33-11.58-22.7-4.1-2.84-3.2-1.35-3.74-1.15C440.83,259.64,442.25,260.68,442,260.54Z"/><path class="cls-3" d="M420.65,263.39s3.82,1.94,3.89,2c.76.53-1.1-1.7,2.31,1.75,5.14,5.2,5.11,13.56,4.81,17.53-.49,6.39-4.06,11.16-8.68,16.07-3.43,3.63-.22,1.15-2.43,2.49l-1.71,1a17.54,17.54,0,0,0,7.57-3.35c9.38-7.15,12.1-23,8.76-30.87A14,14,0,0,0,423,261.31l-3.24.9C418.21,263.22,421,263.38,420.65,263.39Z"/><path class="cls-12" d="M539.19,66.31c-8.43,1.26-15.52,10-17.68,18.89-1.56,6.45-1.18,13.34-4.25,19.4-4.32,8.52-14.73,8.61-19.59,16.24-2.35,3.7-3.34,10.41.08,13.83,1.1,1.1,5.46,2.17,5.45,3.26-.06,6.78-10,14.26-5,21.41,1.54,2.23,5.61,3.47,8.18,2.53.31-.11,3.41-2.06,3.48-2,1.74,1.22,2.68,5.51,3.86,7.38,3.84,6.06,10.5,11.89,18.13,11.56a16.23,16.23,0,0,0,6.75-2c13.78-7,33.6-.59,40-14.58,8.85-19.21-9.46-18.48-3.24-31.22,7.59-15.54-2-18.45-2.68-26.25-.59-6.89,1.36-14.28,0-21C570.55,73.43,558.15,63.47,539.19,66.31Z"/><path class="cls-13" d="M557.08,180.24s9.6,9.21,10.93,20.64c3.58,30.69-5,67.68-9.12,86.53s-4.68,65.69-2.21,81.46c0,0,1.15,2.36.59,3.56-1.06,2.27-4.58,3.53-7.77-1.19-4.87-7.21-23.43-61.25-9.26-87.18,0,0-27.57-64.44-1.84-96.94C544.51,179.4,557.08,180.24,557.08,180.24Z"/><path class="cls-5" d="M543.63,106.54c-5.15-2.12-4.71-6.54-4.71-6.54s-3.32.41-4.2-3.74A2.51,2.51,0,0,1,537.2,93c2.88-.09,4.47,6,5.33,5.44,4-2.75,2.18-5.42,1.46-7.55a3.38,3.38,0,0,1,4.28-4c12.22,3.92,14.65-6.92,15.44-3.83,2.23,8.63-2.48,21.91-6.13,26.59C557.58,109.64,546.86,107.87,543.63,106.54Z"/><path class="cls-5" d="M540.25,103.79s2,8.82-9.52,12.5c-6.11,1.95,3.79,38.64,17,55.86,5.74,7.47,16.63,12.3,16.61,2.88s-4.75-44.21-8.48-49.15S540.25,103.79,540.25,103.79Z"/><path class="cls-5" d="M539.3,102.52a6,6,0,0,1,1.25,3.36c.2,2.55-.46,7.06-4.54,12.67-3.37,4.64,7.18,6.49,9.09,2.23l2.64-13S549.35,101.57,539.3,102.52Z"/><path class="cls-14" d="M558.78,158.85l5.57,10.42s6,24.38,2.63,35.92-4.11,11.9-7.38,6.63-9.37-20.2-25.58-20.31c0,0,5.42-9.79,11.86-14.87,3.92-3.09-6.41-17.48-6.41-17.48Z"/><path class="cls-5" d="M554.94,190.2s9,13.43,8.85,25-15,56.19-21.48,74.31C536,307,528.71,351,528.44,368.29c0,.57.43,1.11.44,1.62,0,0-3.35,9.3-7,1.44s-13.76-64.18,3.21-87.88c0,0-17.24-68,11.57-96.51C543.53,180.17,554.94,190.2,554.94,190.2Z"/><path class="cls-15" d="M571.52,290.74l-60.84-2.2s-1.71-56.34,7.2-79.24c5.61-14.44,20.78-34.88,20.78-34.88s-17.95-48.66-.3-62.84l8.7,1.83a124.53,124.53,0,0,1,8.1,10.64C557.84,128.16,583.08,190.73,571.52,290.74Z"/><path class="cls-5" d="M532.68,118s-7.52-9.17-19.61,29.22l-23.28,70s2.76,8.25,7.4.26,23.52-58.11,30.35-69.89S541.67,124.71,532.68,118Z"/><path class="cls-15" d="M538.23,111.11a7.8,7.8,0,0,1-5.32,3.7c-2,.44-4.56-.08-5.9-.18-.93-.07-4.8,7.51-7.94,15.11L506.68,162.2l13.47,6.44,17.25-31.89S548.37,119.37,538.23,111.11Z"/><path class="cls-16" d="M327.48,170l.61,7.87,7.14-.55a2.32,2.32,0,0,1,.35,4.6l-7.14.55.61,7.86a2.11,2.11,0,1,1-4.18.32l-.6-7.86-7.14.55a2.32,2.32,0,0,1-.36-4.6l7.14-.55-.6-7.87a2.1,2.1,0,1,1,4.17-.32Z"/><path class="cls-16" d="M648,149.1l.58,7.42,6.74-.51a2.19,2.19,0,0,1,.33,4.34l-6.74.52.57,7.42a2,2,0,1,1-3.94.3l-.57-7.42-6.74.52a2.19,2.19,0,0,1-.33-4.34l6.73-.52-.57-7.42a2,2,0,1,1,3.94-.31Z"/><path class="cls-17" d="M340.62,100.56a10.59,10.59,0,0,1,5.43,1.53,17.84,17.84,0,0,1,34.06-5,12.47,12.47,0,0,1,3.36-.51,12.76,12.76,0,0,1,0,25.52H340.62a10.76,10.76,0,0,1,0-21.51Z"/><path class="cls-17" d="M624.32,131.77a7.48,7.48,0,0,1,3.83,1.07,12.56,12.56,0,0,1,24-3.54,8.81,8.81,0,0,1,2.36-.36,9,9,0,1,1,0,18H624.32a7.57,7.57,0,0,1,0-15.14Z"/><ellipse class="cls-18" cx="619.78" cy="86.37" rx="16.3" ry="15.97"/><circle class="cls-19" cx="369.11" cy="192.8" r="16.3"/><path class="cls-8" d="M497.19,217.5s-7.53,15.42-11.84,11.94,5.23-14.85,5.23-14.85Z"/><path class="cls-8" d="M463.37,234.17s6-10.16,8.76-7.54-4.38,9.89-4.38,9.89Z"/><path class="cls-20" d="M556.82,369.88s-.63,3.61-3.55,2.32a14.62,14.62,0,0,0-4.92-1.34s-2.3,5.71.51,6.05,15.38,1.75,17.73-1,2.53-4.49-1.49-4.6-8.51-3-8.51-3Z"/><path class="cls-20" d="M528.67,369.88s-.63,3.61-3.55,2.32a14.7,14.7,0,0,0-4.93-1.34s-2.3,5.71.51,6.05,15.38,1.75,17.74-1,2.53-4.49-1.49-4.6-8.51-3-8.51-3Z"/></svg>