<svg id="Layer_1" data-name="Layer 1" xmlns="http://www.w3.org/2000/svg" viewBox="0 0 960 380"><defs><style>.cls-1{opacity:0.2;}.cls-2{fill:#abd8e6;fill-rule:evenodd;}.cls-3{fill:#ddd;}.cls-4,.cls-7,.cls-9{fill:#aad8e7;}.cls-4{opacity:0.4;}.cls-5{fill:#6c63ff;}.cls-20,.cls-6{fill:#fff;}.cls-7{opacity:0.5;}.cls-8{fill:none;stroke:#aad8e7;stroke-miterlimit:10;stroke-width:6px;}.cls-8,.cls-9{opacity:0.22;}.cls-10{fill:#efe6ef;}.cls-11{fill:#8c6698;}.cls-12{fill:#b48fc1;}.cls-13{fill:#fed44f;}.cls-14{fill:#ffeea7;}.cls-15{opacity:0.1;}.cls-15,.cls-20{isolation:isolate;}.cls-16{fill:#fcc338;}.cls-17{fill:#65c192;}.cls-18{fill:#f8b3b2;}.cls-19{fill:#ecb4b6;}.cls-20{opacity:0.25;}.cls-21{fill:#e5cfe3;}.cls-22{fill:#ef9c70;}.cls-23{fill:#5e5a6b;}.cls-24{fill:#555845;}.cls-25{fill:#ebaaaa;}.cls-26{fill:#464353;}.cls-27{fill:#d7793c;}.cls-28{fill:#302100;}.cls-29{fill:#838370;}.cls-30{fill:#e34f45;}.cls-31{fill:#33ad73;}</style></defs><title>app-ilustraciones</title><g class="cls-1"><path class="cls-2" d="M718.37,371.22s39.56-37,39.56-100.09-72.44-131.44-158.24-100c-62.16,22.75-76.13,70.07-165.55-7.92C216.44-26.73,164.49,261.49,237.86,371.22l3.47,6.07,463.69.52Z"/></g><rect class="cls-3" x="324.12" y="114.77" width="299.74" height="16.17"/><path class="cls-4" d="M690.51,316.27a8.88,8.88,0,0,0-4.54,1.27,14.88,14.88,0,0,0-28.41-4.2,10.42,10.42,0,0,0-2.8-.42,10.64,10.64,0,1,0,0,21.28h35.75a9,9,0,1,0,0-17.93Z"/><path class="cls-4" d="M431,79.71a9.42,9.42,0,0,0-4.79,1.34,15.71,15.71,0,0,0-30-4.43,11.22,11.22,0,1,0-3,22H431a9.47,9.47,0,1,0,0-18.94Z"/><path class="cls-5" d="M599.94,337.85c3.79,4.31,22.57,9.95,22.57,9.95s-3.18-19.35-7-23.66a10.4,10.4,0,0,0-15.63,13.71Z"/><rect class="cls-6" x="324.12" y="130.94" width="299.74" height="245.3"/><path class="cls-7" d="M685.69,203.75l-.31,4-4-.31a1.18,1.18,0,0,0-.18,2.36l4,.31-.32,4a1.18,1.18,0,0,0,2.36.18l.31-4,4,.31a1.18,1.18,0,1,0,.18-2.36l-4-.31.31-4a1.18,1.18,0,0,0-2.36-.18Z"/><path class="cls-7" d="M475.47,78.84l-.53,6.81-6.81-.52a2,2,0,1,0-.3,4l6.81.53-.53,6.81a2,2,0,1,0,4,.3l.53-6.81,6.81.53a2,2,0,0,0,.31-4L478.93,86l.52-6.81a2,2,0,0,0-4-.31Z"/><circle class="cls-8" cx="713.82" cy="147.16" r="9.41"/><circle class="cls-9" cx="680.57" cy="267.47" r="5.9"/><rect class="cls-10" x="350.52" y="160.14" width="121.29" height="85.64"/><rect class="cls-10" x="350.52" y="269.59" width="121.29" height="85.64"/><rect class="cls-10" x="484.84" y="160.14" width="121.29" height="85.64"/><rect class="cls-10" x="484.84" y="269.59" width="121.29" height="85.64"/><path class="cls-11" d="M399.17,168.63s6.83,9.53,11.47,8.6,5.09-1.94,9.21-8.6l3.38,7.77-4,9.62-4.72,6.11-10-1.57-3.24-10.92Z"/><path class="cls-12" d="M395.57,168.35s-2.32-.28-1.12,2.59,3.43,12.3,2.32,14.24-.55,7.22-5.36,8.24l1.38,5.45s.28,12-.28,13.79-.65,11.47-.46,12.48.1,7.68-.64,8-1.21,3.52,1.2,4.07,12.67.84,14.52,1.39,15,0,15,0,5.55-.74,6.94-1.2,1.67-1.57,1.2-3.7-2.59-17.58-2.12-19.52.56-20.91.56-20.91-3.61-1.2-3.61-4.72-1.39-12.95,1.48-18.86c0,0-2.32-1.59-2.68-1.31s-3.87-.73-3.87-.73-1.8,16.09-9.34,16.18-10.91-16.18-10.91-16.18S399.82,166.13,395.57,168.35Z"/><path class="cls-13" d="M538.25,168.63s6.83,9.53,11.46,8.6,5.1-1.94,9.22-8.6l3.37,7.77-4,9.62-4.71,6.11-10-1.57-3.24-10.92Z"/><path class="cls-14" d="M534.65,168.35s-2.32-.28-1.12,2.59,3.42,12.3,2.32,14.24-.55,7.22-5.36,8.24l1.38,5.45s.27,12-.28,13.79-.65,11.47-.46,12.48.09,7.68-.64,8-1.21,3.52,1.2,4.07,12.67.84,14.52,1.39,15,0,15,0,5.55-.74,6.94-1.2,1.67-1.57,1.2-3.7-2.59-17.58-2.12-19.52.55-20.91.55-20.91-3.6-1.2-3.6-4.72-1.39-12.95,1.48-18.86c0,0-2.32-1.59-2.69-1.31s-3.86-.73-3.86-.73-1.8,16.09-9.35,16.18-10.9-16.18-10.9-16.18S538.9,166.13,534.65,168.35Z"/><path class="cls-11" d="M423.49,281.45c-2.27,4.14-25.34,0-25.34,0l.06-.41.45-3.21H423l.47,3.2Z"/><path class="cls-15" d="M423.49,281.45c-2.27,4.14-25.34,0-25.34,0l.06-.41c1.1,0,17.79-.4,25.25,0Z"/><path class="cls-12" d="M398.15,281.45h0s-4.14,1-10.56,18.41-8.68,39.83-8.68,39.83-3.61,6.11,11.79,6.52c0,0-1.24,4,7.45,3.42s7.43-.62,7.43-.62,5.59-3.52,8.07-2.9,4,.83,6.73,3.11,11.28,1.34,11.38-.41a16,16,0,0,0,0-2.59s13.14.83,10.65-8.69-4.55-25.14-4.55-25.14-6.72-30.52-14.38-30.93S398.15,281.45,398.15,281.45Z"/><rect class="cls-15" x="366.66" y="319.66" width="52.98" height="0.41" transform="translate(38.53 681.97) rotate(-84.73)"/><rect class="cls-15" x="377.9" y="320.99" width="55.55" height="0.41" transform="translate(82.92 725.64) rotate(-89.78)"/><rect class="cls-15" x="419.18" y="293.4" width="0.41" height="55.8" transform="translate(-11.65 15.81) rotate(-2.13)"/><path class="cls-15" d="M431.56,346.22c-.72-31.78-6.13-53.54-6.2-53.73l.4-.1c.06.22,5.5,22,6.21,53.84Z"/><path class="cls-16" d="M562.88,281.45c-2.27,4.14-25.34,0-25.34,0l.06-.41.45-3.21h24.31l.47,3.2Z"/><path class="cls-15" d="M562.88,281.45c-2.27,4.14-25.34,0-25.34,0l.06-.41c1.1,0,17.79-.4,25.25,0Z"/><path class="cls-14" d="M537.54,281.45h0s-4.14,1-10.56,18.41-8.68,39.83-8.68,39.83-3.61,6.11,11.79,6.52c0,0-1.24,4,7.45,3.42S545,349,545,349s5.59-3.52,8.07-2.9,4,.83,6.73,3.11,11.28,1.34,11.38-.41a16,16,0,0,0,0-2.59s13.14.83,10.65-8.69-4.55-25.14-4.55-25.14-6.72-30.52-14.38-30.93S537.54,281.45,537.54,281.45Z"/><rect class="cls-15" x="506.05" y="319.66" width="52.98" height="0.41" transform="translate(165.12 820.77) rotate(-84.73)"/><rect class="cls-15" x="517.29" y="320.99" width="55.55" height="0.41" transform="translate(221.78 865.03) rotate(-89.78)"/><rect class="cls-15" x="558.57" y="293.4" width="0.41" height="55.8" transform="translate(-11.56 20.99) rotate(-2.13)"/><path class="cls-15" d="M571,346.22c-.72-31.78-6.13-53.54-6.2-53.73l.4-.1c.06.22,5.5,22,6.21,53.84Z"/><path class="cls-17" d="M476.78,245a10.39,10.39,0,1,1-10.38-10.38A10.39,10.39,0,0,1,476.78,245Z"/><path class="cls-6" d="M465.19,250.46l7.74-7.7a.68.68,0,0,0,0-.95h0l-1-.92a.66.66,0,0,0-.94,0h0l-6.28,6.26-2.93-2.94a.67.67,0,0,0-.94,0h0l-.95.95a.68.68,0,0,0,0,1l4.35,4.35a.68.68,0,0,0,.95,0Z"/><path class="cls-17" d="M476.78,353.49A10.39,10.39,0,1,1,466.4,343.1a10.38,10.38,0,0,1,10.38,10.39Z"/><path class="cls-6" d="M465.19,359l7.74-7.7a.66.66,0,0,0,0-.94h0l-1-.91a.66.66,0,0,0-.94,0h0l-6.28,6.25-2.93-2.94a.66.66,0,0,0-.94,0h0l-.95.95a.68.68,0,0,0,0,.95l4.35,4.35a.68.68,0,0,0,.95,0Z"/><path class="cls-18" d="M610.62,173.73c3.47-3.23,10.85,2.55,14.38,5.69,1.19,1,1.93,1.8,1.93,1.8s-2.18,7.11-4.81,7a5.42,5.42,0,0,1-2-.77C615.56,185,606.71,177.35,610.62,173.73Z"/><path class="cls-19" d="M661.62,354.51a15.26,15.26,0,0,0,1.61-6.89,12,12,0,0,0-.29-2.45c-1.44-6.45,12.69-.26,12.69-.26s0,1.63,0,3.95a81.73,81.73,0,0,0,.63,10.6,18.45,18.45,0,0,0,.75,3.29c1.75,4.95-7.22,4.85-7.22,4.85l-9.7-10.47A15.15,15.15,0,0,0,661.62,354.51Z"/><path class="cls-11" d="M637,366.14c.21-.12.43-.23.68-.35l7.68-1.2,13.1-6.75s.07-4.08,1.64-3.4c0,0,3.46.52,5.16,5.93S673.1,364,673.1,364s3.17-5.05,4.1-4.13,1.47,6.86,1.52,9.59v.27c.15,2.73,1.69,6.7-3,6.9-3.47.14-18.41.38-26.41.49a17.6,17.6,0,0,1-11.81-4.21C635,370.69,633.47,368.08,637,366.14Z"/><circle class="cls-20" cx="661.75" cy="361.92" r="0.57"/><circle class="cls-20" cx="656.43" cy="364.56" r="0.57"/><circle class="cls-20" cx="653.7" cy="365.78" r="0.57"/><circle class="cls-20" cx="648.03" cy="367.95" r="0.57"/><circle class="cls-20" cx="650.92" cy="367.03" r="0.57"/><path class="cls-12" d="M637,366.15c.69,3.56,12.63,5.37,12.63,5.37l29.14-1.81c.15,2.73,1.69,6.7-3,6.9-3.47.14-18.41.38-26.41.49a17.6,17.6,0,0,1-11.81-4.21C635,370.69,633.47,368.08,637,366.15Z"/><path class="cls-19" d="M701.73,324l1.81,2.09,4,4.63,1.26,1.48s3.25,6.86,3.3,7-4.12,6.55-4.12,6.55l-3.87.57s-.41-.62-1.1-1.61c-1.77-2.51-5.35-7.57-8.24-10.93a19.73,19.73,0,0,0-2.92-2.93C688.31,328.31,701.73,324,701.73,324Z"/><path class="cls-11" d="M703.54,345.09c1.28-2.32,2.94-2.47,2.94-2.47s3.71-7.94.25-11.55h1s5.47-1.05,9.72-1.35a14.36,14.36,0,0,1,4.14.11,1.36,1.36,0,0,1,.68.36c1.34,1.68,2.06,27.66,2.06,27.66s-1.49,13.65-6.19,13.77h-.25a6.05,6.05,0,0,1-5.28-3.34,5.32,5.32,0,0,1-.44-1.21,9.74,9.74,0,0,0-.88-5.51c-1.4-3.2-4-8.77-4-8.77S702.25,347.41,703.54,345.09Z"/><circle class="cls-20" cx="712.97" cy="345.06" r="0.57"/><circle class="cls-20" cx="713.25" cy="349.57" r="0.57"/><path class="cls-12" d="M717.81,350.5c.3-1.46.07-16.23,0-20.9a14.38,14.38,0,0,1,4.14.12,1.29,1.29,0,0,1,.68.36c1.34,1.68,2.06,27.66,2.06,27.66s-1.5,13.65-6.2,13.77h-.25a6.09,6.09,0,0,1-5.28-3.35C714.84,364.25,717.5,352,717.81,350.5Z"/><path class="cls-21" d="M720.58,356s1.77-.85.3-14.38c-.78-7.15.09-10.39,1.07-11.86a1.25,1.25,0,0,1,.68.36c1.34,1.68,2.07,27.66,2.07,27.66s-1.5,13.65-6.2,13.77C718.38,367.48,720.58,356,720.58,356Z"/><path class="cls-22" d="M639.53,199.7s-12.07-3.79-12.54-5.34-6.65-6.41-6.65-6.41c2-.31,5.57-9,5.57-9,.16,1.7,6.12,4.25,7.51,5.18a6.56,6.56,0,0,0,3.55.77Z"/><path class="cls-15" d="M701.74,324l1.8,2.09a20.83,20.83,0,0,1-8.81,7.7,19.73,19.73,0,0,0-2.92-2.93C688.31,328.31,701.74,324,701.74,324Z"/><path class="cls-23" d="M670.15,313.45s13,11.07,14.64,15,6.08,5.67,6.08,5.67c8.15-1.33,12.58-9.48,12.58-9.48s-20.62-25.26-23.38-26.4S669.74,287,669.74,287Z"/><path class="cls-24" d="M670.15,313.45s13,11.07,14.64,15,6.08,5.67,6.08,5.67c8.15-1.33,12.58-9.48,12.58-9.48s-20.62-25.26-23.38-26.4S669.74,287,669.74,287Z"/><path class="cls-15" d="M685.77,320.81a33,33,0,0,0,6.88,0C684.77,322.9,681.7,320.42,685.77,320.81Z"/><path class="cls-15" d="M687,325c2.09,1.54,7.5-1.55,7.5-1.55C689,326.48,684.92,323.44,687,325Z"/><path class="cls-15" d="M675.61,344.91s0,1.63,0,3.95c-3.15,1.38-8.18,2.56-12.36-1.24a12,12,0,0,0-.29-2.45C661.49,338.7,675.61,344.91,675.61,344.91Z"/><path class="cls-24" d="M653.23,210.25l12.47-.37,6.9,4s5,12.4,6.68,15.46.86,18.84-4.92,25.86c0,0-2.4,3.39-1.76,4.63s-.11,3.4-.11,3.4l-.92,20.45s0,8.76,2.07,12,4.84,26.09,4.84,26.09l.1,24.85s-9.79,7.21-16.49-.72c0,0,.08-9.28-.93-11S657,315.36,657,315.36a8.47,8.47,0,0,0-2.16-5.26c-2.07-2-1.35-7.63-1.35-7.63s-2.89-1.56-3.81-6.61-3.92-16.08-3.92-16.08-6.23-16.34-5.79-26.64-.61-15.67-.61-15.67l-1.28-24-.15-2.85Z"/><path class="cls-15" d="M664.27,338.44c1.31-.62,2.94-6.26,2.94-6.26S663,339.06,664.27,338.44Z"/><path class="cls-15" d="M659,316.71c1.81,0,6-3.32,6-3.32S657.15,316.71,659,316.71Z"/><path class="cls-25" d="M652.37,156a13.84,13.84,0,0,0-1.23-8.26c-.1-.2-.21-.4-.32-.6a11.9,11.9,0,0,0-.83-1.3h0a14.36,14.36,0,0,0-1.33-1.59c-1.87-1.9-.86-3.84,1.17-5.5.27-.22.54-.43.84-.63a40.37,40.37,0,0,1,9.28-4.38s1.33,3.14,3.34,6.83c.06.11.12.23.19.34a44.36,44.36,0,0,0,5.38,7.94,12.69,12.69,0,0,0,2.7,2.36c2.07,1.3.88,3.76-1.47,6.36-4.13,4.57-11.84,9.57-11.84,9.57l-9.75,9.6L644,178.67l-4.49,1.93v-6.81Z"/><path class="cls-26" d="M638.7,121.45a1.47,1.47,0,0,0-.61.55L636,124.87a9.56,9.56,0,0,0-2.26,4.69,18,18,0,0,0,.14,2.64,32.64,32.64,0,0,1-.35,4.84,10,10,0,0,0,.46,4.81,4.35,4.35,0,0,0,3.61,2.84,2.74,2.74,0,0,1-.52-2.54,4,4,0,0,0,2.83,1.32c-1-1.7-2-3.53-1.94-5.49a21.48,21.48,0,0,1,1-4.07,16.14,16.14,0,0,0,.3-4.6,5.7,5.7,0,0,1,.34-2.89c.22-.41.54-.76.78-1.17C640.9,124.25,640.67,120.61,638.7,121.45Z"/><path class="cls-18" d="M634,130.92a16.23,16.23,0,1,1,16.83,16.24h-.6A16.24,16.24,0,0,1,634,130.92Z"/><path class="cls-15" d="M653.25,210.2l.5,3.56s-10.92-.94-12.47-1.45c-.91-.3-2.27.49-3.25,1.2l-.15-2.85Z"/><path class="cls-27" d="M653.75,213.16s-10.93-.94-12.48-1.45-4.43,2.17-4.43,2.17-.9-15.39-.2-16.83.1-7.53.1-7.53c-4.23-7.32,3.51-17.94,3.51-17.94L652.36,156h0l-10.67,15.78c-2.1,3.89,6.08-.72,6.08-.72Z"/><path class="cls-22" d="M644.37,173.75c1.75-4.43,20.52-23.62,20.52-23.62l.14-.08a7.51,7.51,0,0,1,3.81-1.2,4.18,4.18,0,0,1,3.06,1.28c2.89,2.88,4.65,8.45,4.65,8.45s.43,1,1,2.38c.91,2.44,2.1,6.17,1.7,8.45-.62,3.62-2.47,20.11-1.54,23s-1.45,24-1.45,24-5,24.85-10.1,25.37l-.76.06c-3.2.18-7.25-.47-10.09-3.48-1.73-1.84-3-4.57-3.38-8.54-1-11-.21-17-2.06-21.35s-3.3-19-3.3-19A56.57,56.57,0,0,1,644,178.67,11,11,0,0,1,644.37,173.75Z"/><path class="cls-15" d="M670.77,257.76c-1.47.18-5.73-3.61-5.73-3.61S672.23,257.58,670.77,257.76Z"/><path class="cls-15" d="M669.74,260.19a60.28,60.28,0,0,1-5.83-2.4C665.64,257.25,671.08,260.52,669.74,260.19Z"/><path class="cls-15" d="M651.59,249.71s-2.65,22.19,5.91,21,4.3-19.63,4.3-19.63Z"/><path class="cls-19" d="M651.9,249.42s-2.63,22.2,5.91,21,4.3-19.64,4.3-19.64Z"/><path class="cls-28" d="M632.09,126.08a4.08,4.08,0,0,0,1.06,2.34c1.14.88,1.37-.12,1.81-1,1.13-2.37,4-1.22,6.19-.08l1.15,1.47a9.58,9.58,0,0,1,1.31,2,16.24,16.24,0,0,1,.55,1.8c.29,1.05.73,2.05,1.11,3.07a36,36,0,0,1,2.37,12.78c0,2.33-.59,6.49,1,8.37s2.83-4.4,2.86-5.6a17.42,17.42,0,0,0-1-4.75,21.51,21.51,0,0,1-.42-8.49c.09-.53.18-1.06.23-1.58,1.48,2.75,2.87,5.76,5.68,7,2.16.95,4.73.57,7,1.34a2.53,2.53,0,0,1,1.13.68,3.4,3.4,0,0,1,.56,1.69c.68,4.07,3.23,7.6,6.23,10.42a8.48,8.48,0,0,0,7,2.85,34.12,34.12,0,0,0,5-.37c.63-.09,1.4-.34,1.48-1a15.35,15.35,0,0,1-4.12-7.05,2.66,2.66,0,0,1,.23-2.45c.27-.32.68-.51.92-.85a1.7,1.7,0,0,0-.12-1.94,6,6,0,0,0-1.57-1.36c-4.93-3.62-7.41-10-7.1-16.11.2-3.87,1.37-7.94-.19-11.49a12.59,12.59,0,0,0-5.18-5.32c-2.12-1.34-4.42-2.41-6.42-3.94a39,39,0,0,0-4.69-3.64c-3.59-2-8.08-1.24-11.82.4-2.91,1.27-5.83,3.44-6.28,6.58a3.7,3.7,0,0,1-.36,1.47,2.77,2.77,0,0,1-1.17.86,11,11,0,0,0-3.61,2.31C630.79,119,631.38,122.81,632.09,126.08Z"/><path class="cls-27" d="M655.42,172.92c.72,4,6.73,29.92,6.73,29.92s.2,3.29,1,4.63-2.27,5.05-2,6.91-1.64,3.4-1.64,3.4a32.91,32.91,0,0,0-.93,4.95c0,1.34-1.24,2.38-.93,4.44s-1.34,3.4-1.6,6.39a21.23,21.23,0,0,1-2.32,6.71s-2.78,9.07-2.58,10.93,11.86,2.57,11.86,2.57.9-9.38,1.2-10.1.94-4.75,2.19-5.26,4.21-7.63,4.21-9.49,3.19-13.41,4.32-17.44,1.45-16.11,1.45-16.11,1-18-1.34-25.13L675,170c-3.62-10.5-19.16-8.2-19.6,2.9"/><path class="cls-24" d="M615,182.55,601.55,163a2.05,2.05,0,0,1,.53-2.85l-.32.22h0a1.27,1.27,0,0,1,1.76.33l14.34,20.77,0,0a1.28,1.28,0,0,1-.35,1.77l.32-.22A2.05,2.05,0,0,1,615,182.55Z"/><path class="cls-11" d="M601.93,160.26a1,1,0,0,1,1.45.27L618,181.71a1,1,0,0,1-.27,1.45l-.24.17h0l-15.78-22.91h0l.24-.17Z"/><rect class="cls-29" x="604.23" y="163.17" width="0.26" height="2.27" rx="0.1" transform="translate(13.45 371.83) rotate(-34.56)"/><circle class="cls-30" cx="332" cy="122.85" r="2.74"/><circle class="cls-31" cx="339.43" cy="122.85" r="2.74"/><circle class="cls-16" cx="346.86" cy="122.85" r="2.74"/></svg>