<svg id="Layer_1" data-name="Layer 1" xmlns="http://www.w3.org/2000/svg" viewBox="0 0 960 380"><defs><style>.cls-1{opacity:0.2;}.cls-2{fill:#abd8e6;}.cls-11,.cls-12,.cls-13,.cls-14,.cls-15,.cls-2,.cls-5,.cls-6,.cls-7,.cls-9{fill-rule:evenodd;}.cls-3{fill:none;stroke:#aad8e7;stroke-miterlimit:10;stroke-width:6px;opacity:0.22;}.cls-4{fill:#8c6698;}.cls-5{fill:#f8b3b2;}.cls-16,.cls-6{fill:#302100;}.cls-7,.cls-8{fill:#555845;}.cls-9{fill:#f2f1e9;}.cls-10{fill:#e34f45;}.cls-11{fill:#f0b7aa;}.cls-12{fill:#e79433;}.cls-13{fill:#fab221;}.cls-14{fill:#33ad73;}.cls-15{fill:#f58c00;}.cls-17{opacity:0.5;}.cls-18{fill:#abd7e6;}</style></defs><title>app-ilustraciones</title><g class="cls-1"><path class="cls-2" d="M675.78,374.74s31.55-29.48,31.55-79.85S649.54,190,581.1,215.08C531.5,233.22,520.37,271,449,208.76c-173.68-151.49-215.12,78.44-156.59,166l2.77,4.84,369.91.42Z"/></g><circle class="cls-3" cx="632.89" cy="161.74" r="12.79"/><circle class="cls-3" cx="394.48" cy="79.81" r="11.28"/><g class="cls-1"><path class="cls-2" d="M430.33,133.25s11.21,49.46,50.09,52.87S533.86,144,534.8,133.37s-3.51-33.63-49.38-43.29S424.75,111.6,430.33,133.25Z"/><path class="cls-2" d="M534.38,151.26s-9.29,10.74-3.6,20.07,18.38,5,20.92,3.5,7-6.37,1.56-18.32S538.34,146.41,534.38,151.26Z"/></g><path class="cls-4" d="M457.35,341.33,456,351.57a4.83,4.83,0,0,1-1,2.4c-2.56,3.21-9.65,13-1.9,14.4,2.45.45,4.32.73,5.75.89a4.87,4.87,0,0,0,5.28-3.84l.22-1,2.12-10.06a5.3,5.3,0,0,0,.1-.8l.49-11.36a4.87,4.87,0,0,0-4.63-5.07h0A4.86,4.86,0,0,0,457.35,341.33Z"/><path class="cls-4" d="M527.85,356.92a3.37,3.37,0,0,0-2.3,3.76,10.5,10.5,0,0,1-.27,5.21c-1.22,3.13-1.76,10.45-.88,10.62l4.85,1a2.22,2.22,0,0,1,.37.09c1.35.46,10.26,3.34,14.28,2.05l.16-.05c3.44-1.14,2.87-6.3-.75-6.56h-.09c-3.31-.18-11-12.73-11.14-15.52C532,356,529.78,356.32,527.85,356.92Z"/><path class="cls-5" d="M576.71,145.4c0,.84-.06,1.78-.1,3L575.15,146l-.19-2.5c-1-1.58-2.06-1.12-2.56-.4l.37,4.33,2.9,5.81c.61,1.22,2.53,1.9,4.41,2,3.88.28,6.37-2.15,6.67-7.49l2.17-6a1.24,1.24,0,1,0-2.42-.56L585,144.85a1.38,1.38,0,0,0-.27-.27L586,139a1.24,1.24,0,0,0-2.45-.41l-1.23,5a1.39,1.39,0,0,0-.27,0l.35-5.64a1.24,1.24,0,0,0-2.48-.15l-.39,6.21-.34.17-.41-5.72-.83-3.23a1.24,1.24,0,0,0-2.48.1l.81,3.07Z"/><path class="cls-5" d="M582.24,138.08a1.24,1.24,0,0,0-2.33-.85l-.57,1.53a1.24,1.24,0,0,0,2.33.86Z"/><path class="cls-5" d="M583.52,137.86a1.24,1.24,0,0,1,2.09,1.35c-1,1.59.07-.13-.94,1.47a1.24,1.24,0,0,1-2.09-1.35Z"/><path class="cls-5" d="M586.74,140.35a1.24,1.24,0,1,1,1.76,1.75l-1,1.06a1.24,1.24,0,0,1-1.76-1.76Z"/><path class="cls-6" d="M575,152l-17.5,20c-4.48,5.23,3.21,11.56,7.56,6.21l17.64-21.75C580.81,153.54,578.15,152.58,575,152Z"/><path class="cls-7" d="M453.26,347.45c4.41,3.43,10,3.38,15.27,1.85l1.29-53.78c.29-10.47-13.83-11.35-13.85-.39Z"/><path class="cls-7" d="M468.62,296.79c-5,7.46-16.08.46-11.71-7.41l36.72-60.52,16,10.14Z"/><path class="cls-7" d="M518.17,305.12c2.36,8.69,15.06,5.63,13.47-3.23l-17.19-78.08L496,228.24Z"/><rect class="cls-8" x="488.7" y="226.63" width="22.28" height="31.57" transform="translate(-18.64 42.96) rotate(-4.83)"/><path class="cls-6" d="M561.53,170.57l-31.15-7.48c-8.93-2.15-11,15.22-1.88,15.74L560,180.61C566.66,181,568.11,172.15,561.53,170.57Z"/><path class="cls-9" d="M481.76,165.75l47.2.69L522.22,232c-7.91,6.43-34.78,4.21-37.89-.78Z"/><rect class="cls-10" x="502.58" y="206.83" width="5.72" height="34.83" transform="translate(270.74 724.92) rotate(-88.81)"/><rect class="cls-10" x="502.88" y="192.34" width="5.72" height="34.83" transform="translate(285.53 711.03) rotate(-88.81)"/><rect class="cls-10" x="503.19" y="177.84" width="5.72" height="34.83" transform="translate(300.31 697.14) rotate(-88.81)"/><rect class="cls-10" x="503.49" y="163.35" width="5.72" height="34.83" transform="translate(315.1 683.25) rotate(-88.81)"/><path class="cls-11" d="M505.34,137.84h0a7.11,7.11,0,0,1,6.95,7.24l-.46,22a7.11,7.11,0,0,1-7.24,6.95h0a7.12,7.12,0,0,1-6.95-7.24l.46-22A7.11,7.11,0,0,1,505.34,137.84Z"/><path class="cls-6" d="M452.19,168.3l31.43-6.19c9-1.77,10.41,15.68,1.23,15.81l-31.5.47C446.63,178.49,445.55,169.61,452.19,168.3Z"/><path class="cls-5" d="M444.65,139c.05.84.11,1.78.19,3l1.38-2.45.11-2.5c.91-1.61,2-1.19,2.55-.49l-.23,4.34-2.71,5.9c-.56,1.24-2.46,2-4.34,2.18-3.87.4-6.44-1.95-6.91-7.27l-2.36-5.9a1.25,1.25,0,1,1,2.4-.64l1.65,3.57a1.14,1.14,0,0,1,.26-.28l-1.44-5.56a1.24,1.24,0,0,1,2.43-.48l1.4,5,.27,0-.54-5.62a1.25,1.25,0,0,1,2.48-.23l.59,6.19.34.16.23-5.73.73-3.25a1.24,1.24,0,1,1,2.48,0l-.71,3.09Z"/><path class="cls-5" d="M438.88,131.82a1.24,1.24,0,0,1,2.3-.93c.72,1.75-.09-.23.63,1.52a1.25,1.25,0,0,1-2.31.93Z"/><path class="cls-5" d="M437.6,131.64a1.24,1.24,0,0,0-2.05,1.41l1,1.44a1.24,1.24,0,1,0,2-1.41Z"/><path class="cls-5" d="M434.45,134.23a1.24,1.24,0,0,0-1.7,1.81l1.08,1a1.24,1.24,0,0,0,1.7-1.81Z"/><path class="cls-6" d="M446.45,147.05l10.82,24.77c2.71,6.34-6.55,10.07-9.07,3.66L437.78,149C440.47,146.75,443.3,146.63,446.45,147.05Z"/><path class="cls-7" d="M538,362.87c-4.21,3.68-9.81,3.93-15.15,2.7l-4.68-60.33c-.88-10.44,13.17-12.11,13.8-1.16Z"/><path class="cls-6" d="M499.37,159.18c-6.86,1-11.44,1.77-16.8,6.28-3,38.35-4.9,101.82-25.86,114.75.53,2.45,5.82,7.77,7.38,8.34,45.3-32,34.3-82.08,35.28-129.37Zm13.1,142.19,21.95.46c.78-21.74,3.18-102.49-3.7-137.58-2.54-2.94-10.51-4.43-15.3-4.74Z"/><path class="cls-12" d="M506.29,171.53c-68.15-1.42-36.77-66.78,1.63-66S574.43,172.94,506.29,171.53Z"/><path class="cls-13" d="M506.46,163.82c-59.77-1.24-32.25-58.14,1.43-57.44S566.23,165.06,506.46,163.82Z"/><path class="cls-14" d="M516.93,108.41c2.31,1,.55,4.18-7.77,3.87-6.28-.23-13-1.21-12.12-2.91,1.13-2.18,6.42-1.19,9-3.43,4.74-4.14,8.41-10.12,2.13-12.59-1-.4-.81-1.95.14-1.72,3,.72,5.37,4.33,4.93,6.69-.73,4-3.17,7.26-3,7.63C510.9,107.35,515.08,107.56,516.93,108.41Z"/><path class="cls-15" d="M506.32,173.7c-31.41-.66-25.17-48.56-9.26-62.36,2.8-2.43,7.46.76,10.57.83,3.6.07,7-3.06,10,.23C532,128.14,536.87,174.33,506.32,173.7Z"/><path class="cls-13" d="M506.51,165.76c-26-.54-20.82-41.66-7.63-53.51,2.32-2.08,6.18.65,8.77.7,3,.07,5.82-2.62,8.3.2C527.81,126.65,531.84,166.29,506.51,165.76Z"/><path class="cls-7" d="M523.76,139.42c-7.1,9.3-24.1,12.15-32.06,4.29C501.31,160.27,519,159.62,523.76,139.42Z"/><path class="cls-7" d="M523.76,139.42c-4.57,6-20.49,13.43-32.06,4.29C502.15,157.43,517.93,153.29,523.76,139.42Z"/><path class="cls-15" d="M516.67,129.72a6.13,6.13,0,1,1-6.41,6A6.21,6.21,0,0,1,516.67,129.72Z"/><path class="cls-15" d="M498.82,129.35a6.13,6.13,0,1,1-6.42,6A6.2,6.2,0,0,1,498.82,129.35Z"/><path class="cls-7" d="M516.67,129.72a6.25,6.25,0,0,1,6.09,5.18,6.32,6.32,0,0,1-12.38-.26A6.25,6.25,0,0,1,516.67,129.72Z"/><path class="cls-7" d="M498.82,129.35a6.25,6.25,0,0,1,6.08,5.18,6.32,6.32,0,0,1-12.38-.26A6.25,6.25,0,0,1,498.82,129.35Z"/><path class="cls-16" d="M393.18,129.06c-10.77,10.32-22,12.73-28.27,13.21l2.59-3.58-4.79.3-3.41-3.66-.59,4.3c-4.12-4.76-10.34-14.33-10.79-29.07l-30.8,6.91s12.72,1.17,13.33,12.73c0,0,11.37-5.43,12.35,9.94,0,0,6.95-7,15.08,5.44l-1.08,7.88,4.6-6.36c14.68-3.29,14.71,6.66,14.71,6.66,11.47-10.29,15.78,1.55,15.78,1.55,8.53-7.82,18.43.26,18.43.26Z"/><path class="cls-16" d="M585.91,36.69C596.24,57.3,595.54,77.54,593.4,87l-5-8-.23,7.24-6.82-2.52,7.46,7.81c-8.92,3.92-31.18.15-52.12-11.83l18.48,33.88s.72-16.89,17.15-1.08c0,0-3.58-16,16.73-6.61,0,0-8.77-10.08,4-10.69l12.31,6.35-7.29-9.7c-7.76-12.64,16.54-18.69,16.54-18.69-10-21.63,9.49-22.6,9.49-22.6-7.67-16.17,8.79-27.1,8.79-27.1Z"/><g class="cls-17"><path class="cls-18" d="M446.38,51.94l-.53,6.94-6.94-.53a2,2,0,1,0-.31,4.06l6.94.53L445,69.88a2,2,0,0,0,4.06.32l.54-6.94,6.94.53a2,2,0,0,0,.31-4.06l-6.94-.53.53-6.94a2,2,0,1,0-4.06-.32Z"/></g></svg>