<svg xmlns="http://www.w3.org/2000/svg" viewBox="0 0 960 380"><defs><style>.cls-1,.cls-35{isolation:isolate;}.cls-2{opacity:0.2;}.cls-12,.cls-3{fill:#abd7e5;}.cls-3{fill-rule:evenodd;}.cls-4{fill:#66c192;}.cls-5{fill:#eb8882;}.cls-6{fill:#ffeda5;stroke:#eb8882;}.cls-21,.cls-6{stroke-miterlimit:10;}.cls-36,.cls-7{fill:#abd7e6;}.cls-7{opacity:0.4;}.cls-8{fill:#e79432;}.cls-9{fill:#302411;}.cls-10,.cls-26{fill:#f7b11d;}.cls-11{fill:#32ac73;}.cls-12{opacity:0.53;}.cls-13{fill:#d1afcf;}.cls-14,.cls-17,.cls-19,.cls-20,.cls-37{fill:none;}.cls-14{stroke:#2f1a43;}.cls-14,.cls-17,.cls-19,.cls-20,.cls-22,.cls-37{stroke-linecap:round;stroke-linejoin:round;}.cls-14,.cls-20,.cls-22{stroke-width:1.52px;}.cls-15{fill:#d6793b;}.cls-16{fill:#fac238;}.cls-17{stroke:#828270;}.cls-17,.cls-19{stroke-width:2px;}.cls-18{fill:#8b6697;}.cls-19{stroke:#575640;}.cls-20{stroke:#b3b0a5;}.cls-21,.cls-22{fill:#2f1a43;}.cls-21{stroke:#8b6697;}.cls-22{stroke:#b28dc0;}.cls-23{fill:#fdd34f;}.cls-24{fill:#f7b2b1;}.cls-25{fill:#976662;}.cls-25,.cls-26{opacity:0.3;mix-blend-mode:multiply;}.cls-27{fill:#e24f45;}.cls-28{fill:#1f190d;}.cls-29{fill:#f1f1e9;}.cls-30{fill:#028045;}.cls-31{fill:#555945;}.cls-32{fill:#f8b5b7;}.cls-33{fill:#fae37a;}.cls-34{fill:#c8a8cf;}.cls-35{opacity:0.1;}.cls-37{stroke:#302411;stroke-width:0.5px;}</style></defs><title>app-ilustraciones</title><g class="cls-1"><g id="Layer_1" data-name="Layer 1"><g class="cls-2"><path class="cls-3" d="M711,374.55s37.08-34.64,37.08-93.85-67.91-123.24-148.36-93.8c-58.29,21.33-71.38,65.7-155.22-7.43-204.12-178-252.83,92.19-184,195.08l3.25,5.69,434.75.49Z"/></g><path class="cls-4" d="M614.31,219.8c3.12,1.79,4.84,5,6,8.26a56.63,56.63,0,0,1,1.42,32.23.26.26,0,0,0,.5.13,48.42,48.42,0,0,0,1.21-22.85c-1.08-6.3-2.9-14.67-9-18.08a.18.18,0,0,0-.17.31Z"/><path class="cls-5" d="M607.32,205.68s-6.57-7.16-11-1,4.57,9.72,4.57,9.72-11.54,3.27-7.08,10.21,11.61-1.47,11.61-1.47.6,9.27,7.83,7.87,2.25-10.87,2.25-10.87,8,1.38,8.53-4.92-6.12-5.44-6.12-5.44,4.26-7.41-1.69-10.22S607.32,205.68,607.32,205.68Z"/><path class="cls-4" d="M622.49,234a10.34,10.34,0,0,0,5.61-12.54S619.69,223.48,622.49,234Z"/><circle class="cls-6" cx="609.62" cy="214.54" r="5.78"/><path class="cls-4" d="M679.52,234c.59,2.72-.33,5.37-1.61,7.75a43,43,0,0,1-4.73,7,44.1,44.1,0,0,1-13,10.66c-.22.12,0,.45.2.35a37.56,37.56,0,0,0,13.73-11.22c3-3.91,6.9-9.32,5.69-14.58,0-.17-.3-.1-.26.07Z"/><path class="cls-5" d="M684,222.58s.68-7.51-5.15-6.83-3.19,7.69-3.19,7.69-7.89-4.91-9.55,1.26,6.9,5.89,6.9,5.89-5,5.19-.43,8.6,7.4-4.38,7.4-4.38,3.41,5.33,7.28,2.33-.07-6.35-.07-6.35,6.47-1.42,5-6.3S684,222.58,684,222.58Z"/><path class="cls-4" d="M675.63,246.05a8,8,0,0,0,10.13-3.32S680.21,239,675.63,246.05Z"/><path class="cls-4" d="M663.74,244a8,8,0,0,0,5.94,8.84S671.81,246.52,663.74,244Z"/><circle class="cls-6" cx="680.09" cy="228.51" r="4.48"/><path class="cls-7" d="M608,101.65a11.2,11.2,0,0,0-5.69,1.59A18.66,18.66,0,0,0,566.74,98a13.06,13.06,0,0,0-3.51-.53,13.34,13.34,0,0,0,0,26.68H608a11.24,11.24,0,1,0,0-22.48Z"/><path class="cls-8" d="M387.71,89.85c-27,0-48.89,60.85-48.89,87.86a48.9,48.9,0,0,0,97.79,0C436.61,150.7,414.72,89.85,387.71,89.85Z"/><path class="cls-9" d="M376.61,207.46l9.9,6.14V172.12l-11.1-6.88a4.27,4.27,0,0,1-1.88-2.5h0a4.33,4.33,0,0,1,3.08.57l9.9,6.14V153.37a38.18,38.18,0,0,1,1.13-9.23,37.7,37.7,0,0,1,1.14,9.23v26.25l14.61-9.06a7.17,7.17,0,0,1,3.89-1.07,7.16,7.16,0,0,1-2.69,3l-15.81,9.8v81.63h-2.27V216.27l-11.1-6.88a4.3,4.3,0,0,1-1.88-2.5h0A4.33,4.33,0,0,1,376.61,207.46Z"/><path class="cls-10" d="M348.73,232.89s15.13-1.83,19.71-13.29-7-18.33,2.6-24.29,13.69-12.34,8.86-24.75c-4.28-11-16.5-9.17-10.09-25.67s-.5-36.33-23.36-36.21c-18.77.1-25.22,6.42-26.6,26.58s-8.25,16.5-12.83,24.3-4.12,17.4,10.54,25.2,10.09,11.46,2.75,16.05S320,232.89,348.73,232.89Z"/><path class="cls-9" d="M332.21,214.86l11.66,7.23V173.21l-13.07-8.1a5,5,0,0,1-2.22-3h0a5.09,5.09,0,0,1,3.63.67l11.66,7.23V151.11a44.84,44.84,0,0,1,1.34-10.88,44.84,44.84,0,0,1,1.34,10.88v30.94l17.22-10.67a8.49,8.49,0,0,1,4.58-1.27,8.48,8.48,0,0,1-3.17,3.54L346.55,185.2v96.19h-2.68V225.24l-13.07-8.1a5.06,5.06,0,0,1-2.22-2.95h0A5.09,5.09,0,0,1,332.21,214.86Z"/><path class="cls-11" d="M667.84,19.13c-34.57,0-62.58,77.87-62.58,112.44a62.58,62.58,0,0,0,125.15,0C730.41,97,702.4,19.13,667.84,19.13Z"/><ellipse class="cls-12" cx="649.14" cy="277.25" rx="87.47" ry="14.48"/><ellipse class="cls-13" cx="491.5" cy="355.31" rx="13.07" ry="2.05"/><line class="cls-14" x1="441.82" y1="342.67" x2="477.07" y2="327.29"/><ellipse class="cls-13" cx="441.82" cy="342.67" rx="13.07" ry="2.05"/><path class="cls-15" d="M445.86,317.74,435,327.29l7.31,4,8.36-6.69S447,320.78,445.86,317.74Z"/><path class="cls-9" d="M435,327.29l-4.71,2.95s6.49,6.16,11.25,10.13c2.28,1.9,6.77.75,7.35.74.86,0,.23-3.68-3.74-3.19-1.25-3.23-2.84-6.62-2.84-6.62Z"/><path class="cls-16" d="M444.75,280.53s16.32,16.24,20.61,19.1c-9.49,7-23.83,20.55-23.83,20.55l8.62,10.52s34.62-23.78,36.43-28.47-9.12-18.2-9.12-18.2S449,276.3,444.75,280.53Z"/><polyline class="cls-17" points="522.32 250.48 555.09 331.23 409.1 334.48 444.75 278.01 444.75 333.69"/><line class="cls-17" x1="444.75" y1="293.95" x2="528.4" y2="265.44"/><path class="cls-18" d="M436.3,273.07s-7-.55-7.74.52-1.24,6.28,1.72,6.8,24.81-1,24.81-1S439.88,273.07,436.3,273.07Z"/><path class="cls-15" d="M508.47,244.48s9.17-2.2,11.9-1,5.07,5.94,0,8.63c0-2.78-5.85-2.3-6.24,0l-.39,2.29-5.47-2.29Z"/><path class="cls-18" d="M521.78,252.89a4.09,4.09,0,1,1-4.09-4.08A4.09,4.09,0,0,1,521.78,252.89Z"/><path class="cls-19" d="M452.65,334.48a43.55,43.55,0,1,1-43.55-43.55A43.55,43.55,0,0,1,452.65,334.48Z"/><circle class="cls-20" cx="409.1" cy="334.48" r="38.04"/><circle class="cls-21" cx="409.1" cy="334.48" r="3.78"/><path class="cls-19" d="M598.64,330.7a43.55,43.55,0,1,1-43.55-43.55A43.55,43.55,0,0,1,598.64,330.7Z"/><circle class="cls-20" cx="555.09" cy="330.7" r="38.04"/><circle class="cls-21" cx="555.09" cy="330.7" r="3.78"/><path class="cls-18" d="M490.94,328.61a16.11,16.11,0,1,1-16.1-16.1A16.1,16.1,0,0,1,490.94,328.61Z"/><line class="cls-22" x1="490.94" y1="355.31" x2="474.84" y2="328.61"/><path class="cls-23" d="M465.36,259.45s42.07,10.92,44.45,20.68S497,336.69,497,336.69s-8.58,2.74-15.6-2.34C483.7,319.14,486,289.1,486,289.1s-49.82-5.18-50-15.93C439.23,266.86,457.78,257.3,465.36,259.45Z"/><path class="cls-5" d="M459.12,238.38s4.29,17.95,6.24,21.07c-5.07,3.9-11.7,2.34-18.33,7.8a37.72,37.72,0,0,1-14.31,7.12s-5.73.29.39-17.65a56.41,56.41,0,0,1,19.54-26.92Z"/><path class="cls-9" d="M441.31,160.49s-11.68,15.51,6.25,19.72c1.81-2,5.19-5.41,6-5.16s12.48-4.7,12.48-4.7h1.19s6.1,2.62,5.32-3.36-6-10.4-15.35-13c4.42-4.42,5.72-15.35-8.32-12.75-4.42-1-7.8,5.2-7.8,5.2s-1.3-1-4.43.26S427.78,159.71,441.31,160.49Z"/><path class="cls-15" d="M466.92,165.82s3.13,20.68-11.7,17.17c-1.56,7.41,0,9,0,9l-9.36-2.73,1.95-10.34s-5.28-3.51-1.95-8,7,1.17,7,1.17A14.94,14.94,0,0,0,466.92,165.82Z"/><path class="cls-24" d="M474.6,233.31s-12-42.13-25-44.47S425.18,232.92,399,240.33s-26.92,14.44-21.06,23.8,52.6,26.53,74.67-26.92c5.69,10.15,8,12.49,11.54,14.44s39.41,12.48,39.41,12.48a30.07,30.07,0,0,0,4.68-21.06C501.65,241.11,474.6,233.31,474.6,233.31Z"/><path class="cls-25" d="M452.65,237.21S447.32,224,446,213.29a55.52,55.52,0,0,0,0,10.4l-2.87-4.42a60,60,0,0,0,9.1,18.94C452.23,236.65,452.65,237.21,452.65,237.21Z"/><polygon class="cls-25" points="474.6 233.31 468.35 238.21 476.42 233.84 474.6 233.31"/><path class="cls-26" d="M486,289.1,491,284l-2.47,3.9a49,49,0,0,1,4.81-1.37,61.1,61.1,0,0,1-7.37,3.71Z"/><polygon class="cls-27" points="399.92 218.29 394.36 221.22 395.29 222.78 399.92 218.29"/><path class="cls-9" d="M447.89,222.64s-5.77,7.62-14.15,11.35a20.76,20.76,0,0,0-3.29-2.43c3.94-11.57,9.09-35.66,12.05-39.6,0,0-22-3.64-27.2,0-3,2.1-7.39,12.79-10.42,23h0s-4.15-.31-5.25,1.34c-1.56,2.34-3.92,16.25-3.51,17,1.36,2.45,5.57.88,5.57.88,2.17,7.34,22.14,6,25.83,3.41a39.29,39.29,0,0,0,21.7-10.28Z"/><path class="cls-28" d="M404.88,215s-3.86,15.57-3.19,19.18l-1,.28s1-14.76,2.61-19.47Z"/><path class="cls-28" d="M435.21,215c-.67-.41-29.33-3.24-29.55-2.54l-.27.86s28.1,2.57,29.41,3.22Z"/><polygon class="cls-28" points="427.78 190.34 420.3 213.94 422.64 214.44 429.48 190.5 427.78 190.34"/><polygon class="cls-29" points="424.89 213.76 424.89 211.34 431.55 212.55 431.32 214.44 424.89 213.76"/><path class="cls-15" d="M484.18,336l-1.26,13.4,8.19-1.56,2.21-10.47S487,337.58,484.18,336Z"/><path class="cls-9" d="M482.92,349.37l-1.76,5.27s19.51,1.37,20.88.2-10.93-7-10.93-7Z"/><path class="cls-7" d="M526.8,167.28a6.33,6.33,0,0,0-3.2.9,10.49,10.49,0,0,0-20-3,7.49,7.49,0,1,0-2,14.71h25.2a6.33,6.33,0,0,0,0-12.65Z"/><path class="cls-7" d="M569.18,154.58a4.94,4.94,0,0,0-2.5.7A8.19,8.19,0,0,0,551,153a5.7,5.7,0,0,0-1.55-.23,5.86,5.86,0,0,0,0,11.72h19.69a4.94,4.94,0,1,0,0-9.88Z"/><path class="cls-30" d="M701.36,215.92s10.35-1.26,13.49-9.1-4.81-12.54,1.77-16.62,9.37-8.43,6.07-16.93c-2.93-7.52-11.29-6.27-6.9-17.56s-.35-24.85-16-24.77c-12.85.07-17.26,4.39-18.2,18.19s-5.65,11.28-8.78,16.62S670,177.65,680,183s6.9,7.84,1.88,11S681.71,215.92,701.36,215.92Z"/><path class="cls-9" d="M690.06,203.58l8,4.95V175.09l-8.95-5.55a3.4,3.4,0,0,1-1.51-2h0a3.44,3.44,0,0,1,2.48.46l8,4.94V160a30.57,30.57,0,0,1,.92-7.44,30.56,30.56,0,0,1,.91,7.44v21.16l11.78-7.3a5.77,5.77,0,0,1,3.13-.86,5.68,5.68,0,0,1-2.16,2.42l-12.75,7.9V249.1H698V210.68l-8.95-5.54a3.45,3.45,0,0,1-1.51-2h0A3.49,3.49,0,0,1,690.06,203.58Z"/><path class="cls-9" d="M653.36,162.93l13.58,8.42V114.48l-15.22-9.43a5.93,5.93,0,0,1-2.58-3.43h0a5.9,5.9,0,0,1,4.22.78l13.58,8.41v-22a52.43,52.43,0,0,1,1.55-12.66,51.94,51.94,0,0,1,1.56,12.66v36l20-12.41a9.83,9.83,0,0,1,5.33-1.47,9.8,9.8,0,0,1-3.69,4.12l-21.67,13.43V240.35h-3.11V175l-15.22-9.43a5.9,5.9,0,0,1-2.58-3.43h0A6,6,0,0,1,653.36,162.93Z"/><path class="cls-31" d="M667.33,168c-5.52-9.32-16.43-9.76-16.43-9.76s-10.64-1.36-17.46,12.84c-6.36,13.24-15.14,26-1.42,29.11l2.48-7.72,1.54,8.29a52.23,52.23,0,0,0,5.87.11c14.7-.48,28.69.13,28.24-5.14C669.55,188.74,672.64,177,667.33,168Z"/><path class="cls-15" d="M631.24,249.66a22.2,22.2,0,0,1-.7,3c-.35,1-.88,1.87-1.2,2.85-1,3.13.39,6.61,2.62,9a14.72,14.72,0,0,0,7.18,4.27,29.65,29.65,0,0,0,6.17.65c5.74.19,11.62.37,17.05-1.48a29.13,29.13,0,0,0,5-2.25,3.62,3.62,0,0,0,1.28-1,3.54,3.54,0,0,0,.47-2.08c0-2.43-.51-4.85-.39-7.28a27.2,27.2,0,0,0,.19-4,7.42,7.42,0,0,0-5.68-6.4,15.5,15.5,0,0,0-4.71,0,122.38,122.38,0,0,1-12.26.55c-4.18,0-8.34-.67-12.5-.73-1.23,0-1.2.36-1.6,1.55A29.29,29.29,0,0,0,631.24,249.66Z"/><path class="cls-32" d="M643.11,189.62a7.27,7.27,0,0,1-1.05,3c-.73,1-1.92,1.56-2.7,2.52-1.18,1.43-1.24,3.45-1.25,5.3s0,3.53,1,5a8.7,8.7,0,0,0,2.48,2.19c3.58,2.41,7.44,4.86,11.75,4.94a6.28,6.28,0,0,0,4.88-1.77,7.82,7.82,0,0,0,1.18-2.11,27.76,27.76,0,0,0,2-8.51,10.06,10.06,0,0,0-.37-4.09A39.49,39.49,0,0,0,658.7,192a9,9,0,0,1-.87-5.32.65.65,0,0,0,0-.39.58.58,0,0,0-.46-.19l-8.55-.61a18.89,18.89,0,0,1-2.37-.27c-.46-.1-1.68-.75-2.12-.58C643.49,185,643.28,188.75,643.11,189.62Z"/><path class="cls-24" d="M643.11,189.62a7.27,7.27,0,0,1-1.05,3c-.73,1-1.92,1.56-2.7,2.52-1.18,1.43-1.24,3.45-1.25,5.3s0,3.53,1,5a8.7,8.7,0,0,0,2.48,2.19c3.58,2.41,7.44,4.86,11.75,4.94a6.28,6.28,0,0,0,4.88-1.77,7.82,7.82,0,0,0,1.18-2.11,27.76,27.76,0,0,0,2-8.51,10.06,10.06,0,0,0-.37-4.09A39.49,39.49,0,0,0,658.7,192a9,9,0,0,1-.87-5.32.65.65,0,0,0,0-.39.58.58,0,0,0-.46-.19l-8.55-.61a18.89,18.89,0,0,1-2.37-.27c-.46-.1-1.68-.75-2.12-.58C643.49,185,643.28,188.75,643.11,189.62Z"/><circle class="cls-24" cx="651.28" cy="178.23" r="12.54"/><path class="cls-33" d="M644.87,206.31a7.63,7.63,0,0,0,2.2,1.76,6.83,6.83,0,0,0,2.75.52c2.26.07,4.71-.35,6.28-2,2-2.09,2-5.47,3.55-7.92a1.82,1.82,0,0,1,.51-.56,1.77,1.77,0,0,1,.87-.2c2,0,3.76,1.29,5.33,2.53a7,7,0,0,1,1.88,1.91,6.59,6.59,0,0,1,.63,1.94,85.2,85.2,0,0,1,1.29,11.61c.14,2.15.28,4.3.27,6.46,0,7.09-1.69,14.07-3.33,21a3.28,3.28,0,0,1-1.31,2.31,3.41,3.41,0,0,1-1.14.28,139.45,139.45,0,0,1-14.13,1.17c-1.85,0-3.7,0-5.54-.13a3.24,3.24,0,0,1-.93-.16,2.69,2.69,0,0,1-1-.87c-2.56-3.22-2.71-7.68-2.69-11.79q.06-15.1,1.08-30.17a3.31,3.31,0,0,0-.53-2.48A30.69,30.69,0,0,0,644.87,206.31Z"/><path class="cls-34" d="M642.21,191.84c-.42.76-3.54,2.67-4.15,3.3-3.36,3.55-9.51,3.42-12.59,7.22a12,12,0,0,0-2.06,4.69c-.58,2.36-.9,4.94.08,7.17s2.94,3.62,4.28,5.54a21.15,21.15,0,0,1,2.79,7.14,16.35,16.35,0,0,1,.76,5.62c-.21,2.15-1.25,4.12-1.86,6.19s-.72,4.53.7,6.16a7,7,0,0,0,4.24,1.93,48.9,48.9,0,0,0,6.05.53c1.79.08,3.76.09,5.13-1.05a5.14,5.14,0,0,0,1.62-3.78,23.94,23.94,0,0,0-.42-4.21c-.19-1.45-.26-2.92-.32-4.38q-.42-9.84-.12-19.7a15.91,15.91,0,0,0-.2-4.08,22.45,22.45,0,0,0-2.12-4.95A18.64,18.64,0,0,1,642,195.3C642.19,191.79,643.72,189.11,642.21,191.84Z"/><path class="cls-34" d="M659.82,192.1c.64.67,2.83.88,3.65,1.31a12,12,0,0,0,2.41.83,31.23,31.23,0,0,1,8.44,3.88,5.15,5.15,0,0,1,1.41,1.22,5.47,5.47,0,0,1,.78,2.2,24.7,24.7,0,0,1,.72,6,25,25,0,0,1-1.39,6.29l-2.4,7.68c-1.8,5.74-3.6,11.53-4.11,17.52a41.43,41.43,0,0,0,.37,10,1.14,1.14,0,0,1-.12,1,.88.88,0,0,1-.59.27,5.72,5.72,0,0,1-3.33-.93A36.84,36.84,0,0,0,655.48,246a23.57,23.57,0,0,0,3.16-6.52,38,38,0,0,0,1-4.48l1.12-6.46a66.34,66.34,0,0,0,1-7.15,9.06,9.06,0,0,0-.16-2.7,13.59,13.59,0,0,0-1-2.43,20.74,20.74,0,0,1-2-12.4c.31-1.83.93-3.67.67-5.51s0-3.15-.44-4.9C656.88,186.23,658.6,190.86,659.82,192.1Z"/><path class="cls-34" d="M625.44,208.42c-.84,1.74-2.24,3.23-2.72,5.1a10.89,10.89,0,0,0-.24,2.67,12.53,12.53,0,0,0,.4,4c.26.83.7,1.59,1,2.4a8.63,8.63,0,0,1,.57,3.56c-.08,1.68-.66,3.31-.7,5-.07,2.64,1.15,5.12,2.35,7.48a5.5,5.5,0,0,1,7.16-3,6.58,6.58,0,0,1,.84.42,1.68,1.68,0,0,0,.36-1.19c.08-3.07.17-6.13.25-9.2.13-4.74.25-9.55-.84-14.17a13.43,13.43,0,0,0-2.66-5.78c-.74-.85-3.25-3.09-4.47-2.14-.54.43-.42,1.6-.5,2.19A9.06,9.06,0,0,1,625.44,208.42Z"/><path class="cls-34" d="M677.48,203.4a12.72,12.72,0,0,1,.42,3.85c0,2.65,0,5.31-.1,8a15.09,15.09,0,0,1-.52,4c-.27.85-.69,1.65-1,2.5-.84,2.55-.38,5.32-.31,8a8.93,8.93,0,0,1-.22,2.58c-.44,1.67-1.63,3-2.46,4.52a45.85,45.85,0,0,1-2.21,4.37c-.94,1.33-2.58,2.39-4.16,2a4.58,4.58,0,0,1-2.64-2.46,12.1,12.1,0,0,1-1.24-7.83c.59-3.26,2.5-6.14,3.19-9.38,1-4.44-.49-9-.45-13.57a6.5,6.5,0,0,1,.29-2.1,8.67,8.67,0,0,1,1.85-2.7,34.6,34.6,0,0,0,2.5-3.28c.51-.76,1.21-2.73,2.12-2.9C674.6,198.6,677,201.82,677.48,203.4Z"/><path class="cls-15" d="M614.89,247.68a12.47,12.47,0,0,0-3.44-.36,8.59,8.59,0,0,0-8.11,9.05,9.94,9.94,0,0,0,.13,1.08,14.57,14.57,0,0,0,1.36,3.72,12.5,12.5,0,0,0,3.7,4.89,14.22,14.22,0,0,0,3.27,1.55l8.9,3.36c1.3.49,2.61,1,3.94,1.44a77,77,0,0,0,20.58,4.09,22,22,0,0,0,6.39-.32,2.08,2.08,0,0,0,1.31-.71,2.3,2.3,0,0,0,.3-1l.54-3.84a3.24,3.24,0,0,0,0-1.61,3.1,3.1,0,0,0-1.48-1.4c-5.85-3.36-12.69-5.21-17.61-9.83-1.16-1.08-2.13-2.8-3.54-3.54-1.6-.84-3.48-1.31-5.13-2.09C622.35,250.52,618.8,248.58,614.89,247.68Z"/><path class="cls-35" d="M623.77,252.85c3.15,1,16.43,7.82,18.71,10.2-.31.11-10.66-5.69-11-5.78a63.63,63.63,0,0,1-8.35-2.94c-.54-.25-3.5-1.43-3.37-2.11S623.22,252.68,623.77,252.85Z"/><path class="cls-24" d="M663,278.49a.74.74,0,0,0,.5-.15.77.77,0,0,0,.16-.57l0-5.22a15.89,15.89,0,0,0-4.83-1.17l-7.69-1c.17,0-1.21,3.32-1,3.76.38.77,3.23,1.46,4,1.82C657,277.2,659.87,278.6,663,278.49Z"/><path class="cls-24" d="M638.88,272.53c-1.45.23-3.08.44-4,1.57-1.19,1.43-.68,3.57-.11,5.35a2.29,2.29,0,0,0,.49,1,2.33,2.33,0,0,0,1.53.47,6.91,6.91,0,0,0,3.89-.5,16.51,16.51,0,0,0,1.52-1.12A9.47,9.47,0,0,1,645,278a27.79,27.79,0,0,1,5.58-1.15,9.24,9.24,0,0,0,2.2-.39,2.44,2.44,0,0,0,1.54-1.5,3.57,3.57,0,0,0-.81-2.75,11.14,11.14,0,0,0-2.34-2.9c-1.43-1.11-2.14-.25-3.59.46A30.3,30.3,0,0,1,638.88,272.53Z"/><path class="cls-18" d="M635.08,273.84l-9.22-2.73a12.33,12.33,0,0,0-3.44-.66,4.11,4.11,0,0,0-3.15,1.27,6.22,6.22,0,0,0-1.1,3.08l-.38,2.32a11.67,11.67,0,0,0-.21,3.58,4,4,0,0,0,1.83,2.95c1.28.69,2.84.35,4.27.06a46.57,46.57,0,0,1,8.74-.94,7.09,7.09,0,0,0,3.24-.51,4.06,4.06,0,0,0,2-3.22C637.81,277.05,637.15,274.45,635.08,273.84Z"/><path class="cls-18" d="M666.65,271.46a22.48,22.48,0,0,0,3.39-1.29,15.45,15.45,0,0,1,5.07-.56,2.47,2.47,0,0,1,2.9,2.77l.77,5.4a8.51,8.51,0,0,1,.06,3.06,2.89,2.89,0,0,1-1.9,2.22c-1.21.31-2.39-.46-3.53-1-2.85-1.27-6.15-.94-9.12-1.89a2,2,0,0,1-1.37-1,2.09,2.09,0,0,1-.1-.93c0-1.74-.32-4.11.2-5.77C663.49,271,665.31,271.46,666.65,271.46Z"/><path class="cls-15" d="M686.17,245.51a16.22,16.22,0,0,1,5.64-.39,5.94,5.94,0,0,1,6,6.72A15.87,15.87,0,0,1,694.33,262a9.1,9.1,0,0,1-2,1.9,13,13,0,0,1-2.57,1.24L669.86,273a129.41,129.41,0,0,1-16,5.51,1.24,1.24,0,0,1-1.66-.58v0a41.61,41.61,0,0,1-4.37-8,.54.54,0,0,1,.08-.76.42.42,0,0,1,.16-.09l14.1-8.1a14.23,14.23,0,0,0,2.87-2,7.32,7.32,0,0,0,1.47-2c.29-.61.32-2.05.69-2.5s1.62-.48,2.19-.65a18.1,18.1,0,0,0,2.39-.91c3.16-1.41,6-3.46,9-5.11A22.71,22.71,0,0,1,686.17,245.51Z"/><path class="cls-35" d="M678.18,251.56c-2.42,1.82-5.56,3.49-8,5.36-.82.64-14.48,8.31-14.67,9.33,2.24.38,16.5-9.6,18.55-10.6a32.74,32.74,0,0,0,5.64-3.79c.46-.36,2.39-1.42,1.08-1.82C680.08,249.82,678.72,251.2,678.18,251.56Z"/><polygon class="cls-31" points="664.89 167.12 654.11 161.47 639.22 163.78 636.13 177.39 643.8 177.1 645.95 172.1 645.95 177.01 649.49 176.88 651.54 168.92 652.82 177.39 665.4 177.13 664.89 167.12"/><rect class="cls-36" x="639.28" y="195.04" width="23.21" height="28.01"/><path class="cls-24" d="M628.26,243.75a5.66,5.66,0,0,0,2,2,3.93,3.93,0,0,0,3.46-.09,6,6,0,0,0,2.5-2.51,12.44,12.44,0,0,0,1.27-6.92c-.15-2.37-.65-4.71-.88-7.08-.16-1.72-.17-3.45-.19-5.18a1.71,1.71,0,0,1,.22-1,2,2,0,0,1,1.16-.58c2.36-.7,3.93-2.92,5.06-5.12a8.91,8.91,0,0,0,1.26-4.71,3.71,3.71,0,0,0-3-3.46,4.74,4.74,0,0,0-3.57,1.67,15.33,15.33,0,0,0-4.49,9,34.79,34.79,0,0,1-.6,5c-1,3.46-4,5.58-5.52,8.69C625.32,236.82,626.24,240.71,628.26,243.75Z"/><path class="cls-24" d="M672.88,230.53a6.52,6.52,0,0,1-3.66,3.52,5.06,5.06,0,0,1-3.19.2,3.52,3.52,0,0,1-2.33-2.09,5.56,5.56,0,0,1-.27-1.57,16.13,16.13,0,0,1,.76-6.91c.32-.84.76-1.64,1-2.5a12.17,12.17,0,0,0,.39-3.06l.28-6.36a4.27,4.27,0,0,0-.1-1.38,4.39,4.39,0,0,0-1.93-2.07,12.7,12.7,0,0,1-4.71-5,3.56,3.56,0,0,1-.33-2.08,3.47,3.47,0,0,1,2.8-2.36,6.27,6.27,0,0,1,7.45,4.78c0,.09,0,.18.05.27.12.71.12,1.45.19,2.17.16,1.54.65,3,1,4.54.76,3.73.37,7.59,1.11,11.33C672,225.08,674.33,227.12,672.88,230.53Z"/><path class="cls-33" d="M287.11,342.61a7.24,7.24,0,0,1-5.37.16c-2.72-1.11-4.37-.06-3,2.18s.08,2.49-3,1.79-5-1.54-6.12,0,.89,2.86.11,3.48-3.72-1.38-5.07.16,2,2.42,1.59,2.93-2.58.18-2.75,1.18,2.08,1,1.61,1.82-3.45,1.13-2.4,2.49,2.81.1,3.62.37.47,2.57,2,3,1.09-3.11,2.39-3.15.1,3.28,1.89,3.52,2.55-4.65,3.48-5,1.92,2.73,3.41,2.48,2.53-1.67,2.57-6.84c-.07-2.18,1.53-2.13,3.18-.19S289.86,348.29,287.11,342.61Z"/><path class="cls-37" d="M268.13,356.76s14.83-2.18,22-20.29"/><path class="cls-10" d="M336,327s3.27-2.23,2.48-7.49-1.53-6.33-1.53-6.33-5.46,3.19-6.51,6.85c-3.89-7.3-14.41-7.77-14.41-7.77a17.35,17.35,0,0,0,5.58,12.66C313.1,326,307.17,336,307.17,336s10.3,3.16,16.61,1.09C322,344.75,325.31,349,325.31,349s8.41-4.75,8.58-12.3c7.07,3.92,9.44,3.12,9.44,3.12S344.45,330,336,327Z"/><path class="cls-37" d="M313.85,333.83S334,324,354.42,326.45"/><path class="cls-37" d="M320.07,316.38s8.07,7.79,10.69,12.11a74.2,74.2,0,0,1-3.53,15.81"/><path class="cls-10" d="M327.73,366.39a7.18,7.18,0,0,0-4.93,2.12c-2,2.16-3.93,1.92-3.65-.69s-1-2.29-3.45-.35-3.85,3.5-5.54,2.6-.41-3-1.38-3.19-2.78,2.82-4.65,2,.75-3,.19-3.32-2.41.93-3,.1,1.45-1.81.68-2.34-3.59.44-3.22-1.23,2.5-1.29,3.11-1.88-.65-2.53.52-3.57,2.31,2.35,3.5,1.84-1.3-3,.22-4,4.28,3.13,5.27,3,.58-3.28,2-3.69,3,.44,5.23,5.1c.87,2,2.29,1.29,3-1.17S327.82,360.07,327.73,366.39Z"/><path class="cls-37" d="M304.54,361.62s14.36-4.32,28.51,9.06"/></g></g></svg>