<svg xmlns="http://www.w3.org/2000/svg" xmlns:xlink="http://www.w3.org/1999/xlink" width="7" height="13" viewBox="0 0 7 13"><defs><style>.a{fill:none;}.b{clip-path:url(#a);}.c{clip-path:url(#b);}.d{fill:#916d9b;}</style><clipPath id="a"><path class="a" d="M.462,0A.453.453,0,0,1,.135-.134a.458.458,0,0,1,0-.65L5.884-6.5.135-12.216a.458.458,0,0,1,0-.65.465.465,0,0,1,.654,0L6.865-6.825a.458.458,0,0,1,0,.65L.789-.134A.453.453,0,0,1,.462,0Z"/></clipPath><clipPath id="b"><path class="a" d="M-940,2200H500V-673H-940Z"/></clipPath></defs><g transform="translate(0 13)"><g class="b"><g class="c"><path class="d" d="M-5-18H12V5H-5Z"/></g></g></g></svg>